<?xml version="1.0" standalone="no"?>
<!DOCTYPE svg PUBLIC "-//W3C//DTD SVG 20010904//EN"
 "http://www.w3.org/TR/2001/REC-SVG-20010904/DTD/svg10.dtd">
<svg version="1.0" xmlns="http://www.w3.org/2000/svg"
 width="512.000000pt" height="512.000000pt" viewBox="0 0 512.000000 512.000000"
 preserveAspectRatio="xMidYMid meet">
<metadata>
Created by potrace 1.11, written by Peter Selinger 2001-2013
</metadata>
<g transform="translate(0.000000,512.000000) scale(0.100000,-0.100000)"
fill="#000000" stroke="none">
<path d="M3571 4339 c-82 -14 -75 -20 19 -17 56 2 85 7 88 16 4 14 -25 14
-107 1z"/>
<path d="M3322 3788 c-40 -12 -71 -22 -69 -24 1 -2 42 -8 90 -14 99 -12 127
-4 127 35 0 22 -4 25 -37 24 -21 0 -71 -10 -111 -21z"/>
<path d="M3026 3406 l-39 -23 94 -5 c99 -5 149 7 149 37 0 12 -16 15 -82 15
-70 0 -89 -4 -122 -24z"/>
<path d="M2722 3130 c-12 -16 -22 -32 -22 -36 0 -3 44 -5 99 -2 100 4 121 11
142 50 9 17 3 18 -94 18 -103 0 -103 0 -125 -30z"/>
<path d="M2480 2931 c-54 -6 -55 -7 -58 -40 -3 -31 -1 -33 20 -28 13 3 58 9
101 12 77 7 77 7 77 36 0 28 -2 29 -42 27 -24 -1 -68 -4 -98 -7z"/>
<path d="M2197 2732 c-87 -16 -88 -16 -82 -42 4 -14 10 -29 15 -34 11 -11 210
23 210 36 0 16 -32 58 -44 57 -6 -1 -51 -9 -99 -17z"/>
<path d="M1887 2528 l-88 -30 40 -30 41 -30 95 32 c52 17 95 33 95 34 0 6 -80
56 -87 55 -5 0 -48 -14 -96 -31z"/>
<path d="M1602 2316 l-84 -42 64 -25 63 -26 77 41 c43 23 78 44 78 48 0 3 -19
13 -42 21 -24 8 -50 17 -58 20 -8 4 -53 -13 -98 -37z"/>
<path d="M1351 2084 c-34 -26 -60 -49 -57 -51 4 -4 141 -33 156 -33 3 0 35 24
73 54 l67 54 -63 11 c-97 17 -108 15 -176 -35z"/>
<path d="M1145 1825 l-57 -65 111 0 110 0 45 59 c25 33 46 62 46 65 0 3 -44 6
-99 6 l-99 0 -57 -65z"/>
<path d="M1163 1635 c-57 -8 -107 -16 -111 -19 -10 -6 -56 -126 -50 -130 1 -1
60 5 131 13 l127 14 10 37 c21 79 23 100 9 99 -8 -1 -60 -7 -116 -14z"/>
<path d="M2470 1627 c-13 -7 -35 -28 -47 -46 -22 -32 -23 -44 -23 -195 0 -178
5 -197 59 -233 32 -21 45 -23 180 -23 101 0 151 -4 159 -12 20 -20 15 -86 -7
-98 -12 -6 -96 -10 -205 -10 l-186 0 0 -106 0 -106 253 4 c352 4 347 1 347
268 0 240 -3 243 -230 248 -86 2 -161 8 -167 14 -16 13 -17 70 -1 86 9 9 68
12 205 12 l193 0 0 105 0 105 -252 0 c-182 0 -260 -4 -278 -13z"/>
<path d="M3072 1223 l3 -418 92 -3 92 -3 3 158 3 158 53 -157 54 -158 88 0 88
0 54 158 53 157 3 -157 3 -158 89 0 90 0 0 420 0 421 -86 -3 -86 -3 -102 -287
c-55 -157 -103 -289 -106 -292 -3 -2 -53 128 -110 290 l-105 294 -87 0 -88 0
2 -417z"/>
<path d="M1115 1363 c-71 -20 -131 -37 -132 -38 -5 -3 19 -130 26 -137 3 -4
67 12 141 36 l135 43 -2 44 c-3 61 -11 89 -26 88 -6 0 -70 -17 -142 -36z"/>
<path d="M1198 1099 l-138 -69 51 -70 51 -70 137 72 c75 39 138 72 140 74 4 3
-85 121 -97 127 -4 3 -69 -26 -144 -64z"/>
<path d="M1401 858 c-93 -74 -111 -92 -100 -102 8 -7 51 -36 96 -65 l82 -53
30 23 c51 41 199 174 200 179 1 3 -43 28 -97 57 l-97 51 -114 -90z"/>
<path d="M1745 663 c-55 -73 -81 -115 -73 -118 23 -8 256 -65 266 -65 17 0
163 230 150 235 -7 2 -68 17 -135 33 l-123 29 -85 -114z"/>
</g>
</svg>
