<?xml version="1.0" standalone="no"?>
<!DOCTYPE svg PUBLIC "-//W3C//DTD SVG 1.1//EN" "http://www.w3.org/Graphics/SVG/1.1/DTD/svg11.dtd" >
<svg>
<metadata>
Created by FontForge 20090914 at Sun Apr 11 20:11:38 2021
 By www-data
Digital Font Data Copyright 1996 Image Club Graphics
</metadata>
<defs>
<font id="FolioICGBold" horiz-adv-x="1266" >
  <font-face 
    font-family="Folio ICG"
    font-weight="700"
    font-stretch="normal"
    units-per-em="1849"
    panose-1="0 0 7 0 0 0 0 0 0 0"
    ascent="1479"
    descent="-370"
    x-height="877"
    cap-height="1320"
    bbox="-114.999 -426.024 2190 1944"
    underline-thickness="20"
    underline-position="-128"
    unicode-range="U+0020-U+25CA"
  />
<missing-glyph horiz-adv-x="925" 
d="M116 0v1387h693v-1387h-693zM231 116h462v1155h-462v-1155z" />
    <glyph glyph-name=".notdef" horiz-adv-x="925" 
d="M116 0v1387h693v-1387h-693zM231 116h462v1155h-462v-1155z" />
    <glyph glyph-name="space" unicode=" " horiz-adv-x="432" 
 />
    <glyph glyph-name="exclam" unicode="!" horiz-adv-x="513" 
d="M455 1248l-57 -882h-297l-42 882h396zM425 -1h-351v241h351v-241z" />
    <glyph glyph-name="quotedbl" unicode="&#x22;" horiz-adv-x="508" 
d="M427 1034h-113v286h113v-286zM205 1034h-114v286h114v-286z" />
    <glyph glyph-name="numbersign" unicode="#" horiz-adv-x="1033" 
d="M985 775h-217l-33 -225h193v-144h-209l-60 -409h-153l57 409h-168l-56 -406h-156l57 406h-200v144h223l29 225h-190v144h214l57 373h152l-54 -375h168l56 375h149l-53 -373h194v-144zM616 771h-167l-33 -223h167z" />
    <glyph glyph-name="dollar" unicode="$" horiz-adv-x="1275" 
d="M1225 417c-4 -166 -66.667 -281.331 -188 -345.998c-76 -40.667 -189.333 -64.334 -340 -71.001v-216h-111v213c-73.333 8 -123.666 14.667 -150.999 20c-70.667 13.333 -128.334 33.666 -173.001 60.999c-116 70.667 -184 180.667 -204 330h357c-2 -52 14 -97 48 -135
c38.667 -42.667 80.667 -62.667 126 -60v312c-140.667 6 -252.667 37 -336 93c-102 67.333 -152 166.333 -150 297c2 118 52 213.667 150 287c89.333 66 201.333 102.333 336 109v174h108v-171c109.333 -0.666992 214.333 -23.667 315 -69
c64 -28.667 111 -79.334 141 -152.001c22 -52.667 31 -99 27 -139h-333c4.66699 47.333 -11.333 86.333 -48 117c-12 10 -27.667 16.667 -47 20l-52 10v-279c192.667 -22 329 -64.167 409 -126.5s118.667 -155.166 116 -278.499zM589 840.002l-0.000976562 258
c-5.33301 0.666992 -10.333 1 -15 1c-34 0 -64.667 -14.667 -92 -44s-41.666 -60 -42.999 -92c-1.33301 -35.333 15.667 -65.666 51 -90.999c32 -22.667 65 -33.334 99 -32.001zM879.999 372.002c-2.66699 41.333 -22.667 74.333 -60 99c-33.333 22 -74.333 34 -123 36v-294
c48 -4 90.667 8.66699 128 38c40 32 58.333 72.333 55 121z" />
    <glyph glyph-name="percent" unicode="%" horiz-adv-x="1365" 
d="M1307 306c0.666992 -102 -26.001 -183.499 -80.001 -244.499s-124.333 -91.5 -211 -91.5c-83.333 0 -152.166 31.5 -206.499 94.5s-81.5 141.5 -81.5 235.5c0 100 27 180.5 81 241.5s124 91.5 210 91.5c84.667 0 153.667 -30.333 207 -91s80.333 -139.334 81 -236.001z
M1217 1257l-942 -1257h-123l942 1257h123zM637.999 954.001c0.666992 -102 -26.001 -183.499 -80.001 -244.499s-124.333 -91.5 -211 -91.5c-83.333 0 -152.166 31.5 -206.499 94.5s-81.5 141.5 -81.5 235.5c0 100 27 180.5 81 241.5s124 91.5 210 91.5
c84.667 0 153.667 -30.333 207 -91s80.333 -139.334 81 -236.001zM1118 309.002c-2 64.667 -7.66895 112 -17.002 142c-15.333 48 -43.666 72.667 -84.999 74c-44.667 1.33301 -74.667 -27 -90 -85c-8.66699 -34 -12.667 -81.667 -12 -143c2 -145.333 37 -218.333 105 -219
c44.667 -0.666992 74.334 28.666 89.001 87.999c8 32.667 11.333 80.334 10 143.001zM448.996 957.002c-2 64.667 -7.66895 112 -17.002 142c-15.333 48 -43.666 72.667 -84.999 74c-44.667 1.33301 -74.667 -27 -90 -85c-8.66699 -34 -12.667 -81.667 -12 -143
c2 -145.333 37 -218.333 105 -219c44.667 -0.666992 74.334 28.666 89.001 87.999c8 32.667 11.333 80.334 10 143.001z" />
    <glyph glyph-name="ampersand" unicode="&#x26;" horiz-adv-x="1413" 
d="M1379 3l-413.997 -0.000976562l-66 81c-131.333 -81.333 -266.333 -123.333 -405 -126c-108.667 -2.66699 -207.334 30.333 -296.001 99c-94 73.333 -142.333 163.333 -145 270c-2 76.667 26.667 149.334 86 218.001c26 30.667 83.333 82 172 154
c-69.333 74 -105.333 112.667 -108 116c-42.667 56.667 -62.667 112 -60 166c4.66699 96 51 172.333 139 229c80 51.333 174.667 77 284 77c113.333 0 207.666 -22.333 282.999 -67c89.333 -52 136 -127.667 140 -227c3.33301 -72 -16.334 -134 -59.001 -186
c-28.667 -35.333 -88 -85.333 -178 -150l195 -201l33 57h312c-7.33301 -22.667 -26.333 -60.667 -57 -114c-24 -32.667 -62 -74.667 -114 -126zM578.003 1089c-30 2 -56.167 -5.16797 -78.5 -21.501s-33.5 -37.833 -33.5 -64.5c0 -45.333 32.333 -92.666 97 -141.999
c76.667 46 115 93 115 141c0 24 -9.83301 44 -29.5 60s-43.167 25 -70.5 27zM722.003 260.998l-216.001 225c-69.333 -34 -104 -83.333 -104 -148c0 -32 12.667 -59.667 38 -83c34.667 -32 77.334 -48 128.001 -48c62.667 0 114 18 154 54z" />
    <glyph glyph-name="quotesingle" unicode="'" horiz-adv-x="315" 
d="M205 1034h-114v286h114v-286z" />
    <glyph glyph-name="parenleft" unicode="(" horiz-adv-x="717" 
d="M660 -5c-18.667 -1.33301 -36.999 -1.99902 -54.999 -1.99902c-364 0 -543.667 224.667 -539 674c2 189.333 38 340 108 452c87.333 139.333 223 209 407 209c25.333 0 51.666 -1.33301 78.999 -4v-231c-95.333 0.666992 -159.333 -43.666 -192 -132.999
c-16.667 -46.667 -28.667 -136.334 -36 -269.001c-1.33301 -22.667 -2 -45 -2 -67c0 -268.667 76.667 -399.334 230 -392.001v-237z" />
    <glyph glyph-name="parenright" unicode=")" horiz-adv-x="705" 
d="M656 667c4.66699 -449.333 -174.999 -674.001 -538.999 -674.001c-18 0 -36.333 0.666992 -55 2v237c153.333 -7.33301 230 123.334 230 392.001c0 22 -0.666992 44.333 -2 67c-7.33301 132.667 -19.333 222.334 -36 269.001
c-32.667 89.333 -96.667 133.666 -192 132.999v231c27.333 2.66699 53.666 4 78.999 4c184 0 319.667 -69.667 407 -209c70 -112 106 -262.667 108 -452z" />
    <glyph glyph-name="asterisk" unicode="*" horiz-adv-x="577" 
d="M513 1298l-122 -78l121 -79l-60 -91l-106 68v-124h-111v125l-96 -59l-61 90l112 72l-115 79l63 87l98 -63v125h110v-129l106 67z" />
    <glyph glyph-name="plus" unicode="+" horiz-adv-x="1129" 
d="M1046 420h-427v-424h-111v424h-422l2 121h420v425h115v-426h423v-120z" />
    <glyph glyph-name="comma" unicode="," horiz-adv-x="490" 
d="M421 111c0 -62 -9 -122.333 -27 -181c-14 -46.667 -31 -89.667 -51 -129h-228c20.667 32.667 35.667 62.667 45 90c7.33301 21.333 16.333 57.333 27 108h-114v337h348v-225z" />
    <glyph glyph-name="hyphen" unicode="-" horiz-adv-x="707" 
d="M620 392h-540v259h540v-259z" />
    <glyph glyph-name="hyphen" unicode="&#x2010;" horiz-adv-x="707" 
d="M620 392h-540v259h540v-259z" />
    <glyph glyph-name="period" unicode="." horiz-adv-x="484" 
d="M422 -1h-348v340h348v-340z" />
    <glyph glyph-name="slash" unicode="/" horiz-adv-x="981" 
d="M912 1257l-722 -1257h-123l722 1257h123z" />
    <glyph glyph-name="zero" unicode="0" 
d="M1204 654c6 -185.333 -41.667 -343 -143 -473c-110 -142 -257.333 -211 -442 -207c-182.667 4 -323 68.667 -421 194c-86 109.333 -133 253.333 -141 432c-8 184 38.333 342.667 139 476c109.333 144 253.333 215 432 213c182.667 -2 325.667 -67 429 -195
c92.667 -114 141.667 -260.667 147 -440zM826 636c-2 129.333 -12.001 224 -30.001 284c-30 97.333 -86 148.333 -168 153c-84 4.66699 -144 -55.666 -180 -180.999c-23.333 -82.667 -33.666 -175.334 -30.999 -278.001c7.33301 -289.333 79.333 -432 216 -428
c132.667 4 197 154 193 450z" />
    <glyph glyph-name="one" unicode="1" 
d="M957 0h-354v888l-156 -120l-150 183l333 300h327v-1251z" />
    <glyph glyph-name="two" unicode="2" 
d="M1162 864c4.66699 -116 -43.3359 -217.669 -144.003 -305.002c-64.667 -56 -171.667 -118.333 -321 -187c-44 -20 -86 -61 -126 -123h555v-249h-1008c8.66699 82.667 15.334 133.667 20.001 153c14.667 56.667 45.834 116.5 93.501 179.5s123.5 125.833 227.5 188.5
c127.333 77.333 203.333 127 228 149c70 60.667 106.333 133.334 109 218.001c1.33301 42.667 -9 79.334 -31 110.001c-27.333 38 -69 58.333 -125 61c-44.667 2 -83 -18.667 -115 -62c-28.667 -39.333 -43 -83.333 -43 -132c0 -8.66699 0.666992 -17 2 -25h-351
c-2 144.667 51 256 159 334c93.333 67.333 212.333 101 357 101c142.667 0 258.334 -30.333 347.001 -91c104.667 -71.333 160 -178 166 -320z" />
    <glyph glyph-name="three" unicode="3" 
d="M1163 351c4.66699 -114 -46.332 -209.334 -152.999 -286.001c-100 -71.333 -215 -106 -345 -104c-156 2.66699 -285.333 38 -388 106c-114.667 76 -173.334 180.667 -176.001 314h360c2.66699 -127.333 59.667 -191.333 171 -192c51.333 0 93.5 17.5 126.5 52.5
s48.833 81.5 47.5 139.5c-1.33301 48 -19.666 88.5 -54.999 121.5s-77 49.5 -125 49.5h-96v210h84c112 0 166 52 162 156c-1.33301 40.667 -16.5 74.834 -45.5 102.501s-63.833 41.5 -104.5 41.5c-41.333 0 -76.5 -15.667 -105.5 -47s-42.833 -67.666 -41.5 -108.999h-357
c4 95.333 46.333 178.333 127 249c96 83.333 224.667 122.333 386 117c137.333 -4.66699 248.666 -31 333.999 -79c105.333 -58.667 162 -146.334 170 -263.001c4 -60.667 -16 -116 -60 -166c-40 -45.333 -94 -80 -162 -104c59.333 -8 112 -36.667 158 -86
c54.667 -58.667 84 -133 88 -223z" />
    <glyph glyph-name="four" unicode="4" 
d="M1211 288h-150v-288h-354v288h-648v252l561 711h441v-714h150v-249zM701 540v396l-309 -396h309z" />
    <glyph glyph-name="five" unicode="5" 
d="M1155 408c0 -128 -49.332 -235.167 -147.999 -321.5s-221.667 -128.166 -369 -125.499c-334 5.33301 -509 136.333 -525 393h354c-1.33301 -47.333 10.667 -87 36 -119c26.667 -34.667 64.667 -53 114 -55c53.333 -2 96.666 23.333 129.999 76
c29.333 46 44 100.667 44 164s-15 119.333 -45 168c-33.333 54.667 -75.333 79.667 -126 75c-46 -4 -79 -17.333 -99 -40l-30 -50h-327v672h891v-255h-555v-186c66 36 137 54 213 54c134.667 0 242 -41.333 322 -124s120 -191.334 120 -326.001z" />
    <glyph glyph-name="six" unicode="6" 
d="M1181 432c0 -152.667 -54 -272.334 -162 -359.001c-99.333 -80 -222.333 -117.333 -369 -112c-364.667 13.333 -551.667 226.333 -561 639c-4 182.667 41 337 135 463c104 139.333 246 208 426 206c146.667 -2 262.334 -29.667 347.001 -83
c90 -57.333 138.333 -139.666 145 -246.999h-339c-15.333 43.333 -30.666 73.666 -45.999 90.999c-22.667 25.333 -54.334 37 -95.001 35c-62.667 -3.33301 -111.667 -35 -147 -95c-30.667 -51.333 -46 -112.666 -46 -183.999c0 -11.333 0.333008 -22.333 1 -33
c82 67.333 176 101.333 282 102c121.333 0.666992 223.166 -39.333 305.499 -120s123.5 -181.667 123.5 -303zM812 423c-2.66699 58 -18.667 107.333 -48 148c-32 45.333 -73 68 -123 68c-52 0 -94 -23.667 -126 -71c-29.333 -43.333 -44.333 -94.666 -45 -153.999
c-0.666992 -60 13.333 -112 42 -156c32 -49.333 74 -74.333 126 -75c54 -0.666992 98 24.666 132 75.999c30.667 48 44.667 102.667 42 164z" />
    <glyph glyph-name="seven" unicode="7" 
d="M1078 1008c-106 -170 -185 -354 -237 -552c-47.333 -180.667 -77.333 -332.667 -90 -456h-387c13.333 82.667 33.333 172.667 60 270c69.333 253.333 175.333 494.333 318 723h-558v252h894v-237z" />
    <glyph glyph-name="eight" unicode="8" 
d="M1170 369c-1.33301 -130.667 -58 -232 -170 -304c-97.333 -62.667 -217.666 -94.334 -360.999 -95.001c-141.333 -0.666992 -266.333 36 -375 110c-117.333 80.667 -173.333 181 -168 301c6 124.667 69 222.667 189 294c-101.333 65.333 -154.333 150.333 -159 255
c-4.66699 99.333 47.666 184.666 156.999 255.999c105.333 68.667 224 100.334 356 95.001c134 -5.33301 245 -35 333 -89c102 -63.333 157 -152.666 165 -267.999c4 -56.667 -8.33301 -105.667 -37 -147c-22 -31.333 -59.667 -65.333 -113 -102
c123.333 -68.667 184.333 -170.667 183 -306zM783 924c-2 41.333 -18.333 76.165 -49 104.498s-66.334 41.5 -107.001 39.5c-40 -2 -73.167 -17.667 -99.5 -47s-40.166 -64.666 -41.499 -105.999c-1.33301 -46 12.667 -83.333 42 -112c27.333 -27.333 62.333 -41 105 -41
c42 0 78 16.333 108 49s44 70.334 42 113.001zM792 392.999c-3.33301 115.333 -54.334 175.332 -153.001 179.999c-49.333 2 -89.833 -15.167 -121.5 -51.5s-48.167 -80.166 -49.5 -131.499s12.334 -96.333 41.001 -135c30.667 -41.333 70 -61.333 118 -60
c114 2.66699 169 68.667 165 198z" />
    <glyph glyph-name="nine" unicode="9" 
d="M1176 643c4 -182.667 -41 -337.332 -135 -463.999c-104 -139.333 -246 -208 -426 -206c-146.667 2 -262.667 30 -348 84c-90 57.333 -138 139.666 -144 246.999h339c14 -41.333 29 -70.666 45 -87.999c22.667 -24.667 54.667 -37.334 96 -38.001
c68.667 -1.33301 119.667 27.667 153 87c27.333 46.667 41 107.667 41 183c0 14 -0.666992 28 -2 42c-82 -67.333 -176 -101.333 -282 -102c-122 -0.666992 -224 39.166 -306 119.499s-123 181.5 -123 303.5c0 152.667 54 272.334 162 359.001c100 80 223 117.333 369 112
c365.333 -13.333 552.333 -226.333 561 -639zM795 829.002c0.666992 59.333 -13.334 111.333 -42.001 156c-32 49.333 -74 74.333 -126 75c-54.667 0.666992 -98.667 -24.666 -132 -75.999c-31.333 -48 -45.333 -102.667 -42 -164c2.66699 -58 18.334 -107.333 47.001 -148
c32 -45.333 73.333 -68 124 -68c51.333 0 93.333 23.667 126 71c29.333 43.333 44.333 94.666 45 153.999z" />
    <glyph glyph-name="colon" unicode=":" horiz-adv-x="488" 
d="M427 474h-348v339h348v-339zM427 -1h-348v340h348v-340z" />
    <glyph glyph-name="semicolon" unicode=";" horiz-adv-x="489" 
d="M426 474h-348v339h348v-339zM426 111c0 -60.667 -9 -121 -27 -181c-14 -46.667 -31 -89.667 -51 -129h-228c21.333 34 36.333 64 45 90c8 21.333 17 57.333 27 108h-114v337h348v-225z" />
    <glyph glyph-name="less" unicode="&#x3c;" horiz-adv-x="1119" 
d="M1029 -3l-939 440v100l937 427v-127l-780 -350l782 -368v-122z" />
    <glyph glyph-name="equal" unicode="=" horiz-adv-x="1151" 
d="M1067 553h-974v109h974v-109zM1067 191h-974v109h974v-109z" />
    <glyph glyph-name="greater" unicode="&#x3e;" horiz-adv-x="1105" 
d="M1036 440l-938 -439v122l782 368l-781 350v126l937 -426v-101z" />
    <glyph glyph-name="question" unicode="?" horiz-adv-x="1176" 
d="M1128 939c2 -71.333 -16.333 -136.333 -55 -195c-22.667 -35.333 -62.667 -78.666 -120 -129.999c-54 -48.667 -87.667 -85.334 -101 -110.001c-11.333 -20.667 -18.166 -43.334 -20.499 -68.001s-4.5 -49 -6.5 -73h-342c-2 89.333 5 155.333 21 198
c14 36.667 60.667 96 140 178c67.333 70.667 101 130.667 101 180c0 6.66699 -0.333008 13.334 -1 20.001c-12 86 -62 132 -150 138c-54 3.33301 -97 -19 -129 -67c-29.333 -43.333 -42.333 -93 -39 -149h-369c10 287.333 196 430.333 558 429
c143.333 -0.666992 260.666 -28.667 351.999 -84c104 -62 157.667 -151 161 -267zM825 0h-345v237h345v-237z" />
    <glyph glyph-name="at" unicode="@" horiz-adv-x="1289" 
d="M1234 720c0 -122.667 -39.001 -232 -117.001 -328c-80 -98.667 -173 -148 -279 -148c-35.333 0 -64.666 14.333 -87.999 43c-20 25.333 -31.667 56.333 -35 93l-49 -56c-42 -48 -95 -72.333 -159 -73c-64.667 -0.666992 -118.667 26 -162 80
c-40.667 50.667 -61 110.334 -61 179.001c0 102.667 43.333 192 130 268c78 69.333 157.667 104 239 104c68.667 0 111.667 -25.333 129 -76l16 -46l33 102l142 4l-129 -476c-6 -22.667 -7.33301 -44 -4 -64c4 -23.333 14.333 -35 31 -35c67.333 0 130 45.333 188 136
c57.333 88.667 86 182 86 280c0 127.333 -50 229.333 -150 306c-91.333 69.333 -202 104 -332 104c-141.333 0 -262.166 -50 -362.499 -150s-150.5 -220.667 -150.5 -362c0 -147.333 51.167 -273.5 153.5 -378.5s226.5 -157.5 372.5 -157.5c221.333 0 369 79.333 443 238
h109c-30.667 -62.667 -70 -116.334 -118 -161.001c-114 -107.333 -260 -161 -438 -161c-168.667 0 -312.834 60 -432.501 180s-179.167 264.333 -178.5 433c0.666992 166.667 59.834 309.167 177.501 427.5s259.167 177.5 424.5 177.5c151.333 0 282.666 -44 393.999 -132
c118 -93.333 177 -210.333 177 -351zM766.999 694c0 96.667 -32.667 145 -98 145c-54 0 -106.833 -45.5 -158.5 -136.5s-77.5 -179.833 -77.5 -266.5c0 -91.333 37.333 -137 112 -137c54.667 0 106.667 50 156 150c44 90 66 171.667 66 245z" />
    <glyph glyph-name="A" unicode="A" horiz-adv-x="1541" 
d="M1524 -2h-411l-96 260h-501l-90 -260h-405l504 1322h470zM927 516l-168 453l-153 -453h321z" />
    <glyph glyph-name="B" unicode="B" horiz-adv-x="1364" 
d="M1313 381c0 -122.667 -43.668 -219 -131.001 -289c-79.333 -62.667 -178.666 -94 -297.999 -94h-821v1322l824 -2c96.667 0 180 -27.333 250 -82c74 -57.333 112.667 -131.333 116 -222c5.33301 -150 -63.667 -253 -207 -309c78.667 -18 141.667 -53.667 189 -107
c52 -58 78 -130.333 78 -217zM865.999 945c-2.66699 59.333 -42.667 89 -120 89h-306v-199h309c80.667 0 119.667 36.667 117 110zM925.999 417c-6 92.667 -58 139 -156 139h-330v-272h357c92 0 135 44.333 129 133z" />
    <glyph glyph-name="C" unicode="C" horiz-adv-x="1482" 
d="M1429 492c-4 -171.333 -75.667 -307.667 -215 -409c-124 -89.333 -272.333 -134 -445 -134c-204.667 0 -375 64.667 -511 194c-141.333 135.333 -210 310.666 -206 525.999c3.33301 203.333 64 368 182 494c124.667 133.333 294 201.666 508 204.999
c182 2.66699 329.667 -29.333 443 -96c134.667 -79.333 210 -203.333 226 -372h-378c-38.667 147.333 -130.667 220.333 -276 219c-103.333 -1.33301 -182.333 -47.666 -237 -138.999c-44.667 -75.333 -69.667 -173 -75 -293c-5.33301 -124 17.667 -231.667 69 -323
c58.667 -105.333 140.667 -156.666 246 -153.999c164.667 4 259.667 98 285 282h384z" />
    <glyph glyph-name="D" unicode="D" horiz-adv-x="1470" 
d="M1420 663c1.33301 -198 -59 -356.333 -181 -475c-129.333 -126.667 -311 -190 -545 -190h-632v1322h710c202 0 362.333 -64.667 481 -194c110 -120.667 165.667 -275 167 -463zM1021 684c-2.66699 104.667 -30.333 187.333 -83 248c-58.667 68 -145 102 -259 102h-228
v-750h156c282 0 420 133.333 414 400z" />
    <glyph glyph-name="E" unicode="E" horiz-adv-x="1179" 
d="M1118 -2h-1052v1322h1044v-286h-655v-199h549v-279h-549v-272h663v-286z" />
    <glyph glyph-name="F" unicode="F" horiz-adv-x="1161" 
d="M1103 1034h-658v-199h540v-279h-540v-558l-382 1v1321h1040v-286z" />
    <glyph glyph-name="G" unicode="G" horiz-adv-x="1503" 
d="M1437 895l-369 0.000976562c-24 73.333 -51.333 124.666 -82 153.999c-41.333 39.333 -104.333 62 -189 68c-104.667 7.33301 -189.334 -36.667 -254.001 -132c-58.667 -86.667 -88 -194.667 -88 -324c0 -124.667 24.667 -229.667 74 -315
c57.333 -98.667 139.666 -150 246.999 -154c82 -2.66699 149.333 19.666 202 66.999c46 41.333 74.333 95 85 161h-240v216h613v-638h-285l-23 155c-27.333 -44 -75.333 -86 -144 -126c-91.333 -53.333 -190 -79.333 -296 -78c-197.333 2 -354.333 73.333 -471 214
c-109.333 130.667 -163 292.334 -161 485.001c2 221.333 74.333 399.333 217 534c136.667 128.667 307.334 190.667 512.001 186c179.333 -4 318 -35.667 416 -95c124.667 -74.667 203.334 -200.667 236.001 -378z" />
    <glyph glyph-name="H" unicode="H" horiz-adv-x="1391" 
d="M1326 -2h-390l-2 558h-480l-1 -558h-388v1322h390v-485h482l-1 486h390v-1323z" />
    <glyph glyph-name="I" unicode="I" horiz-adv-x="588" 
d="M493 -2h-390v1322h390v-1322z" />
    <glyph glyph-name="J" unicode="J" horiz-adv-x="1171" 
d="M1111 1320l-2 -924c0 -147.333 -46.5 -259.333 -139.5 -336s-224.5 -113.667 -394.5 -111c-352.667 5.33301 -527.667 147.333 -525 426h387c2 -114.667 51 -169.667 147 -165c90 4.66699 135 65.667 135 183v927h392z" />
    <glyph glyph-name="K" unicode="K" horiz-adv-x="1440" 
d="M1411 -2h-423l-336 602l-204 -204v-398h-389v1322h390l-1 -474l480 474h480l-483 -474z" />
    <glyph glyph-name="L" unicode="L" horiz-adv-x="1114" 
d="M1059 -2h-995v1322h390l1 -1036h604v-286z" />
    <glyph glyph-name="M" unicode="M" horiz-adv-x="1749" 
d="M1682 -2h-353l-1 881l-261 -881h-372l-279 863v-863h-352v1322h559l255 -801l239 801h565v-1322z" />
    <glyph glyph-name="N" unicode="N" horiz-adv-x="1449" 
d="M1387 -2h-508l-461 872v-872h-356v1322h510l460 -839v839h355v-1322z" />
    <glyph glyph-name="O" unicode="O" horiz-adv-x="1596" 
d="M1544 657c-1.33301 -208 -64.001 -376 -188.001 -504c-133.333 -137.333 -317.666 -205.333 -552.999 -204c-232.667 1.33301 -417 70 -553 206c-129.333 130.667 -194 299 -194 505c0 207.333 66.667 377.333 200 510c138.667 138 323 206 553 204
c220.667 -2 399.667 -72.333 537 -211c133.333 -134 199.333 -302.667 198 -506zM1142 675c2 132.667 -28.498 238.499 -91.498 317.499s-148.5 118.167 -256.5 117.5c-104.667 -0.666992 -188.334 -42.667 -251.001 -126c-60 -80 -90.333 -183 -91 -309
c-0.666992 -145.333 29.666 -258.666 90.999 -339.999c62 -83.333 148.667 -124 260 -122c113.333 2 197 38.667 251 110c56.667 74 86 191.333 88 352z" />
    <glyph glyph-name="P" unicode="P" horiz-adv-x="1347" 
d="M1290 877c-2.66699 -162 -58.333 -281.668 -167 -359.001c-90.667 -64.667 -213 -97 -367 -97h-311l-1 -423h-380v1321h750c142.667 0 258.667 -42 348 -126c87.333 -83.333 130 -188.666 128 -315.999zM886.001 882.999c-0.666992 44.667 -16.833 81 -48.5 109
s-70.167 42 -115.5 42h-278v-325h274c113.333 0 169.333 58 168 174z" />
    <glyph glyph-name="Q" unicode="Q" horiz-adv-x="1593" 
d="M1533 700c0 -185.333 -53.998 -341.667 -161.998 -469c-106 -124.667 -247.333 -202.667 -424 -234c-5.33301 -19.333 -2 -36 10 -50c8 -9.33301 30.333 -14 67 -14h132v-225h-281c-90 0 -154.333 15.667 -193 47s-58.334 73.666 -59.001 126.999l-1 118
c-168 36.667 -303 118 -405 244s-153.333 275 -154 447c-0.666992 205.333 63 374.666 191 507.999c135.333 140.667 314.666 209.334 537.999 206.001c233.333 -3.33301 417 -72 551 -206c126.667 -127.333 190 -293.666 190 -498.999zM1128 711.999
c2 132.667 -26.999 237.832 -86.999 315.499s-143 116.5 -249 116.5c-104.667 0 -187.334 -41 -248.001 -123c-58 -79.333 -87.333 -184.333 -88 -315c-0.666992 -143.333 30.833 -256.166 94.5 -338.499s147.167 -120.5 250.5 -114.5c214 12.667 323 165.667 327 459z" />
    <glyph glyph-name="R" unicode="R" horiz-adv-x="1335" 
d="M1288 -2l-409.002 -0.000976562c-19.333 14.667 -32 57.667 -38 129l-4 174c-2.66699 85.333 -12 143 -28 173c-18 34.667 -57 52 -117 52h-252v-528h-380v1322h801c104 0 191.333 -23.667 262 -71c90 -60 136.333 -150 139 -270c2 -84 -15 -150.667 -51 -200
c-29.333 -40.667 -79.666 -77 -150.999 -109c46.667 -24.667 75.334 -41 86.001 -49c24.667 -20 45 -48.333 61 -85c20.667 -48.667 30 -113 28 -193c-2.66699 -96 -1 -159.667 5 -191c4 -24.667 8.5 -49.167 13.5 -73.5s16.5 -51.166 34.5 -80.499zM882.998 923.999
c-2 46.667 -20 78 -54 94c-22.667 10.667 -59.667 16 -111 16h-278v-238h274c116 0 172.333 42.667 169 128z" />
    <glyph glyph-name="S" unicode="S" horiz-adv-x="1383" 
d="M1325 405c7.33301 -150.667 -57.335 -268.664 -194.002 -353.997c-123.333 -77.333 -275.666 -113.333 -456.999 -108c-406.667 12 -611.667 162 -615 450h372c3.33301 -143.333 88.333 -218.333 255 -225c66.667 -2.66699 124.667 9 174 35
c54.667 29.333 82 69.333 82 120c0 5.33301 -0.333008 10.666 -1 15.999c-6 47.333 -27 81.666 -63 102.999c-26 15.333 -74 29 -144 41l-231 39c-128 21.333 -225 58.666 -291 111.999c-83.333 66 -126.333 161.667 -129 287c-2.66699 144 61 256 191 336
c112.667 70 250 104 412 102c376 -4 571 -147 585 -429h-375c0 69.333 -23.667 123.333 -71 162c-43.333 34.667 -97.666 51.667 -162.999 51c-56.667 -0.666992 -104.667 -13 -144 -37c-45.333 -27.333 -68.333 -65 -69 -113c-0.666992 -72.667 47.333 -117.667 144 -135
l267 -48c143.333 -26 248.333 -62.333 315 -109c94 -65.333 144 -164 150 -296z" />
    <glyph glyph-name="T" unicode="T" horiz-adv-x="1305" 
d="M1260 1034h-413v-1036h-393l-1 1036h-413l-1 286h1220z" />
    <glyph glyph-name="U" unicode="U" horiz-adv-x="1410" 
d="M1354 467c0 -348.667 -213 -521.668 -639 -519.001c-217.333 1.33301 -382.333 48.333 -495 141c-108 90 -162 218 -162 384v847h393l-1 -842c0 -76 22 -138.667 66 -188c48 -52.667 113.333 -78.667 196 -78c80.667 0.666992 144 24.334 190 71.001
c43.333 44 65 101.333 65 172v865h387v-853z" />
    <glyph glyph-name="V" unicode="V" horiz-adv-x="1581" 
d="M1553 1320l-534 -1322h-459l-523 1322h429l330 -947l343 947h414z" />
    <glyph glyph-name="W" unicode="W" horiz-adv-x="2060" 
d="M2033 1320l-351 -1322h-423l-229 840l-225 -840h-426l-340 1322h375l195 -773l206 773h433l213 -773l203 773h369z" />
    <glyph glyph-name="X" unicode="X" horiz-adv-x="1395" 
d="M1355 -2h-429l-239 362l-227 -362h-420l433 681l-421 641h420l222 -343l211 343h414l-414 -644z" />
    <glyph glyph-name="Y" unicode="Y" horiz-adv-x="1487" 
d="M1463 1320l-526 -834v-488h-392v473l-505 849h420l284 -477l296 477h423z" />
    <glyph glyph-name="Z" unicode="Z" horiz-adv-x="1308" 
d="M1254 -2h-1200v266l681 770h-669v286h1158v-243l-681 -795h711v-284z" />
    <glyph glyph-name="bracketleft" unicode="[" horiz-adv-x="497" 
d="M447 -378h-362v1700h352v-92h-216v-1516h226v-92zM437 1229z" />
    <glyph glyph-name="backslash" unicode="\" horiz-adv-x="790" 
d="M739 -26l-106 2l-572 1386h106z" />
    <glyph glyph-name="bracketright" unicode="]" horiz-adv-x="531" 
d="M446 -377h-362v92h227v1516h-217v92h352v-1700zM95 1230z" />
    <glyph glyph-name="asciicircum" unicode="^" horiz-adv-x="853" 
d="M782 1046h-219l-126 137l-126 -141h-216l205 278h270z" />
    <glyph glyph-name="underscore" unicode="_" horiz-adv-x="1066" 
d="M1084 -177h-1109v86h1109v-86z" />
    <glyph glyph-name="grave" unicode="`" horiz-adv-x="610" 
d="M541 1046h-219l-231 274h245z" />
    <glyph glyph-name="a" unicode="a" horiz-adv-x="1110" 
d="M1070 -2l-374.997 -0.00195312l-30 87l-102 -77c-62.667 -38 -132 -56.667 -208 -56c-78.667 0.666992 -146.334 25.334 -203.001 74.001c-64 54.667 -98 128.667 -102 222c-3.33301 85.333 23.667 153.333 81 204c52.667 46 120 70.333 202 73l225 8
c29.333 1.33301 54.666 12.333 75.999 33s31 45.334 29 74.001c-4 56.667 -40.667 86.667 -110 90c-35.333 2 -63 -8.33301 -83 -31c-18 -20 -27 -46.333 -27 -79h-360c4 90.667 46.167 163.834 126.5 219.501s188.166 83.5 323.499 83.5c156 0 276.667 -34.333 362 -103
c83.333 -66.667 125 -160.667 125 -282v-373c0 -20.667 4.33301 -47.334 13 -80.001c8 -30 20.333 -59 37 -87zM660.003 312.998v122c-20.667 -18.667 -48 -33.667 -82 -45c-54 -18.667 -90 -34 -108 -46c-32.667 -21.333 -48.334 -50 -47.001 -86
c2.66699 -66.667 34.334 -99.334 95.001 -98.001c36.667 0.666992 69.5 16.334 98.5 47.001s43.5 66 43.5 106z" />
    <glyph glyph-name="b" unicode="b" horiz-adv-x="1176" 
d="M1131 436c2.66699 -137.333 -39.501 -253.999 -126.501 -349.999s-193.833 -140.667 -320.5 -134c-59.333 2.66699 -109.5 13.667 -150.5 33s-85.833 51.666 -134.5 96.999v-84h-337v1322h364v-500c99.333 70.667 194.333 104.667 285 102
c142.667 -4 250.334 -56 323.001 -156c62 -84.667 94.333 -194.667 97 -330zM749.999 445.001c-2.66699 62 -16.999 113 -42.999 153c-28.667 44.667 -68.334 67.667 -119.001 69c-51.333 1.33301 -93.333 -22.667 -126 -72c-28.667 -43.333 -43.667 -95.333 -45 -156
c-1.33301 -62 11.667 -116 39 -162c31.333 -51.333 73.333 -77.333 126 -78c54 -0.666992 97 25.333 129 78c28.667 48 41.667 104 39 168z" />
    <glyph glyph-name="c" unicode="c" horiz-adv-x="1104" 
d="M1053 316c0 -114.667 -49.332 -207.333 -147.999 -278c-88.667 -64 -196.334 -97.667 -323.001 -101c-148 -4 -275 41.833 -381 137.5s-158 213.167 -156 352.5c2 146 53.667 264 155 354c98 87.333 219.333 129.333 364 126c124 -2.66699 231 -34 321 -94
c98.667 -65.333 153.667 -152 165 -260h-366c-10.667 84.667 -54.667 128.667 -132 132c-88.667 4 -137.667 -75 -147 -237c-4.66699 -77.333 5.33301 -142.333 30 -195c28.667 -60.667 72.667 -91.667 132 -93c40 -0.666992 72.667 14 98 44c22 26 33 56 33 90
c0 8 -0.666992 15.333 -2 22h357z" />
    <glyph glyph-name="d" unicode="d" horiz-adv-x="1164" 
d="M1114 -2h-337.001v81c-48.667 -45.333 -93.5 -77.333 -134.5 -96s-91.167 -29.667 -150.5 -33c-126.667 -6.66699 -233.667 38.333 -321 135c-86.667 94.667 -128.667 210.667 -126 348c2.66699 136 35 246.333 97 331c72.667 100 180.334 151.667 323.001 155
c90.667 2 185.667 -32 285 -102v503h364v-1322zM758.999 436c-1.33301 61.333 -16.332 113.666 -44.999 156.999c-32.667 48.667 -74.667 72.334 -126 71.001c-50.667 -1.33301 -90.334 -24.333 -119.001 -69c-26 -39.333 -40.333 -90.333 -43 -153
c-2.66699 -64 10.333 -120 39 -168c32 -52.667 75 -78.667 129 -78c52.667 0.666992 94.667 27 126 79c27.333 46 40.333 99.667 39 161z" />
    <glyph glyph-name="e" unicode="e" horiz-adv-x="1125" 
d="M1080 367l-681 0.00195312c4.66699 -58 21.334 -104.667 50.001 -140c30.667 -37.333 70 -55.666 118 -54.999c71.333 1.33301 114.333 36.333 129 105h366c-15.333 -92.667 -72.333 -170.667 -171 -234c-95.333 -60.667 -201.333 -91 -318 -91
c-145.333 0 -267 41.667 -365 125c-106 89.333 -159.333 208 -160 356c-0.666992 156 50.666 278.667 153.999 368c94 81.333 214.667 122.666 362 123.999c164.667 1.33301 294 -49.334 388 -152.001c86 -95.333 129 -218 129 -368c0 -12.667 -0.333008 -25.334 -1 -38.001
zM708 565.002c-1.33301 46 -15.832 83.332 -43.499 111.999s-65.167 43.334 -112.5 44.001c-40.667 0.666992 -75.334 -14.833 -104.001 -46.5s-45 -68.167 -49 -109.5h309z" />
    <glyph glyph-name="f" unicode="f" horiz-adv-x="789" 
d="M738 642h-210.999v-643h-361l-1 643h-114v235h114v170c0 96 26 172.667 78 230c58 64.667 141 94 249 88c61.333 -3.33301 105 -7 131 -11c42.667 -6.66699 80 -18 112 -34v-204c-20.667 6 -48.334 10 -83.001 12c-38 2 -61.333 0 -70 -6c-36 -26 -54 -58 -54 -96v-149
h210v-235z" />
    <glyph glyph-name="g" unicode="g" horiz-adv-x="1131" 
d="M1084 59c0 -140.667 -52.998 -244 -158.998 -310c-86.667 -54 -201.334 -80.333 -344.001 -79c-130.667 1.33301 -230.334 18.333 -299.001 51c-96.667 45.333 -148 124.333 -154 237h363c10.667 -70 49.667 -104 117 -102c36.667 1.33301 66 14.5 88 39.5
s33 55.167 33 90.5v123c-86 -63.333 -177.333 -94 -274 -92c-116.667 2.66699 -211.667 38.667 -285 108c-78 73.333 -120.667 174 -128 302c-8 130.667 23.667 242.667 95 336c80 104 191.333 157 334 159c124 2 213 -36 267 -114v69h346v-818zM739.002 468
c0 54.667 -15 102.665 -45 143.998c-32 44 -72.333 65.333 -121 64c-49.333 -1.33301 -88.333 -23.666 -117 -66.999c-25.333 -39.333 -39.333 -90 -42 -152c-2 -57.333 13 -106.166 45 -146.499s73 -59.5 123 -57.5c52 2 92.333 26.333 121 73c24 40 36 87.333 36 142z" />
    <glyph glyph-name="h" unicode="h" horiz-adv-x="1116" 
d="M1063 -2l-365.999 0.000976562v507c0 38.667 -10 72.667 -30 102c-25.333 36.667 -62 55 -110 55c-6 0 -12.667 -0.333008 -20 -1c-32 -3.33301 -59.5 -21.5 -82.5 -54.5s-34.5 -69.167 -34.5 -108.5l-1 -500h-362v1322h356v-540
c87.333 93.333 178.666 140.333 273.999 141c250 1.33301 375 -126.334 375 -383.001z" />
    <glyph glyph-name="i" unicode="i" horiz-adv-x="549" 
d="M458 1004h-364v316h364v-316zM458 -2h-364v877h364v-877z" />
    <glyph glyph-name="j" unicode="j" horiz-adv-x="525" 
d="M442 1002h-364v318h364v-318zM442 -30c0 -92.667 -26.666 -166.333 -79.999 -221c-58 -60 -140.667 -89.333 -248 -88c-30.667 0.666992 -107 12.667 -229 36v231c45.333 -17.333 82.666 -24.333 111.999 -21c54 6.66699 81 40.667 81 102v868h364v-907z" />
    <glyph glyph-name="k" unicode="k" horiz-adv-x="1140" 
d="M1113 -2h-397l-184 344l-110 -109v-235h-362v1322h364v-695l246 252h431l-311 -299z" />
    <glyph glyph-name="l" unicode="l" horiz-adv-x="555" 
d="M455 -2h-364v1322h364v-1322z" />
    <glyph glyph-name="m" unicode="m" horiz-adv-x="1668" 
d="M1604 -2l-366.002 -0.000976562v552c0 30.667 -10 57.334 -30 80.001s-45 34 -75 34c-32 0 -59.167 -12.833 -81.5 -38.5s-33.5 -55.5 -33.5 -89.5l-1 -538h-364v561c0 31.333 -10.667 56.333 -32 75s-46.666 27.667 -75.999 27c-32.667 -0.666992 -60 -12.167 -82 -34.5
s-33 -49.5 -33 -81.5l-1 -547h-364v879h343l-1 -98c88.667 97.333 184.667 146.333 288 147c119.333 0.666992 205.333 -52.333 258 -159c32.667 50 78.334 89.667 137.001 119c62 31.333 127.333 44.666 196 39.999c106.667 -7.33301 188 -49.666 244 -126.999
c49.333 -68 74 -154.667 74 -260v-541z" />
    <glyph glyph-name="n" unicode="n" horiz-adv-x="1143" 
d="M1082 -2l-364 0.000976562v510c0 41.333 -11.667 77 -35 107c-25.333 32.667 -59 49.667 -101 51c-37.333 0.666992 -71.333 -12 -102 -38c-34.667 -29.333 -52 -68 -52 -116v-514h-364v879h352l-1 -101c96 105.333 207.333 155.333 334 150c100 -4 181 -43.333 243 -118
c60 -72.667 90 -163.334 90 -272.001v-538z" />
    <glyph glyph-name="o" unicode="o" horiz-adv-x="1200" 
d="M1144 439c0 -144 -47.666 -259.336 -142.999 -346.003c-99.333 -90.667 -233.666 -134.667 -402.999 -132c-162.667 2.66699 -293.334 49.334 -392.001 140.001s-148 207.334 -148 350.001s49.667 260 149 352c102 94.667 232.333 139.334 391 134.001
c169.333 -5.33301 302.666 -53 399.999 -143s146 -208.333 146 -355zM766.001 450.997c0 70.667 -12.332 130.336 -36.999 179.003c-30 59.333 -72.667 88.666 -128 87.999c-54.667 -0.666992 -96.334 -29.667 -125.001 -87c-24 -47.333 -36.333 -106.333 -37 -177
c-0.666992 -74.667 10.666 -136.334 33.999 -185.001c28.667 -58.667 71.334 -88 128.001 -88c56 0 98.667 29.667 128 89c24.667 49.333 37 109.666 37 180.999z" />
    <glyph glyph-name="p" unicode="p" horiz-adv-x="1185" 
d="M1130 446c5.33301 -322 -134.668 -488 -420.001 -498c-60 -2 -116.333 9.33301 -169 34c-23.333 11.333 -62 36 -116 74v-388h-364v1209h346v-95c50.667 48 93.334 81 128.001 99c40.667 22 91 35 151 39c9.33301 0.666992 19 1 29 1c116.667 0 214.5 -46 293.5 -138
s119.5 -204.333 121.5 -337zM751.999 422c2.66699 64 -10.333 119.999 -39 167.999c-32 52.667 -75 78.667 -129 78c-52.667 -0.666992 -94.667 -26.667 -126 -78c-27.333 -46 -40.333 -100 -39 -162c1.33301 -63.333 15.666 -116.333 42.999 -159
c31.333 -48.667 73 -72.667 125 -72c50.667 0.666992 91 24 121 70c26.667 40.667 41.334 92.334 44.001 155.001z" />
    <glyph glyph-name="q" unicode="q" horiz-adv-x="1155" 
d="M1099 -332h-357.999v378c-91.333 -66 -188.333 -96.333 -291 -91c-126.667 6.66699 -225.334 57.334 -296.001 152.001c-64 85.333 -97.333 193 -100 323c-2.66699 137.333 37.166 254.666 119.499 351.999s183.5 145 303.5 143c56.667 -1.33301 108 -16 154 -44
c28.667 -18 72.334 -54.333 131.001 -109v105h337v-1209zM744.001 427c2 62 -10 116 -36 162c-29.333 52.667 -70.333 79.667 -123 81c-54 1.33301 -97 -24.667 -129 -78c-28.667 -47.333 -41.667 -103.333 -39 -168c2.66699 -62.667 17 -114 43 -154
c29.333 -45.333 69 -68 119 -68c105.333 -0.666992 160.333 74.333 165 225z" />
    <glyph glyph-name="r" unicode="r" horiz-adv-x="861" 
d="M820 571c-63.333 14 -116.999 21.001 -160.999 21.001c-18 0 -34.667 -1 -50 -3c-60 -8 -106.667 -32.667 -140 -74c-31.333 -38 -47 -84 -47 -138v-379h-364v879h352l1 -136c46.667 51.333 82.667 86.333 108 105c57.333 43.333 120.333 67.666 189 72.999
c41.333 3.33301 78.666 3.33301 111.999 0v-348z" />
    <glyph glyph-name="s" unicode="s" horiz-adv-x="1026" 
d="M974 281c4.66699 -106.667 -43.6631 -190 -144.996 -250c-86 -50.667 -191.667 -76.334 -317 -77.001c-122.667 -0.666992 -225 21.666 -307 66.999c-98 53.333 -149.667 133 -155 239h343c-1.33301 -35.333 8 -64.333 28 -87c22 -25.333 52.667 -37.666 92 -36.999
c76 2 113.667 31 113 87c-0.666992 46 -45.334 76.333 -134.001 91l-183 30c-70 11.333 -128.667 40.333 -176 87c-50 48.667 -74.667 104.334 -74 167.001c0.666992 99.333 45.167 179.666 133.5 240.999s200.166 90 335.499 86c138.667 -4 241.667 -30.333 309 -79
c65.333 -47.333 102.333 -120.666 111 -219.999h-339c1.33301 6.66699 2 13.334 2 20.001c0 30 -9.83301 55.667 -29.5 77s-44.834 32.666 -75.501 33.999c-27.333 1.33301 -50.333 -6.16699 -69 -22.5s-28.667 -37.5 -30 -63.5c-2.66699 -46.667 43.666 -79 138.999 -97
c150 -28.667 240.333 -50 271 -64c100 -44 152.333 -120.333 157 -229z" />
    <glyph glyph-name="t" unicode="t" horiz-adv-x="777" 
d="M722 642h-215.999v-324c0 -60 17 -97 51 -111c35.333 -14 82.333 -14 141 0v-209l-119 -24c-51.333 -9.33301 -96 -14 -134 -14c-62.667 0 -120.334 12.333 -173.001 37c-82 38.667 -123 129.667 -123 273v372h-120v235h120l1 279h356v-279h216v-235z" />
    <glyph glyph-name="u" unicode="u" horiz-adv-x="1107" 
d="M1047 -2h-340l1 105c-72.667 -106.667 -179 -157 -319 -151c-100 4 -180.5 42.667 -241.5 116s-91.5 164 -91.5 272v537h364v-506c0 -102 43.333 -158.667 130 -170c34.667 -4.66699 67 9.5 97 42.5s45 74.167 45 123.5v510h355v-879z" />
    <glyph glyph-name="v" unicode="v" horiz-adv-x="1161" 
d="M1124 877l-312 -879h-459l-327 879h387l171 -566l174 566h366z" />
    <glyph glyph-name="w" unicode="w" horiz-adv-x="1689" 
d="M1665 877l-261 -879h-393l-165 475l-162 -475h-393l-259 878h354l118 -463l159 464h369l162 -464l123 464h348z" />
    <glyph glyph-name="x" unicode="x" horiz-adv-x="1137" 
d="M1102 -2h-408l-141 234l-141 -234h-378l309 459l-273 420h396l126 -207l108 207h375l-279 -423z" />
    <glyph glyph-name="y" unicode="y" horiz-adv-x="1161" 
d="M1136 877l-348 -946.001c-44 -120.667 -112 -201 -204 -241c-36 -16 -91.667 -24 -167 -24c-76.667 0 -149 6 -217 18v222c26 -4 51.667 -7.66699 77 -11c24 -2.66699 47.333 0 70 8c30.667 10.667 53 28.334 67 53.001c1.33301 2.66699 10 25.667 26 69l-405 852h390
l186 -498l156 498h369z" />
    <glyph glyph-name="z" unicode="z" horiz-adv-x="942" 
d="M893 -2h-837v221l366 422h-351v236h795v-218l-363 -419h390v-242z" />
    <glyph glyph-name="braceleft" unicode="{" horiz-adv-x="537" 
d="M469 -371l-51.9971 -2.99707c-46 -2.66699 -90.833 9.16602 -134.5 35.499s-69.834 55.833 -78.501 88.5c-11.333 42 -17 79 -17 111v416c0 67.333 -15 116.5 -45 147.5s-66.333 48.167 -109 51.5c50 7.33301 91 31.666 123 72.999c22.667 29.333 34 82.666 34 159.999
v361c0 92 21.667 158.667 65 200c32 30.667 85.333 47.334 160 50.001l50 2c-50.667 -12.667 -91.334 -41 -122.001 -85c-24.667 -35.333 -37 -87 -37 -155v-376c0 -72.667 -15.667 -127.334 -47 -164.001c-28.667 -33.333 -64.334 -55 -107.001 -65
c45.333 -8 81.333 -28.333 108 -61c29.333 -36 44 -96 44 -180v-399c0 -50.667 11.667 -92 35 -124c34.667 -47.333 78 -75.333 130 -84z" />
    <glyph glyph-name="bar" unicode="|" horiz-adv-x="263" 
d="M186 -373h-94l2 1691h91z" />
    <glyph glyph-name="braceright" unicode="}" horiz-adv-x="497" 
d="M489 477c-43.333 -4 -79.998 -21.335 -109.998 -52.002s-45 -80 -45 -148v-415c0 -33.333 -5.33301 -70.333 -16 -111c-8.66699 -32.667 -34.334 -62 -77.001 -88c-44.667 -26.667 -90.334 -38.667 -137.001 -36l-52 3c52 8.66699 95.333 36.667 130 84
c23.333 32 35 73.333 35 124v399c0 82.667 15 142.667 45 180c25.333 32 61 52.333 107 61c-41.333 10 -76.666 31.667 -105.999 65c-32 36.667 -48 91.334 -48 164.001v377c0 67.333 -12.333 118.666 -37 153.999c-30.667 44 -71.334 72.333 -122.001 85l50 -2
c75.333 -3.33301 129 -20 161 -50c43.333 -41.333 65 -108 65 -200v-361c0 -77.333 11.333 -130.666 34 -159.999c32 -41.333 73 -65.666 123 -72.999z" />
    <glyph glyph-name="asciitilde" unicode="~" horiz-adv-x="866" 
d="M798 1224c-42 -86.667 -114.667 -130 -218 -130c-30 0 -68.167 7.83301 -114.5 23.5s-89.5 23.5 -129.5 23.5c-36.667 0 -64.334 -15.333 -83.001 -46l-150 93c62.667 88 134 132 214 132c26 0 61.333 -8.33301 106 -25s87.334 -25 128.001 -25c42 0 73.667 16.667 95 50
z" />
    <glyph glyph-name="nonbreakingspace" unicode="&#xa0;" horiz-adv-x="888" 
 />
    <glyph glyph-name="exclamdown" unicode="&#xa1;" horiz-adv-x="534" 
d="M448 718h-351v240h351v-240zM463 -290h-396l57 882h297z" />
    <glyph glyph-name="cent" unicode="&#xa2;" horiz-adv-x="1157" 
d="M1097 595c4.66699 -112.667 -51.334 -209.999 -168.001 -291.999c-59.333 -42 -149.333 -71.333 -270 -88v-172h-105v182c-135.333 5.33301 -248.333 53.166 -339 143.499s-136 200.166 -136 329.499s45 240.5 135 333.5s199.333 140.833 328 143.5v148h107v-148
c8.66699 1.33301 19 2 31 2c72 0 141.667 -19 209 -57c112.667 -64 182 -159.667 208 -287h-355c-3.33301 13.333 -11 34 -23 62c-18.667 32.667 -41 52 -67 58v-510c36.667 9.33301 63.334 28.333 80.001 57c19.333 32.667 26 64.334 20 95.001h345zM548.999 460.001
v484.999c-30 -6.66699 -55 -36 -75 -88c-18 -47.333 -27 -98.666 -27 -153.999c0 -138.667 34 -219.667 102 -243z" />
    <glyph glyph-name="sterling" unicode="&#xa3;" horiz-adv-x="1347" 
d="M1278 385c-6.66699 -265.333 -129.667 -404.665 -369 -417.998c-57.333 -3.33301 -136 15.667 -236 57s-166.333 60.666 -199 57.999c-29.333 -2 -52.333 -30.333 -69 -85h-336c4 124 59 217.333 165 280c53.333 32 109 48 167 48c28.667 0 61 -4 97 -12
c37.333 32.667 54.333 73.667 51 123c-2 33.333 -15 63.333 -39 90h-372v120h159c-106.667 72 -159.667 156 -159 252c0.666992 122 63 219.667 187 293c112 66 239.667 95.333 383 88c194.667 -10 338.334 -58.333 431.001 -145c70.667 -66 104 -141.667 100 -227h-330
c-11.333 54 -37.5 96.667 -78.5 128s-90.833 45.666 -149.5 42.999c-128 -6 -195 -50 -201 -132c-3.33301 -48 23.667 -87.333 81 -118l165 -77c21.333 -13.333 39.166 -29.5 53.499 -48.5l42.5 -56.5h270v-123h-252c-8 -50.667 -24 -98.667 -48 -144
c-22 -41.333 -57 -84.333 -105 -129l63.5 -27.5c21.667 -9 42.5 -13.5 62.5 -13.5c13.333 0 27.333 1.66699 42 5c53.333 12.667 86.333 69.667 99 171h324z" />
    <glyph glyph-name="yen" unicode="&#xa5;" horiz-adv-x="1487" 
d="M1463 1320l-308 -484h158v-258h-315l-62 -92v-42h377v-258h-378v-186l-388 -1l-2 187h-381v258h382v27l-60 107h-322v258h168l-292 484h420l284 -477l296 477h423z" />
    <glyph glyph-name="section" unicode="&#xa7;" horiz-adv-x="961" 
d="M926 403c-2 -104 -53.3369 -189.669 -154.004 -257.002l-57 -38c71.333 -54 108.333 -125.333 111 -214c2.66699 -84 -27.833 -152.833 -91.5 -206.5s-143.167 -81.834 -238.5 -84.501c-102.667 -2.66699 -187.667 32 -255 104c-64.667 69.333 -95 153 -91 251h114
c-1.33301 -12.667 -2 -25 -2 -37c0 -60.667 21 -110.334 63 -149.001c45.333 -41.333 104 -62 176 -62c90.667 0 150.667 33 180 99c11.333 26 17 53 17 81c0 77.333 -34.667 139 -104 185l-387 256c-95.333 62.667 -142.666 146.334 -141.999 251.001
c0.666992 106 51.334 189.667 152.001 251l46 28c-63.333 57.333 -94.333 129 -93 215c1.33301 80 34.666 146.667 99.999 200c62.667 50 137 75.333 223 76c104 0.666992 187.333 -32.166 250 -98.499s92.334 -149.166 89.001 -248.499h-106
c0.666992 9.33301 1 18.666 1 27.999c0 89.333 -37.333 152.333 -112 189c-33.333 16 -70.333 24 -111 24c-50 0 -94.333 -11.333 -133 -34c-42 -25.333 -68 -59.666 -78 -102.999c-3.33301 -14 -5 -27.667 -5 -41c0 -74 46.333 -139.667 139 -197l276 -171
c72.667 -45.333 125.334 -86.666 158.001 -123.999c44.667 -51.333 66.334 -109 65.001 -173zM817.996 380.998c-0.666992 68.667 -33.667 124.001 -99 166.001l-392 251l-40 -21c-76.667 -40 -116 -98 -118 -174c-2 -70.667 35.333 -131.334 112 -182.001l372 -247l46 29
c80 50 119.667 109.333 119 178z" />
    <glyph glyph-name="dieresis" unicode="&#xa8;" horiz-adv-x="786" 
d="M680 1089h-234v231h234v-231zM329 1089h-234v231h234v-231z" />
    <glyph glyph-name="copyright" unicode="&#xa9;" horiz-adv-x="1404" 
d="M701 0c-208 0 -373.333 69 -496 207c-110 124 -165 275.667 -165 455s55 331 165 455c122.667 138 288 207 496 207s373.333 -69 496 -207c110 -124 165 -275.667 165 -455s-55 -331 -165 -455c-122.667 -138 -288 -207 -496 -207zM701 71c186 0 333.667 61.667 443 185
c98.667 110.667 148 246 148 406s-49.333 295.333 -148 406c-109.333 123.333 -257 185 -443 185s-333.667 -61.667 -443 -185c-98 -110.667 -147 -246 -147 -406s49 -295.333 147 -406c109.333 -123.333 257 -185 443 -185zM1027 527
c-15.333 -86 -54.666 -155.5 -117.999 -208.5s-139 -76.833 -227 -71.5c-216.667 14 -325.667 150.333 -327 409c-0.666992 116 28.333 214 87 294c65.333 88.667 153.333 131.334 264 128.001c78.667 -2.66699 145.334 -22.334 200.001 -59.001
c60.667 -40.667 96.667 -95.667 108 -165l5 -31h-79l-6 26c-11.333 50 -40 89.667 -86 119c-42 27.333 -89.667 40.333 -143 39c-93.333 -2 -164 -39.333 -212 -112c-40 -61.333 -60 -140.333 -60 -237c0 -231.333 92 -347 276 -347c55.333 0 106.166 21 152.499 63
s75.166 93 86.499 153h79z" />
    <glyph glyph-name="ordfeminine" unicode="&#xaa;" horiz-adv-x="688" 
d="M652 762l-224.998 0.00390625l-18 52c-47.333 -34 -75.333 -53.333 -84 -58c-28.667 -14.667 -62.667 -22 -102 -22c-47.333 0.666992 -88 15.667 -122 45c-38 32.667 -58.333 77 -61 133c-2 51.333 14.333 92 49 122c31.333 27.333 71.666 42 120.999 44l135 5
c17.333 0.666992 32.5 7.16699 45.5 19.5s18.833 27.166 17.5 44.499c-2.66699 34 -24.667 52 -66 54c-44 2 -66 -20 -66 -66h-216c2 54.667 27.167 98.667 75.5 132s113.166 50 194.499 50c93.333 0 165.333 -20.333 216 -61s76 -97.334 76 -170.001v-224
c0 -12.667 2.5 -28.334 7.5 -47.001s12.5 -36.334 22.5 -53.001zM406.002 951.004v72.999c-12.667 -11.333 -29 -20.333 -49 -27c-63.333 -21.333 -94.333 -47.666 -93 -78.999c1.33301 -40 20.333 -59.667 57 -59c22 0.666992 41.667 10.167 59 28.5s26 39.5 26 63.5z
M640.002 553.003h-576v133h576v-133z" />
    <glyph glyph-name="guillemotleft" unicode="&#xab;" horiz-adv-x="969" 
d="M926 715l-275 -195l269 -191v-198l-381 296v190l387 286v-188zM440 715l-273 -195l268 -191v-198l-381 296v190l386 286v-188z" />
    <glyph glyph-name="logicalnot" unicode="&#xac;" horiz-adv-x="1426" 
d="M1386 0h-109v462h-1216v102h1325v-564z" />
    <glyph glyph-name="registered" unicode="&#xae;" horiz-adv-x="1408" 
d="M701 0c-208 0 -373.333 69 -496 207c-110 124 -165 275.667 -165 455s55 331 165 455c122.667 138 288 207 496 207s373.333 -69 496 -207c110 -124 165 -275.667 165 -455s-55 -331 -165 -455c-122.667 -138 -288 -207 -496 -207zM701 71c186 0 333.667 61.667 443 185
c98.667 110.667 148 246 148 406s-49.333 295.333 -148 406c-109.333 123.333 -257 185 -443 185s-333.667 -61.667 -443 -185c-98 -110.667 -147 -246 -147 -406s49 -295.333 147 -406c109.333 -123.333 257 -185 443 -185zM1018 255l-82.999 -0.000976562
c-3.33301 -0.666992 -5.33301 -0.333984 -6 0.999023c-11.333 22.667 -18.333 84.334 -21 185.001c-2 80.667 -24 132.334 -66 155.001c-22 12 -62 18 -120 18h-212v-359h-77v795h292c184 0 281 -69.333 291 -208c6.66699 -90.667 -37 -156.334 -131 -197.001
c25.333 -14.667 39.666 -23.334 42.999 -26.001c13.333 -10 24.333 -23 33 -39c16 -31.333 24 -67.666 24 -108.999c0 -8.66699 -0.333008 -21.667 -1 -39s-1 -30.666 -1 -39.999c0 -38.667 5.66699 -74 17 -106c1.33301 -4 7.33301 -14.333 18 -31zM940.001 832.999
c-3.33301 100 -70.667 150 -202 150h-229l-2 -301h226c141.333 0 210.333 50.333 207 151z" />
    <glyph glyph-name="degree" unicode="&#xb0;" horiz-adv-x="491" 
d="M455 1075c-0.666992 -56.667 -21.165 -104.832 -61.498 -144.499s-88.833 -59.5 -145.5 -59.5c-57.333 0 -106.5 21 -147.5 63s-60.833 92 -59.5 150c1.33301 55.333 21.666 102.666 60.999 141.999s86.666 59.333 141.999 60c58 1.33301 107.833 -19 149.5 -61
s62.167 -92 61.5 -150zM401.002 1081c-0.666992 41.333 -15.9971 76.333 -45.9971 105s-65.667 42.667 -107 42c-40.667 -0.666992 -75.834 -15 -105.501 -43s-44.834 -62.333 -45.501 -103c-1.33301 -41.333 13 -77.333 43 -108s66 -46 108 -46s78.167 15 108.5 45
s45.166 66 44.499 108z" />
    <glyph glyph-name="plusminus" unicode="&#xb1;" horiz-adv-x="873" 
d="M810 543h-325v-324h-85v324h-322l1 92h321v324h87v-325h323v-91zM803 -3h-738v70h738v-70z" />
    <glyph glyph-name="acute" unicode="&#xb4;" horiz-adv-x="617" 
d="M546 1320l-238 -274h-219l209 274h248z" />
    <glyph glyph-name="mu" unicode="&#xb5;" horiz-adv-x="1070" 
d="M1075 192l-12.001 -58.999c-10 -48 -39.333 -89 -88 -123c-44 -31.333 -87 -47 -129 -47c-46.667 0 -89 20.667 -127 62c-36.667 39.333 -56 82.666 -58 129.999l-49 -49c-91.333 -91.333 -173.333 -136.666 -246 -135.999c-32.667 0 -69 9.33301 -109 28
c-48 21.333 -85.333 49.666 -112 84.999v-68c0 -40.667 11 -90.667 33 -150c22.667 -61.333 34.667 -116.333 36 -165c0.666992 -32.667 -7.66602 -61.667 -24.999 -87c-19.333 -26.667 -43.333 -39.667 -72 -39c-27.333 0.666992 -49.666 12.667 -66.999 36
c-16.667 21.333 -25.334 47 -26.001 77c-1.33301 46 6.66699 92 24 138c20 53.333 31.333 93.333 34 120c2.66699 24.667 4 42.334 4 53.001v965h163v-663c0 -54.667 16 -102.334 48 -143.001c34 -43.333 76.333 -64.333 127 -63c52 1.33301 104 21.666 156 60.999
c56.667 43.333 85 91 85 143v665h159v-750c0 -39.333 9 -74.666 27 -105.999c20 -34.667 45 -52 75 -52c50.667 0 84 28.667 100 86l14 51h35z" />
    <glyph glyph-name="mu" unicode="&#x3bc;" horiz-adv-x="1070" 
d="M1075 192l-12.001 -58.999c-10 -48 -39.333 -89 -88 -123c-44 -31.333 -87 -47 -129 -47c-46.667 0 -89 20.667 -127 62c-36.667 39.333 -56 82.666 -58 129.999l-49 -49c-91.333 -91.333 -173.333 -136.666 -246 -135.999c-32.667 0 -69 9.33301 -109 28
c-48 21.333 -85.333 49.666 -112 84.999v-68c0 -40.667 11 -90.667 33 -150c22.667 -61.333 34.667 -116.333 36 -165c0.666992 -32.667 -7.66602 -61.667 -24.999 -87c-19.333 -26.667 -43.333 -39.667 -72 -39c-27.333 0.666992 -49.666 12.667 -66.999 36
c-16.667 21.333 -25.334 47 -26.001 77c-1.33301 46 6.66699 92 24 138c20 53.333 31.333 93.333 34 120c2.66699 24.667 4 42.334 4 53.001v965h163v-663c0 -54.667 16 -102.334 48 -143.001c34 -43.333 76.333 -64.333 127 -63c52 1.33301 104 21.666 156 60.999
c56.667 43.333 85 91 85 143v665h159v-750c0 -39.333 9 -74.666 27 -105.999c20 -34.667 45 -52 75 -52c50.667 0 84 28.667 100 86l14 51h35z" />
    <glyph glyph-name="paragraph" unicode="&#xb6;" horiz-adv-x="938" 
d="M878 -377l-124 -0.00195312v1573h-230v-1575l-125 -2v973c-98.667 0.666992 -183.334 36.334 -254.001 107.001s-106.667 155.334 -108 254.001c-1.33301 102.667 33.834 190.167 105.501 262.5s160.5 108.5 266.5 108.5h469v-1701z" />
    <glyph glyph-name="periodcentered" unicode="&#xb7;" horiz-adv-x="484" 
d="M422 497h-348v340h348v-340z" />
    <glyph glyph-name="periodcentered" unicode="&#x2219;" horiz-adv-x="484" 
d="M422 497h-348v340h348v-340z" />
    <glyph glyph-name="ordmasculine" unicode="&#xba;" horiz-adv-x="764" 
d="M707 1031c0 -86.667 -28.667 -155.999 -86 -207.999c-59.333 -54 -140 -80.333 -242 -79c-97.333 1.33301 -175.666 29.166 -234.999 83.499s-89 124.5 -89 210.5c0 85.333 30.167 156 90.5 212s138.166 82.333 233.499 79c101.333 -2.66699 181.333 -31 240 -85
s88 -125 88 -213zM480 1038c0 42 -7.66797 77.668 -23.001 107.001c-17.333 35.333 -42.666 53 -75.999 53c-64 -0.666992 -96.333 -53.334 -97 -158.001c-1.33301 -109.333 31 -164 97 -164c33.333 0 59 17.667 77 53c14.667 30 22 66.333 22 109zM667.999 553.002h-576
v133h576v-133z" />
    <glyph glyph-name="guillemotright" unicode="&#xbb;" horiz-adv-x="975" 
d="M934 427l-380 -296v198l268 191l-274 195v188l386 -286v-190zM450 427l-381 -296v198l269 191l-274 195v188l386 -286v-190z" />
    <glyph glyph-name="questiondown" unicode="&#xbf;" horiz-adv-x="1212" 
d="M728 722h-345v237h345v-237zM1151 98c-10 -287.333 -196 -430.668 -558 -430.001c-142 0 -259.333 28 -352 84c-104 62.667 -157.667 152 -161 268c-2 71.333 16.333 136.333 55 195c22.667 35.333 62.667 78.666 120 129.999c54 48.667 87.667 85.334 101 110.001
c11.333 21.333 20.333 68.333 27 141h342c3.33301 -86 -3.66699 -152 -21 -198c-14 -36.667 -60.333 -96 -139 -178c-68 -70.667 -102 -130.667 -102 -180c0 -6.66699 0.333008 -13.334 1 -20.001c12 -87.333 62 -133.666 150 -138.999
c54 -3.33301 97.333 19.334 130 68.001c29.333 44 42 93.667 38 149h369z" />
    <glyph glyph-name="Agrave" unicode="&#xc0;" horiz-adv-x="1548" 
d="M1524 -2h-411l-96 260h-501l-90 -260h-405l504 1322h470zM927 516l-168 453l-153 -453h321zM996 1520h-219l-231 274h245z" />
    <glyph glyph-name="Aacute" unicode="&#xc1;" horiz-adv-x="1554" 
d="M1524 -2h-411l-96 260h-501l-90 -260h-405l504 1322h470zM927 516l-168 453l-153 -453h321zM1002 1794l-238 -274h-219l209 274h248z" />
    <glyph glyph-name="Acircumflex" unicode="&#xc2;" horiz-adv-x="1548" 
d="M1524 -2h-411l-96 260h-501l-90 -260h-405l504 1322h470zM927 516l-168 453l-153 -453h321zM1114 1524h-219l-126 137l-126 -141h-216l205 278h270z" />
    <glyph glyph-name="Atilde" unicode="&#xc3;" horiz-adv-x="1548" 
d="M1524 -2h-411l-96 260h-501l-90 -260h-405l504 1322h470zM927 516l-168 453l-153 -453h321zM1127 1650c-42 -86.667 -114.667 -130 -218 -130c-30 0 -68.167 7.83301 -114.5 23.5s-89.5 23.5 -129.5 23.5c-36.667 0 -64.334 -15.333 -83.001 -46l-150 93
c62.667 88 134 132 214 132c26 0 61.333 -8.33301 106 -25s87.334 -25 128.001 -25c42 0 73.667 16.667 95 50z" />
    <glyph glyph-name="Adieresis" unicode="&#xc4;" horiz-adv-x="1528" 
d="M1524 -2h-411l-96 260h-501l-90 -260h-405l504 1322h470zM927 516l-168 453l-153 -453h321zM1057 1519h-234v231h234v-231zM706 1519h-234v231h234v-231z" />
    <glyph glyph-name="Aring" unicode="&#xc5;" horiz-adv-x="1534" 
d="M964 1732c0 -58.667 -20.667 -108.667 -62 -150s-91.333 -62 -150 -62s-108.667 20.667 -150 62s-62 91.333 -62 150s20.667 108.667 62 150s91.333 62 150 62s108.667 -20.667 150 -62s62 -91.333 62 -150zM1524 -2h-411l-96 260h-501l-90 -260h-405l504 1322h470z
M927 516l-168 453l-153 -453h321zM858 1732c0 29.333 -10.333 54.333 -31 75s-45.667 31 -75 31s-54.333 -10.333 -75 -31s-31 -45.667 -31 -75c0 -28.667 10.5 -53.5 31.5 -74.5s45.833 -31.5 74.5 -31.5c29.333 0 54.333 10.333 75 31s31 45.667 31 75z" />
    <glyph glyph-name="AE" unicode="&#xc6;" horiz-adv-x="2224" 
d="M2163 -1l-1053 2v257h-501l-182 -258h-405l974 1320l1159 -1v-274h-655v-210h549v-279h-549v-273h663v-284zM1109 516l-3 453l-315 -453h318z" />
    <glyph glyph-name="Ccedilla" unicode="&#xc7;" horiz-adv-x="1468" 
d="M1409 485c-4 -171.333 -75.667 -307.667 -215 -409c-124 -89.333 -272.333 -134 -445 -134c-204.667 0 -375 64.667 -511 194c-141.333 135.333 -210 310.666 -206 525.999c3.33301 203.333 64 368 182 494c124.667 133.333 294 201.666 508 204.999
c182 2.66699 329.667 -29.333 443 -96c134.667 -79.333 210 -203.333 226 -372h-378c-38.667 147.333 -130.667 220.333 -276 219c-103.333 -1.33301 -182.333 -47.666 -237 -138.999c-44.667 -75.333 -69.667 -173 -75 -293c-5.33301 -124 17.667 -231.667 69 -323
c58.667 -105.333 140.667 -156.666 246 -153.999c164.667 4 259.667 98 285 282h384zM884 -103.001l-108 -228h-209l174 228h143z" />
    <glyph glyph-name="Egrave" unicode="&#xc8;" horiz-adv-x="1172" 
d="M1118 -2h-1052v1322h1044v-286h-655v-199h549v-279h-549v-272h663v-286zM815 1518h-219l-231 274h245z" />
    <glyph glyph-name="Eacute" unicode="&#xc9;" horiz-adv-x="1182" 
d="M1118 -2h-1052v1322h1044v-286h-655v-199h549v-279h-549v-272h663v-286zM846 1793l-238 -274h-219l209 274h248z" />
    <glyph glyph-name="Ecircumflex" unicode="&#xca;" horiz-adv-x="1172" 
d="M1118 -2h-1052v1322h1044v-286h-655v-199h549v-279h-549v-272h663v-286zM962 1524h-219l-126 137l-126 -141h-216l205 278h270z" />
    <glyph glyph-name="Edieresis" unicode="&#xcb;" horiz-adv-x="1176" 
d="M1118 -2h-1052v1322h1044v-286h-655v-199h549v-279h-549v-272h663v-286zM862 1519h-234v231h234v-231zM511 1519h-234v231h234v-231z" />
    <glyph glyph-name="Igrave" unicode="&#xcc;" horiz-adv-x="592" 
d="M493 -2h-390v1322h390v-1322zM531 1518h-219l-231 274h245z" />
    <glyph glyph-name="Iacute" unicode="&#xcd;" horiz-adv-x="608" 
d="M493 -2h-390v1322h390v-1322zM560 1794l-238 -274h-219l209 274h248z" />
    <glyph glyph-name="Icircumflex" unicode="&#xce;" horiz-adv-x="596" 
d="M493 -2h-390v1322h390v-1322zM652 1524h-219l-126 137l-126 -141h-216l205 278h270z" />
    <glyph glyph-name="Idieresis" unicode="&#xcf;" horiz-adv-x="592" 
d="M493 -2h-390v1322h390v-1322zM596 1519h-234v231h234v-231zM245 1519h-234v231h234v-231z" />
    <glyph glyph-name="Ntilde" unicode="&#xd1;" horiz-adv-x="1466" 
d="M1387 -2h-508l-461 872v-872h-356v1322h510l460 -839v839h355v-1322zM1075 1649c-42 -86.667 -114.667 -130 -218 -130c-30 0 -68.167 7.83301 -114.5 23.5s-89.5 23.5 -129.5 23.5c-36.667 0 -64.334 -15.333 -83.001 -46l-150 93c62.667 88 134 132 214 132
c26 0 61.333 -8.33301 106 -25s87.334 -25 128.001 -25c42 0 73.667 16.667 95 50z" />
    <glyph glyph-name="Ograve" unicode="&#xd2;" horiz-adv-x="1600" 
d="M1544 657c-1.33301 -208 -64.001 -376 -188.001 -504c-133.333 -137.333 -317.666 -205.333 -552.999 -204c-232.667 1.33301 -417 70 -553 206c-129.333 130.667 -194 299 -194 505c0 207.333 66.667 377.333 200 510c138.667 138 323 206 553 204
c220.667 -2 399.667 -72.333 537 -211c133.333 -134 199.333 -302.667 198 -506zM1142 675c2 132.667 -28.498 238.499 -91.498 317.499s-148.5 118.167 -256.5 117.5c-104.667 -0.666992 -188.334 -42.667 -251.001 -126c-60 -80 -90.333 -183 -91 -309
c-0.666992 -145.333 29.666 -258.666 90.999 -339.999c62 -83.333 148.667 -124 260 -122c113.333 2 197 38.667 251 110c56.667 74 86 191.333 88 352zM1011 1518h-219l-231 274h245z" />
    <glyph glyph-name="Oacute" unicode="&#xd3;" horiz-adv-x="1596" 
d="M1544 657c-1.33301 -208 -64.001 -376 -188.001 -504c-133.333 -137.333 -317.666 -205.333 -552.999 -204c-232.667 1.33301 -417 70 -553 206c-129.333 130.667 -194 299 -194 505c0 207.333 66.667 377.333 200 510c138.667 138 323 206 553 204
c220.667 -2 399.667 -72.333 537 -211c133.333 -134 199.333 -302.667 198 -506zM1142 675c2 132.667 -28.498 238.499 -91.498 317.499s-148.5 118.167 -256.5 117.5c-104.667 -0.666992 -188.334 -42.667 -251.001 -126c-60 -80 -90.333 -183 -91 -309
c-0.666992 -145.333 29.666 -258.666 90.999 -339.999c62 -83.333 148.667 -124 260 -122c113.333 2 197 38.667 251 110c56.667 74 86 191.333 88 352zM1032 1794l-238 -274h-219l209 274h248z" />
    <glyph glyph-name="Ocircumflex" unicode="&#xd4;" horiz-adv-x="1604" 
d="M1544 657c-1.33301 -208 -64.001 -376 -188.001 -504c-133.333 -137.333 -317.666 -205.333 -552.999 -204c-232.667 1.33301 -417 70 -553 206c-129.333 130.667 -194 299 -194 505c0 207.333 66.667 377.333 200 510c138.667 138 323 206 553 204
c220.667 -2 399.667 -72.333 537 -211c133.333 -134 199.333 -302.667 198 -506zM1142 675c2 132.667 -28.498 238.499 -91.498 317.499s-148.5 118.167 -256.5 117.5c-104.667 -0.666992 -188.334 -42.667 -251.001 -126c-60 -80 -90.333 -183 -91 -309
c-0.666992 -145.333 29.666 -258.666 90.999 -339.999c62 -83.333 148.667 -124 260 -122c113.333 2 197 38.667 251 110c56.667 74 86 191.333 88 352zM1166 1524h-219l-126 137l-126 -141h-216l205 278h270z" />
    <glyph glyph-name="Otilde" unicode="&#xd5;" horiz-adv-x="1592" 
d="M1544 657c-1.33301 -208 -64.001 -376 -188.001 -504c-133.333 -137.333 -317.666 -205.333 -552.999 -204c-232.667 1.33301 -417 70 -553 206c-129.333 130.667 -194 299 -194 505c0 207.333 66.667 377.333 200 510c138.667 138 323 206 553 204
c220.667 -2 399.667 -72.333 537 -211c133.333 -134 199.333 -302.667 198 -506zM1142 675c2 132.667 -28.498 238.499 -91.498 317.499s-148.5 118.167 -256.5 117.5c-104.667 -0.666992 -188.334 -42.667 -251.001 -126c-60 -80 -90.333 -183 -91 -309
c-0.666992 -145.333 29.666 -258.666 90.999 -339.999c62 -83.333 148.667 -124 260 -122c113.333 2 197 38.667 251 110c56.667 74 86 191.333 88 352zM1163 1649c-42 -86.667 -114.667 -130 -218 -130c-30 0 -68.167 7.83301 -114.5 23.5s-89.5 23.5 -129.5 23.5
c-36.667 0 -64.334 -15.333 -83.001 -46l-150 93c62.667 88 134 132 214 132c26 0 61.333 -8.33301 106 -25s87.334 -25 128.001 -25c42 0 73.667 16.667 95 50z" />
    <glyph glyph-name="Odieresis" unicode="&#xd6;" horiz-adv-x="1608" 
d="M1544 657c-1.33301 -208 -64.001 -376 -188.001 -504c-133.333 -137.333 -317.666 -205.333 -552.999 -204c-232.667 1.33301 -417 70 -553 206c-129.333 130.667 -194 299 -194 505c0 207.333 66.667 377.333 200 510c138.667 138 323 206 553 204
c220.667 -2 399.667 -72.333 537 -211c133.333 -134 199.333 -302.667 198 -506zM1142 675c2 132.667 -28.498 238.499 -91.498 317.499s-148.5 118.167 -256.5 117.5c-104.667 -0.666992 -188.334 -42.667 -251.001 -126c-60 -80 -90.333 -183 -91 -309
c-0.666992 -145.333 29.666 -258.666 90.999 -339.999c62 -83.333 148.667 -124 260 -122c113.333 2 197 38.667 251 110c56.667 74 86 191.333 88 352zM1086 1519h-234v231h234v-231zM735.001 1519h-234v231h234v-231z" />
    <glyph glyph-name="Oslash" unicode="&#xd8;" horiz-adv-x="1617" 
d="M1544 657c-0.666992 -208 -63.334 -376 -188.001 -504c-133.333 -137.333 -317.666 -205.333 -552.999 -204c-122 0.666992 -231.333 20.667 -328 60l-89 -132h-178l136 201c-192 130 -288 324 -288 582c0 207.333 66.667 377.333 200 510c138.667 138 323 206 553 204
c132 -1.33301 250.667 -28.333 356 -81l83 123h177l-136 -202c171.333 -137.333 256.333 -323 255 -557zM1142 675c1.33301 96 -15 179.001 -49 249.001l-455 -673c48 -26.667 103 -39.334 165 -38.001c113.333 2 197 38.667 251 110c56.667 74 86 191.333 88 352zM997 1045
c-55.333 44 -122.999 65.667 -202.999 65c-104.667 -0.666992 -188.334 -42.667 -251.001 -126c-60 -79.333 -90.333 -182.333 -91 -309c-1.33301 -134 24.667 -241.333 78 -322z" />
    <glyph glyph-name="Ugrave" unicode="&#xd9;" horiz-adv-x="1412" 
d="M1354 467c0 -348.667 -213 -521.668 -639 -519.001c-217.333 1.33301 -382.333 48.333 -495 141c-108 90 -162 218 -162 384v847h393l-1 -842c0 -76 22 -138.667 66 -188c48 -52.667 113.333 -78.667 196 -78c80.667 0.666992 144 24.334 190 71.001
c43.333 44 65 101.333 65 172v865h387v-853zM933 1518h-219l-231 274h245z" />
    <glyph glyph-name="Uacute" unicode="&#xda;" horiz-adv-x="1420" 
d="M1354 467c0 -348.667 -213 -521.668 -639 -519.001c-217.333 1.33301 -382.333 48.333 -495 141c-108 90 -162 218 -162 384v847h393l-1 -842c0 -76 22 -138.667 66 -188c48 -52.667 113.333 -78.667 196 -78c80.667 0.666992 144 24.334 190 71.001
c43.333 44 65 101.333 65 172v865h387v-853zM946 1794l-238 -274h-219l209 274h248z" />
    <glyph glyph-name="Ucircumflex" unicode="&#xdb;" horiz-adv-x="1412" 
d="M1354 467c0 -348.667 -213 -521.668 -639 -519.001c-217.333 1.33301 -382.333 48.333 -495 141c-108 90 -162 218 -162 384v847h393l-1 -842c0 -76 22 -138.667 66 -188c48 -52.667 113.333 -78.667 196 -78c80.667 0.666992 144 24.334 190 71.001
c43.333 44 65 101.333 65 172v865h387v-853zM1062 1524h-219l-126 137l-126 -141h-216l205 278h270z" />
    <glyph glyph-name="Udieresis" unicode="&#xdc;" horiz-adv-x="1412" 
d="M1354 467c0 -348.667 -213 -521.668 -639 -519.001c-217.333 1.33301 -382.333 48.333 -495 141c-108 90 -162 218 -162 384v847h393l-1 -842c0 -76 22 -138.667 66 -188c48 -52.667 113.333 -78.667 196 -78c80.667 0.666992 144 24.334 190 71.001
c43.333 44 65 101.333 65 172v865h387v-853zM1016 1518h-234v231h234v-231zM665 1518h-234v231h234v-231z" />
    <glyph glyph-name="germandbls" unicode="&#xdf;" horiz-adv-x="1192" 
d="M1133 399c8 -117.333 -33.1689 -220.333 -123.502 -309s-196.166 -131.667 -317.499 -129c-59.333 1.33301 -117.666 15.666 -174.999 42.999v220c26.667 -8.66699 51.334 -13 74.001 -13c52.667 0 93.334 22 122.001 66c23.333 36.667 36.333 83.334 39 140.001
c3.33301 62 -11.334 115 -44.001 159c-36 48 -86.333 72 -151 72c-14 0 -28.333 -1.33301 -43 -4v235c59.333 -4 103.666 7.33301 132.999 34c26.667 24 38.334 58 35.001 102c-2.66699 34.667 -16.5 64 -41.5 88s-54.5 35.667 -88.5 35
c-34.667 -0.666992 -63.667 -14.5 -87 -41.5s-35 -58.833 -35 -95.5v-1001h-357v956c0 128 41 227.667 123 299s192.667 107 332 107c120.667 0 222.667 -26 306 -78c96 -59.333 145.667 -143 149 -251c2 -56 -16.833 -108.167 -56.5 -156.5
s-90.834 -83.833 -153.501 -106.5c225.333 -31.333 345.333 -155 360 -371z" />
    <glyph glyph-name="agrave" unicode="&#xe0;" horiz-adv-x="1100" 
d="M1070 -2l-374.997 -0.00195312l-30 87l-102 -77c-62.667 -38 -132 -56.667 -208 -56c-78.667 0.666992 -146.334 25.334 -203.001 74.001c-64 54.667 -98 128.667 -102 222c-3.33301 85.333 23.667 153.333 81 204c52.667 46 120 70.333 202 73l225 8
c29.333 1.33301 54.666 12.333 75.999 33s31 45.334 29 74.001c-4 56.667 -40.667 86.667 -110 90c-35.333 2 -63 -8.33301 -83 -31c-18 -20 -27 -46.333 -27 -79h-360c4 90.667 46.167 163.834 126.5 219.501s188.166 83.5 323.499 83.5c156 0 276.667 -34.333 362 -103
c83.333 -66.667 125 -160.667 125 -282v-373c0 -20.667 4.33301 -47.334 13 -80.001c8 -30 20.333 -59 37 -87zM660.003 312.998v122c-20.667 -18.667 -48 -33.667 -82 -45c-54 -18.667 -90 -34 -108 -46c-32.667 -21.333 -48.334 -50 -47.001 -86
c2.66699 -66.667 34.334 -99.334 95.001 -98.001c36.667 0.666992 69.5 16.334 98.5 47.001s43.5 66 43.5 106zM776.003 1036h-219l-231 274h245z" />
    <glyph glyph-name="aacute" unicode="&#xe1;" horiz-adv-x="1080" 
d="M1060 -2l-374.997 -0.00195312l-30 87l-102 -77c-62.667 -38 -132 -56.667 -208 -56c-78.667 0.666992 -146.334 25.334 -203.001 74.001c-64 54.667 -98 128.667 -102 222c-3.33301 85.333 23.667 153.333 81 204c52.667 46 120 70.333 202 73l225 8
c29.333 1.33301 54.666 12.333 75.999 33s31 45.334 29 74.001c-4 56.667 -40.667 86.667 -110 90c-35.333 2 -63 -8.33301 -83 -31c-18 -20 -27 -46.333 -27 -79h-360c4 90.667 46.167 163.834 126.5 219.501s188.166 83.5 323.499 83.5c156 0 276.667 -34.333 362 -103
c83.333 -66.667 125 -160.667 125 -282v-373c0 -20.667 4.33301 -47.334 13 -80.001c8 -30 20.333 -59 37 -87zM650.003 312.998v122c-20.667 -18.667 -48 -33.667 -82 -45c-54 -18.667 -90 -34 -108 -46c-32.667 -21.333 -48.334 -50 -47.001 -86
c2.66699 -66.667 34.334 -99.334 95.001 -98.001c36.667 0.666992 69.5 16.334 98.5 47.001s43.5 66 43.5 106zM790.003 1308l-238 -274h-219l209 274h248z" />
    <glyph glyph-name="acircumflex" unicode="&#xe2;" horiz-adv-x="1100" 
d="M912 1038h-219l-126 137l-126 -141h-216l205 278h270zM1070 -2l-374.997 -0.00195312l-30 87l-102 -77c-62.667 -38 -132 -56.667 -208 -56c-78.667 0.666992 -146.334 25.334 -203.001 74.001c-64 54.667 -98 128.667 -102 222c-3.33301 85.333 23.667 153.333 81 204
c52.667 46 120 70.333 202 73l225 8c29.333 1.33301 54.666 12.333 75.999 33s31 45.334 29 74.001c-4 56.667 -40.667 86.667 -110 90c-35.333 2 -63 -8.33301 -83 -31c-18 -20 -27 -46.333 -27 -79h-360c4 90.667 46.167 163.834 126.5 219.501s188.166 83.5 323.499 83.5
c156 0 276.667 -34.333 362 -103c83.333 -66.667 125 -160.667 125 -282v-373c0 -20.667 4.33301 -47.334 13 -80.001c8 -30 20.333 -59 37 -87zM660.003 312.998v122c-20.667 -18.667 -48 -33.667 -82 -45c-54 -18.667 -90 -34 -108 -46
c-32.667 -21.333 -48.334 -50 -47.001 -86c2.66699 -66.667 34.334 -99.334 95.001 -98.001c36.667 0.666992 69.5 16.334 98.5 47.001s43.5 66 43.5 106z" />
    <glyph glyph-name="atilde" unicode="&#xe3;" horiz-adv-x="1092" 
d="M1060 -2l-374.997 -0.00195312l-30 87l-102 -77c-62.667 -38 -132 -56.667 -208 -56c-78.667 0.666992 -146.334 25.334 -203.001 74.001c-64 54.667 -98 128.667 -102 222c-3.33301 85.333 23.667 153.333 81 204c52.667 46 120 70.333 202 73l225 8
c29.333 1.33301 54.666 12.333 75.999 33s31 45.334 29 74.001c-4 56.667 -40.667 86.667 -110 90c-35.333 2 -63 -8.33301 -83 -31c-18 -20 -27 -46.333 -27 -79h-360c4 90.667 46.167 163.834 126.5 219.501s188.166 83.5 323.499 83.5c156 0 276.667 -34.333 362 -103
c83.333 -66.667 125 -160.667 125 -282v-373c0 -20.667 4.33301 -47.334 13 -80.001c8 -30 20.333 -59 37 -87zM650.003 312.998v122c-20.667 -18.667 -48 -33.667 -82 -45c-54 -18.667 -90 -34 -108 -46c-32.667 -21.333 -48.334 -50 -47.001 -86
c2.66699 -66.667 34.334 -99.334 95.001 -98.001c36.667 0.666992 69.5 16.334 98.5 47.001s43.5 66 43.5 106zM910.003 1165c-42 -86.667 -114.667 -130 -218 -130c-30 0 -68.167 7.83301 -114.5 23.5s-89.5 23.5 -129.5 23.5c-36.667 0 -64.334 -15.333 -83.001 -46
l-150 93c62.667 88 134 132 214 132c26 0 61.333 -8.33301 106 -25s87.334 -25 128.001 -25c42 0 73.667 16.667 95 50z" />
    <glyph glyph-name="adieresis" unicode="&#xe4;" horiz-adv-x="1100" 
d="M1070 -2l-374.997 -0.00195312l-30 87l-102 -77c-62.667 -38 -132 -56.667 -208 -56c-78.667 0.666992 -146.334 25.334 -203.001 74.001c-64 54.667 -98 128.667 -102 222c-3.33301 85.333 23.667 153.333 81 204c52.667 46 120 70.333 202 73l225 8
c29.333 1.33301 54.666 12.333 75.999 33s31 45.334 29 74.001c-4 56.667 -40.667 86.667 -110 90c-35.333 2 -63 -8.33301 -83 -31c-18 -20 -27 -46.333 -27 -79h-360c4 90.667 46.167 163.834 126.5 219.501s188.166 83.5 323.499 83.5c156 0 276.667 -34.333 362 -103
c83.333 -66.667 125 -160.667 125 -282v-373c0 -20.667 4.33301 -47.334 13 -80.001c8 -30 20.333 -59 37 -87zM660.003 312.998v122c-20.667 -18.667 -48 -33.667 -82 -45c-54 -18.667 -90 -34 -108 -46c-32.667 -21.333 -48.334 -50 -47.001 -86
c2.66699 -66.667 34.334 -99.334 95.001 -98.001c36.667 0.666992 69.5 16.334 98.5 47.001s43.5 66 43.5 106zM860.003 1036h-234v231h234v-231zM509.003 1036h-234v231h234v-231z" />
    <glyph glyph-name="aring" unicode="&#xe5;" horiz-adv-x="1100" 
d="M764 1246c0 -58.667 -20.667 -108.667 -62 -150s-91.333 -62 -150 -62s-108.667 20.667 -150 62s-62 91.333 -62 150s20.667 108.667 62 150s91.333 62 150 62s108.667 -20.667 150 -62s62 -91.333 62 -150zM1070 -2l-374.997 -0.00195312l-30 87l-102 -77
c-62.667 -38 -132 -56.667 -208 -56c-78.667 0.666992 -146.334 25.334 -203.001 74.001c-64 54.667 -98 128.667 -102 222c-3.33301 85.333 23.667 153.333 81 204c52.667 46 120 70.333 202 73l225 8c29.333 1.33301 54.666 12.333 75.999 33s31 45.334 29 74.001
c-4 56.667 -40.667 86.667 -110 90c-35.333 2 -63 -8.33301 -83 -31c-18 -20 -27 -46.333 -27 -79h-360c4 90.667 46.167 163.834 126.5 219.501s188.166 83.5 323.499 83.5c156 0 276.667 -34.333 362 -103c83.333 -66.667 125 -160.667 125 -282v-373
c0 -20.667 4.33301 -47.334 13 -80.001c8 -30 20.333 -59 37 -87zM660.003 312.998v122c-20.667 -18.667 -48 -33.667 -82 -45c-54 -18.667 -90 -34 -108 -46c-32.667 -21.333 -48.334 -50 -47.001 -86c2.66699 -66.667 34.334 -99.334 95.001 -98.001
c36.667 0.666992 69.5 16.334 98.5 47.001s43.5 66 43.5 106zM658.003 1246c0 29.333 -10.333 54.333 -31 75s-45.667 31 -75 31s-54.333 -10.333 -75 -31s-31 -45.667 -31 -75c0 -28.667 10.5 -53.5 31.5 -74.5s45.833 -31.5 74.5 -31.5c29.333 0 54.333 10.333 75 31
s31 45.667 31 75z" />
    <glyph glyph-name="ae" unicode="&#xe6;" horiz-adv-x="1760" 
d="M1721 367h-681c4.66699 -57.333 21.334 -103.666 50.001 -138.999c30.667 -37.333 70 -56 118 -56c70.667 0 113.667 35 129 105h366c-15.333 -92 -72.333 -169.667 -171 -233c-95.333 -61.333 -201.333 -92 -318 -92c-112.667 0 -212 24.667 -298 74
c-47.333 27.333 -99.666 77.666 -156.999 150.999c-19.333 -48.667 -62.666 -99.334 -129.999 -152.001c-62 -48.667 -151.333 -73 -268 -73c-78.667 0 -146.334 24.667 -203.001 74c-64 54.667 -98 128.667 -102 222c-3.33301 85.333 23.667 153.333 81 204
c52.667 46 120 70.333 202 73l225 8c29.333 1.33301 54.666 12.333 75.999 33s31 45.334 29 74.001c-4.66699 58 -41.334 88 -110.001 90c-73.333 2 -110 -34.667 -110 -110h-360c4 90.667 46.333 163.834 127 219.501s188.334 83.5 323.001 83.5c146 0 261 -30 345 -90
c89.333 61.333 196.333 92 321 92c165.333 0 294.666 -51.333 387.999 -154c86 -94.667 129 -216.667 129 -366c0 -12.667 -0.333008 -25.334 -1 -38.001zM1349 565c0 35.333 -9.33301 67 -28 95c-27.333 40.667 -70 61 -128 61c-40.667 0 -75.667 -16.333 -105 -49
c-28 -30 -44 -65.667 -48 -107h309zM666 313v122c-20.667 -18.667 -48 -33.667 -82 -45c-53.333 -18 -89 -33.333 -107 -46c-32 -21.333 -48 -50 -48 -86c0 -65.333 31.667 -98 95 -98c36.667 0 69.5 15.5 98.5 46.5s43.5 66.5 43.5 106.5z" />
    <glyph glyph-name="ccedilla" unicode="&#xe7;" horiz-adv-x="1142" 
d="M1031 301c0 -114.667 -49.332 -207.333 -147.999 -278c-88.667 -64 -196.334 -97.667 -323.001 -101c-148 -4 -275 41.833 -381 137.5s-158 213.167 -156 352.5c2 146 53.667 264 155 354c98 87.333 219.333 129.333 364 126c124 -2.66699 231 -34 321 -94
c98.667 -65.333 153.667 -152 165 -260h-366c-10.667 84.667 -54.667 128.667 -132 132c-88.667 4 -137.667 -75 -147 -237c-4.66699 -77.333 5.33301 -142.333 30 -195c28.667 -60.667 72.667 -91.667 132 -93c40 -0.666992 72.667 14 98 44c22 26 33 56 33 90
c0 8 -0.666992 15.333 -2 22h357zM653.001 -102.999l-108 -228h-209l174 228h143z" />
    <glyph glyph-name="egrave" unicode="&#xe8;" horiz-adv-x="1128" 
d="M1080 367l-681 0.00195312c4.66699 -58 21.334 -104.667 50.001 -140c30.667 -37.333 70 -55.666 118 -54.999c71.333 1.33301 114.333 36.333 129 105h366c-15.333 -92.667 -72.333 -170.667 -171 -234c-95.333 -60.667 -201.333 -91 -318 -91
c-145.333 0 -267 41.667 -365 125c-106 89.333 -159.333 208 -160 356c-0.666992 156 50.666 278.667 153.999 368c94 81.333 214.667 122.666 362 123.999c164.667 1.33301 294 -49.334 388 -152.001c86 -95.333 129 -218 129 -368c0 -12.667 -0.333008 -25.334 -1 -38.001
zM708 565.002c-1.33301 46 -15.832 83.332 -43.499 111.999s-65.167 43.334 -112.5 44.001c-40.667 0.666992 -75.334 -14.833 -104.001 -46.5s-45 -68.167 -49 -109.5h309zM806.001 1036h-219l-231 274h245z" />
    <glyph glyph-name="eacute" unicode="&#xe9;" horiz-adv-x="1128" 
d="M1080 367l-681 0.00195312c4.66699 -58 21.334 -104.667 50.001 -140c30.667 -37.333 70 -55.666 118 -54.999c71.333 1.33301 114.333 36.333 129 105h366c-15.333 -92.667 -72.333 -170.667 -171 -234c-95.333 -60.667 -201.333 -91 -318 -91
c-145.333 0 -267 41.667 -365 125c-106 89.333 -159.333 208 -160 356c-0.666992 156 50.666 278.667 153.999 368c94 81.333 214.667 122.666 362 123.999c164.667 1.33301 294 -49.334 388 -152.001c86 -95.333 129 -218 129 -368c0 -12.667 -0.333008 -25.334 -1 -38.001
zM708 565.002c-1.33301 46 -15.832 83.332 -43.499 111.999s-65.167 43.334 -112.5 44.001c-40.667 0.666992 -75.334 -14.833 -104.001 -46.5s-45 -68.167 -49 -109.5h309zM798.001 1308l-238 -274h-219l209 274h248z" />
    <glyph glyph-name="ecircumflex" unicode="&#xea;" horiz-adv-x="1140" 
d="M1080 367l-681 0.00195312c4.66699 -58 21.334 -104.667 50.001 -140c30.667 -37.333 70 -55.666 118 -54.999c71.333 1.33301 114.333 36.333 129 105h366c-15.333 -92.667 -72.333 -170.667 -171 -234c-95.333 -60.667 -201.333 -91 -318 -91
c-145.333 0 -267 41.667 -365 125c-106 89.333 -159.333 208 -160 356c-0.666992 156 50.666 278.667 153.999 368c94 81.333 214.667 122.666 362 123.999c164.667 1.33301 294 -49.334 388 -152.001c86 -95.333 129 -218 129 -368c0 -12.667 -0.333008 -25.334 -1 -38.001
zM708 565.002c-1.33301 46 -15.832 83.332 -43.499 111.999s-65.167 43.334 -112.5 44.001c-40.667 0.666992 -75.334 -14.833 -104.001 -46.5s-45 -68.167 -49 -109.5h309zM923.001 1038h-219l-126 137l-126 -141h-216l205 278h270z" />
    <glyph glyph-name="edieresis" unicode="&#xeb;" horiz-adv-x="1136" 
d="M1080 367l-681 0.00195312c4.66699 -58 21.334 -104.667 50.001 -140c30.667 -37.333 70 -55.666 118 -54.999c71.333 1.33301 114.333 36.333 129 105h366c-15.333 -92.667 -72.333 -170.667 -171 -234c-95.333 -60.667 -201.333 -91 -318 -91
c-145.333 0 -267 41.667 -365 125c-106 89.333 -159.333 208 -160 356c-0.666992 156 50.666 278.667 153.999 368c94 81.333 214.667 122.666 362 123.999c164.667 1.33301 294 -49.334 388 -152.001c86 -95.333 129 -218 129 -368c0 -12.667 -0.333008 -25.334 -1 -38.001
zM708 565.002c-1.33301 46 -15.832 83.332 -43.499 111.999s-65.167 43.334 -112.5 44.001c-40.667 0.666992 -75.334 -14.833 -104.001 -46.5s-45 -68.167 -49 -109.5h309zM867.001 1036h-234v231h234v-231zM516.001 1036h-234v231h234v-231z" />
    <glyph glyph-name="igrave" unicode="&#xec;" horiz-adv-x="572" 
d="M529 1036h-219l-231 274h245zM477 -1h-364v877h364v-877z" />
    <glyph glyph-name="iacute" unicode="&#xed;" horiz-adv-x="580" 
d="M537 1304l-238 -274h-219l209 274h248zM473 -1h-364v877h364v-877z" />
    <glyph glyph-name="icircumflex" unicode="&#xee;" horiz-adv-x="584" 
d="M643 1038h-219l-126 137l-126 -141h-216l205 278h270zM476 -1h-364v877h364v-877z" />
    <glyph glyph-name="idieresis" unicode="&#xef;" horiz-adv-x="592" 
d="M590 1036h-234v231h234v-231zM239 1036h-234v231h234v-231zM476 -1h-364v877h364v-877z" />
    <glyph glyph-name="ntilde" unicode="&#xf1;" horiz-adv-x="1149" 
d="M1082 -2l-364 0.000976562v510c0 41.333 -11.667 77 -35 107c-25.333 32.667 -59 49.667 -101 51c-37.333 0.666992 -71.333 -12 -102 -38c-34.667 -29.333 -52 -68 -52 -116v-514h-364v879h352l-1 -101c96 105.333 207.333 155.333 334 150c100 -4 181 -43.333 243 -118
c60 -72.667 90 -163.334 90 -272.001v-538zM942 1167c-42 -86.667 -114.667 -130 -218 -130c-30 0 -68.167 7.83301 -114.5 23.5s-89.5 23.5 -129.5 23.5c-36.667 0 -64.334 -15.333 -83.001 -46l-150 93c62.667 88 134 132 214 132c26 0 61.333 -8.33301 106 -25
s87.334 -25 128.001 -25c42 0 73.667 16.667 95 50z" />
    <glyph glyph-name="ograve" unicode="&#xf2;" horiz-adv-x="1200" 
d="M1144 439c0 -144 -47.666 -259.336 -142.999 -346.003c-99.333 -90.667 -233.666 -134.667 -402.999 -132c-162.667 2.66699 -293.334 49.334 -392.001 140.001s-148 207.334 -148 350.001s49.667 260 149 352c102 94.667 232.333 139.334 391 134.001
c169.333 -5.33301 302.666 -53 399.999 -143s146 -208.333 146 -355zM766.001 450.997c0 70.667 -12.332 130.336 -36.999 179.003c-30 59.333 -72.667 88.666 -128 87.999c-54.667 -0.666992 -96.334 -29.667 -125.001 -87c-24 -47.333 -36.333 -106.333 -37 -177
c-0.666992 -74.667 10.666 -136.334 33.999 -185.001c28.667 -58.667 71.334 -88 128.001 -88c56 0 98.667 29.667 128 89c24.667 49.333 37 109.666 37 180.999zM836.002 1036h-219l-231 274h245z" />
    <glyph glyph-name="oacute" unicode="&#xf3;" horiz-adv-x="1200" 
d="M1144 439c0 -144 -47.666 -259.336 -142.999 -346.003c-99.333 -90.667 -233.666 -134.667 -402.999 -132c-162.667 2.66699 -293.334 49.334 -392.001 140.001s-148 207.334 -148 350.001s49.667 260 149 352c102 94.667 232.333 139.334 391 134.001
c169.333 -5.33301 302.666 -53 399.999 -143s146 -208.333 146 -355zM766.001 450.997c0 70.667 -12.332 130.336 -36.999 179.003c-30 59.333 -72.667 88.666 -128 87.999c-54.667 -0.666992 -96.334 -29.667 -125.001 -87c-24 -47.333 -36.333 -106.333 -37 -177
c-0.666992 -74.667 10.666 -136.334 33.999 -185.001c28.667 -58.667 71.334 -88 128.001 -88c56 0 98.667 29.667 128 89c24.667 49.333 37 109.666 37 180.999zM845.002 1308l-238 -274h-219l209 274h248z" />
    <glyph glyph-name="ocircumflex" unicode="&#xf4;" horiz-adv-x="1200" 
d="M951 1038h-219l-126 137l-126 -141h-216l205 278h270zM1144 439c0 -144 -47.666 -259.336 -142.999 -346.003c-99.333 -90.667 -233.666 -134.667 -402.999 -132c-162.667 2.66699 -293.334 49.334 -392.001 140.001s-148 207.334 -148 350.001s49.667 260 149 352
c102 94.667 232.333 139.334 391 134.001c169.333 -5.33301 302.666 -53 399.999 -143s146 -208.333 146 -355zM766.001 450.997c0 70.667 -12.332 130.336 -36.999 179.003c-30 59.333 -72.667 88.666 -128 87.999c-54.667 -0.666992 -96.334 -29.667 -125.001 -87
c-24 -47.333 -36.333 -106.333 -37 -177c-0.666992 -74.667 10.666 -136.334 33.999 -185.001c28.667 -58.667 71.334 -88 128.001 -88c56 0 98.667 29.667 128 89c24.667 49.333 37 109.666 37 180.999z" />
    <glyph glyph-name="otilde" unicode="&#xf5;" horiz-adv-x="1204" 
d="M1144 439c0 -144 -47.666 -259.336 -142.999 -346.003c-99.333 -90.667 -233.666 -134.667 -402.999 -132c-162.667 2.66699 -293.334 49.334 -392.001 140.001s-148 207.334 -148 350.001s49.667 260 149 352c102 94.667 232.333 139.334 391 134.001
c169.333 -5.33301 302.666 -53 399.999 -143s146 -208.333 146 -355zM766.001 450.997c0 70.667 -12.332 130.336 -36.999 179.003c-30 59.333 -72.667 88.666 -128 87.999c-54.667 -0.666992 -96.334 -29.667 -125.001 -87c-24 -47.333 -36.333 -106.333 -37 -177
c-0.666992 -74.667 10.666 -136.334 33.999 -185.001c28.667 -58.667 71.334 -88 128.001 -88c56 0 98.667 29.667 128 89c24.667 49.333 37 109.666 37 180.999zM954.002 1167c-42 -86.667 -114.667 -130 -218 -130c-30 0 -68.167 7.83301 -114.5 23.5
s-89.5 23.5 -129.5 23.5c-36.667 0 -64.334 -15.333 -83.001 -46l-150 93c62.667 88 134 132 214 132c26 0 61.333 -8.33301 106 -25s87.334 -25 128.001 -25c42 0 73.667 16.667 95 50z" />
    <glyph glyph-name="odieresis" unicode="&#xf6;" horiz-adv-x="1204" 
d="M1144 439c0 -144 -47.666 -259.336 -142.999 -346.003c-99.333 -90.667 -233.666 -134.667 -402.999 -132c-162.667 2.66699 -293.334 49.334 -392.001 140.001s-148 207.334 -148 350.001s49.667 260 149 352c102 94.667 232.333 139.334 391 134.001
c169.333 -5.33301 302.666 -53 399.999 -143s146 -208.333 146 -355zM766.001 450.997c0 70.667 -12.332 130.336 -36.999 179.003c-30 59.333 -72.667 88.666 -128 87.999c-54.667 -0.666992 -96.334 -29.667 -125.001 -87c-24 -47.333 -36.333 -106.333 -37 -177
c-0.666992 -74.667 10.666 -136.334 33.999 -185.001c28.667 -58.667 71.334 -88 128.001 -88c56 0 98.667 29.667 128 89c24.667 49.333 37 109.666 37 180.999zM893.002 1036h-234v231h234v-231zM542.002 1036h-234v231h234v-231z" />
    <glyph glyph-name="divide" unicode="&#xf7;" horiz-adv-x="1198" 
d="M714 836c0 -33.333 -12.1689 -62.1699 -36.502 -86.5029s-53.166 -36.166 -86.499 -35.499c-32.667 0.666992 -60.5 13.334 -83.5 38.001s-34.167 53.334 -33.5 86.001s12.667 60.667 36 84s51.333 35 84 35s60.834 -11.833 84.501 -35.5s35.5 -52.167 35.5 -85.5z
M1163 483.996h-1120v122h1120v-122zM712.998 251.996c0 -33.333 -12.1689 -61.999 -36.502 -85.999s-53.166 -35.667 -86.499 -35c-32.667 0.666992 -60.5 13.167 -83.5 37.5s-34.167 53.166 -33.5 86.499c0.666992 32.667 12.667 60.5 36 83.5s51.333 34.5 84 34.5
s60.834 -12 84.501 -36s35.5 -52.333 35.5 -85z" />
    <glyph glyph-name="oslash" unicode="&#xf8;" horiz-adv-x="1208" 
d="M1144 439c0 -144 -47.668 -259.333 -143.001 -346c-99.333 -90.667 -233.666 -134.667 -402.999 -132c-70 1.33301 -135 11 -195 29l-91 -158h-123l114 200c-163.333 87.333 -245 227 -245 419c0 142.667 49.667 260 149 352c102 94 232.333 138.667 391 134
c75.333 -2 144 -13.333 206 -34l107 186h123l-131 -228c160.667 -87.333 241 -228 241 -422zM681.999 690c-23.333 18.667 -50.332 28 -80.999 28c-54.667 -0.666992 -96.334 -29.667 -125.001 -87c-24 -47.333 -36.333 -106.333 -37 -177c-0.666992 -58 6 -108.333 20 -151
zM766 451c0 47.333 -6.66699 92.668 -20 136.001l-220 -383c20.667 -15.333 45.667 -23 75 -23c56 0 99 29.667 129 89c24.667 49.333 36.667 109.666 36 180.999z" />
    <glyph glyph-name="ugrave" unicode="&#xf9;" horiz-adv-x="1108" 
d="M1047 -2h-340l1 105c-72.667 -106.667 -179 -157 -319 -151c-100 4 -180.5 42.667 -241.5 116s-91.5 164 -91.5 272v537h364v-506c0 -102 43.333 -158.667 130 -170c34.667 -4.66699 67 9.5 97 42.5s45 74.167 45 123.5v510h355v-879zM786 1036h-219l-231 274h245z" />
    <glyph glyph-name="uacute" unicode="&#xfa;" horiz-adv-x="1108" 
d="M1047 -2h-340l1 105c-72.667 -106.667 -179 -157 -319 -151c-100 4 -180.5 42.667 -241.5 116s-91.5 164 -91.5 272v537h364v-506c0 -102 43.333 -158.667 130 -170c34.667 -4.66699 67 9.5 97 42.5s45 74.167 45 123.5v510h355v-879zM791 1308l-238 -274h-219l209 274
h248z" />
    <glyph glyph-name="ucircumflex" unicode="&#xfb;" horiz-adv-x="1112" 
d="M1047 -2h-340l1 105c-72.667 -106.667 -179 -157 -319 -151c-100 4 -180.5 42.667 -241.5 116s-91.5 164 -91.5 272v537h364v-506c0 -102 43.333 -158.667 130 -170c34.667 -4.66699 67 9.5 97 42.5s45 74.167 45 123.5v510h355v-879zM909 1038h-219l-126 137l-126 -141
h-216l205 278h270z" />
    <glyph glyph-name="udieresis" unicode="&#xfc;" horiz-adv-x="1112" 
d="M1047 -2h-340l1 105c-72.667 -106.667 -179 -157 -319 -151c-100 4 -180.5 42.667 -241.5 116s-91.5 164 -91.5 272v537h364v-506c0 -102 43.333 -158.667 130 -170c34.667 -4.66699 67 9.5 97 42.5s45 74.167 45 123.5v510h355v-879zM853 1036h-234v231h234v-231z
M502 1036h-234v231h234v-231z" />
    <glyph glyph-name="ydieresis" unicode="&#xff;" horiz-adv-x="1168" 
d="M1136 877l-348 -946.001c-44 -120.667 -112 -201 -204 -241c-36 -16 -91.667 -24 -167 -24c-76.667 0 -149 6 -217 18v222c26 -4 51.667 -7.66699 77 -11c24 -2.66699 47.333 0 70 8c30.667 10.667 53 28.334 67 53.001c1.33301 2.66699 10 25.667 26 69l-405 852h390
l186 -498l156 498h369zM894 1036h-234v231h234v-231zM543 1036h-234v231h234v-231z" />
    <glyph glyph-name="OE" unicode="&#x152;" horiz-adv-x="2264" 
d="M2190 -5l-1087 -0.000976562c-87.333 -31.333 -187.333 -46.666 -300 -45.999c-232.667 1.33301 -417 70 -553 206c-129.333 130.667 -194 299 -194 505c0 207.333 66.667 377.333 200 510c138.667 138.667 323 206.667 553 204c110 -1.33301 210.667 -20.333 302 -57
h1071v-286h-655v-199h549v-279h-549v-272h663v-286zM1142 674.999c2 132.667 -28.498 238.499 -91.498 317.499s-148.5 118.167 -256.5 117.5c-104.667 -0.666992 -188.334 -42.667 -251.001 -126c-60 -80 -90.333 -183 -91 -309
c-0.666992 -145.333 29.666 -258.666 90.999 -339.999c62 -83.333 148.667 -124 260 -122c113.333 2 197 38.667 251 110c56.667 74 86 191.333 88 352z" />
    <glyph glyph-name="oe" unicode="&#x153;" horiz-adv-x="1872" 
d="M1825 367l-681 -0.00195312c4.66699 -58 21.334 -104.667 50.001 -140c30.667 -37.333 70 -55.666 118 -54.999c71.333 1.33301 114.333 36.333 129 105h366c-15.333 -92 -72.333 -169.667 -171 -233c-95.333 -61.333 -201.333 -92 -318 -92
c-137.333 0 -254.333 37.667 -351 113c-96 -71.333 -219 -106 -369 -104c-162.667 2.66699 -293.334 49.334 -392.001 140.001s-148 207.334 -148 350.001s49.667 260 149 352c102 94.667 232.333 139.334 391 134.001c152 -4.66699 275.667 -44.334 371 -119.001
c92 70 205.333 105.667 340 107c164.667 1.33301 294 -49.667 388 -153c86 -94.667 129 -217 129 -367c0 -12.667 -0.333008 -25.334 -1 -38.001zM1453 564.998c-1.33301 46 -15.832 83.332 -43.499 111.999s-65.167 43.334 -112.5 44.001
c-40.667 0.666992 -75.334 -14.833 -104.001 -46.5s-45 -68.167 -49 -109.5h309zM766.001 450.997c0 70.667 -12.332 130.336 -36.999 179.003c-30 59.333 -72.667 88.666 -128 87.999c-54.667 -0.666992 -96.334 -29.667 -125.001 -87
c-24 -47.333 -36.333 -106.333 -37 -177c-0.666992 -74.667 10.666 -136.334 33.999 -185.001c28.667 -58.667 71.334 -88 128.001 -88c56 0 98.667 29.667 128 89c24.667 49.333 37 109.666 37 180.999z" />
    <glyph glyph-name="Ydieresis" unicode="&#x178;" horiz-adv-x="1488" 
d="M1451 1320l-526 -834v-488h-392v473l-505 849h420l284 -477l296 477h423zM1038 1519h-234v231h234v-231zM687 1519h-234v231h234v-231z" />
    <glyph glyph-name="florin" unicode="&#x192;" horiz-adv-x="865" 
d="M834 1412c-16 -44.667 -48.002 -67.001 -96.002 -67.001c-10.667 0 -21 4.66699 -31 14c-15.333 13.333 -25.666 21.5 -30.999 24.5s-10.333 4.5 -15 4.5c-24.667 0 -43 -47.667 -55 -143c-17.333 -143.333 -28.666 -225.333 -33.999 -246l-10 -38h182l-9 -75h-193
l-111 -553c-30 -150 -67.667 -273.667 -113 -371c-72 -154 -154 -217.667 -246 -191c-34.667 10 -52 32.667 -52 68c0 6 1 12 3 18c14.667 42.667 43 65 85 67c16 0.666992 28.333 -6.33301 37 -21c10 -17.333 18.667 -27.333 26 -30
c3.33301 -1.33301 6.66602 -2 9.99902 -2c29.333 0 55.333 45 78 135l48 244l127 637h-200l4 76h225l10 50c64.667 322.667 157 484.334 277 485.001c20.667 0 40.334 -7.16699 59.001 -21.5s28 -30.833 28 -49.5c0 -4.66699 -1 -9.66699 -3 -15z" />
    <glyph glyph-name="Delta" unicode="&#x394;" horiz-adv-x="1289" 
d="M1268 -1h-1204l643 1350zM1030 88l-398 942l-442 -942h840z" />
    <glyph glyph-name="Delta" unicode="&#x2206;" horiz-adv-x="1289" 
d="M1268 -1h-1204l643 1350zM1030 88l-398 942l-442 -942h840z" />
    <glyph glyph-name="Omega" unicode="&#x3a9;" horiz-adv-x="1433" 
d="M1360 -3l-537 -0.000976562l26 266c171.333 78 256 221.667 254 431c-1.33301 124.667 -25 217.667 -71 279c-60 79.333 -163.333 119.666 -310 120.999c-256.667 2.66699 -386.667 -130.666 -390 -399.999c-2.66699 -210 82 -353.667 254 -431l26 -266h-538v280h35
c-1.33301 -33.333 8.66699 -60 30 -80s49 -30 83 -30h294v56c-116 20 -209.667 74 -281 162c-69.333 86 -106.333 189.667 -111 311c-5.33301 140.667 50 252.334 166 335.001c109.333 78.667 252.333 118 429 118c184 0 329.333 -39.333 436 -118
c109.333 -81.333 161.333 -193 156 -335c-4.66699 -121.333 -41.667 -225 -111 -311c-72 -88 -166 -142 -282 -162v-56h295c44 0 76 15.333 96 46c12 18.667 17.667 40 17 64h34v-280z" />
    <glyph glyph-name="Omega" unicode="&#x2126;" horiz-adv-x="1433" 
d="M1360 -3l-537 -0.000976562l26 266c171.333 78 256 221.667 254 431c-1.33301 124.667 -25 217.667 -71 279c-60 79.333 -163.333 119.666 -310 120.999c-256.667 2.66699 -386.667 -130.666 -390 -399.999c-2.66699 -210 82 -353.667 254 -431l26 -266h-538v280h35
c-1.33301 -33.333 8.66699 -60 30 -80s49 -30 83 -30h294v56c-116 20 -209.667 74 -281 162c-69.333 86 -106.333 189.667 -111 311c-5.33301 140.667 50 252.334 166 335.001c109.333 78.667 252.333 118 429 118c184 0 329.333 -39.333 436 -118
c109.333 -81.333 161.333 -193 156 -335c-4.66699 -121.333 -41.667 -225 -111 -311c-72 -88 -166 -142 -282 -162v-56h295c44 0 76 15.333 96 46c12 18.667 17.667 40 17 64h34v-280z" />
    <glyph glyph-name="pi" unicode="&#x3c0;" horiz-adv-x="1121" 
d="M1064 311l-4.99805 -42.9971c-8.66699 -76.667 -35.334 -140.667 -80.001 -192c-48 -56.667 -106 -82.334 -174 -77.001c-114.667 8.66699 -172 107 -172 295c0 28.667 1.66699 57.667 5 87l47 423h-231l-80 -626c-6 -48.667 -20 -90.667 -42 -126
c-24.667 -42.667 -54.667 -64 -90 -64c-8 0 -16 1.33301 -24 4c-46.667 13.333 -74 36.333 -82 69c-2.66699 10 -4 19.667 -4 29c0 29.333 16.333 60 49 92c39.333 38.667 63.333 69 72 91c10 19.333 21.333 52 34 98l46 426h-64c-42.667 0 -73.334 -3.66699 -92.001 -11
c-22.667 -8.66699 -45 -26.334 -67 -53.001c-18 -20.667 -29 -38 -33 -52l-34 13l13 28c35.333 76 55 117.333 59 124c24 39.333 56.167 69.166 96.5 89.499s82.5 30.5 126.5 30.5h714v-162h-259l-26 -472c-2.66699 -42.667 8 -80.667 32 -114
c25.333 -36 57.333 -53.333 96 -52c64.667 2 105.667 39.333 123 112l8 33h38z" />
    <glyph glyph-name="endash" unicode="&#x2013;" horiz-adv-x="815" 
d="M746 392h-666v259h666v-259z" />
    <glyph glyph-name="emdash" unicode="&#x2014;" horiz-adv-x="1470" 
d="M1405 392h-1325v259h1325v-259z" />
    <glyph glyph-name="quoteleft" unicode="&#x2018;" horiz-adv-x="436" 
d="M371 836l-296 0.000976562v162c0 90 5.66699 153.333 17 190c14 46.667 36.667 91 68 133h186c-22.667 -23.333 -45.667 -59.333 -69 -108c-15.333 -32.667 -22 -67.334 -20 -104.001h114v-273z" />
    <glyph glyph-name="quoteright" unicode="&#x2019;" horiz-adv-x="435" 
d="M368 1161c0 -92.667 -5.33203 -156.333 -15.999 -191c-14 -45.333 -37 -89.333 -69 -132h-186c23.333 23.333 46.666 59 69.999 107c16 32 22.667 67 20 105h-114v273h295v-162z" />
    <glyph glyph-name="quotesinglbase" unicode="&#x201a;" horiz-adv-x="435" 
d="M368 109c0 -92.667 -5.33203 -156.333 -15.999 -191c-14 -45.333 -37 -89.333 -69 -132h-186c23.333 23.333 46.666 59 69.999 107c16 32 22.667 67 20 105h-114v273h295v-162z" />
    <glyph glyph-name="quotedblleft" unicode="&#x201c;" horiz-adv-x="833" 
d="M764 779h-299v225c0 60 9 120 27 180l58 139h193c-12.667 -20.667 -30 -54 -52 -100c-7.33301 -19.333 -16.333 -53 -27 -101h100v-343zM368 779h-299v225c0 61.333 9 121.333 27 180l58 139h193c-12.667 -20 -30 -53.333 -52 -100c-8 -19.333 -17 -53 -27 -101h100v-343
z" />
    <glyph glyph-name="quotedblright" unicode="&#x201d;" horiz-adv-x="827" 
d="M767 1098c0 -60 -9 -120.002 -27 -180.002c-12.667 -41.333 -32 -88 -58 -140h-193c12.667 20.667 30 54.334 52 101.001c8 18.667 17 52.334 27 101.001h-100v343h299v-225zM372 1098c0 -61.333 -8.99902 -121.335 -26.999 -180.002c-12.667 -41.333 -32 -88 -58 -140
h-193c25.333 40.667 42.666 74.334 51.999 101.001c7.33301 18.667 16.333 52.334 27 101.001h-100v343h299v-225z" />
    <glyph glyph-name="quotedblbase" unicode="&#x201e;" horiz-adv-x="846" 
d="M764 109c0 -92.667 -5.33203 -156.333 -15.999 -191c-14 -45.333 -37 -89.333 -69 -132h-186c23.333 23.333 46.666 59 69.999 107c16 32 22.667 67 20 105h-114v273h295v-162zM368.001 109.001c0 -92.667 -5.33203 -156.333 -15.999 -191
c-14 -45.333 -37 -89.333 -69 -132h-186c23.333 23.333 46.666 59 69.999 107c16 32 22.667 67 20 105h-114v273h295v-162z" />
    <glyph glyph-name="dagger" unicode="&#x2020;" horiz-adv-x="1003" 
d="M964 798h-406v-1175h-106v1175h-398l-1 114h399v408h109v-409h403v-113z" />
    <glyph glyph-name="bullet" unicode="&#x2022;" horiz-adv-x="564" 
d="M503 541c4 -60.667 -14.833 -114.167 -56.5 -160.5s-92.5 -69.833 -152.5 -70.5c-58 -0.666992 -108 20.166 -150 62.499s-63.333 92.833 -64 151.5c-0.666992 59.333 19.333 110.666 60 153.999s90.334 65.333 149.001 66c56.667 0.666992 105.667 -18.666 147 -57.999
s63.666 -87.666 66.999 -144.999z" />
    <glyph glyph-name="ellipsis" unicode="&#x2026;" horiz-adv-x="960" 
d="M211 -1h-174v170h174v-170zM915 -1h-174v170h174v-170zM563 -1h-174v170h174v-170z" />
    <glyph glyph-name="trademark" unicode="&#x2122;" horiz-adv-x="1259" 
d="M1193 663h-64v585l-219 -584h-58l-211 586v-587h-64l-1 658h100l209 -578l213 577h95v-657zM527 1269h-207v-606h-64v607h-206v55h477v-56z" />
    <glyph glyph-name="partialdiff" unicode="&#x2202;" horiz-adv-x="903" 
d="M873 655c0 -178.667 -43.668 -338 -131.001 -478c-94.667 -153.333 -209.667 -223.333 -345 -210c-108 10.667 -192 49.667 -252 117c-56 62.667 -86.667 144.334 -92 245.001c-5.33301 106.667 28.334 201 101.001 283s161.334 122.333 266.001 121
c77.333 -0.666992 155 -29.334 233 -86.001l55 -40l15 93c6 36.667 9 74.667 9 114c0 124 -26 229.333 -78 316c-58.667 98 -138.667 147 -240 147c-30 0 -60.167 -5 -90.5 -15l-89.5 -30l-33 -10l-69 86l78 23c62 18 119.667 26.667 173 26
c159.333 -2.66699 284.666 -84 375.999 -244c76 -134 114 -286.667 114 -458zM693.999 539l-49.002 47c-35.333 34 -76 56 -122 66c-14.667 3.33301 -29 5 -43 5c-59.333 0 -113.333 -26.333 -162 -79c-43.333 -46.667 -74.666 -105.667 -93.999 -177
c-10.667 -40 -16 -80 -16 -120c0 -141.333 53.333 -228.333 160 -261c16.667 -5.33301 32.667 -8 48 -8c118.667 0 202.334 128.333 251.001 385z" />
    <glyph glyph-name="product" unicode="&#x220f;" horiz-adv-x="1511" 
d="M1491 -195l-576.001 0.000976562v35l48 2c28 1.33301 47 3 57 5c18.667 4 35 13 49 27s22.333 32.667 25 56v68v1217h-673v-1206c0 -69.333 16 -116 48 -140c22 -16.667 57.333 -25 106 -25h37v-39h-576v41h45c46 0 80 8.66699 102 26
c27.333 21.333 41 67.666 41 138.999v1097c0 53.333 -19.667 97 -59 131c-29.333 25.333 -58.666 39 -87.999 41l-32 2v39h1446v-41l-40 -2c-30 -1.33301 -59 -13.333 -87 -36c-38.667 -31.333 -58 -85.333 -58 -162v-1085c0 -58.667 12.667 -99.667 38 -123
c23.333 -21.333 58 -33 104 -35l43 -2v-30z" />
    <glyph glyph-name="summation" unicode="&#x2211;" horiz-adv-x="1303" 
d="M1299 194c-24 -72.667 -42.333 -144.001 -55 -214.001c-11.333 -65.333 -18 -130 -20 -194l-131 25h-1057l655 720l-644 803l120 -11h1000l3 -295h-39c2 64.667 -20.667 118.334 -68 161.001c-36.667 33.333 -97 50 -181 50h-540l519 -626l-556 -625h742
c41.333 0 82.333 15 123 45c54 40 83.333 93.667 88 161h41z" />
    <glyph glyph-name="radical" unicode="&#x221a;" horiz-adv-x="911" 
d="M895 1478l-254 -1565l-417 826l-159 -81l-25 55l244 116l335 -659l218 1315z" />
    <glyph glyph-name="infinity" unicode="&#x221e;" horiz-adv-x="1456" 
d="M1420 479c2.66699 -87.333 -25.334 -159.666 -84.001 -216.999c-55.333 -54 -120 -80.333 -194 -79c-114.667 2 -218 46.333 -310 133l-87 82l-88 -82c-93.333 -86.667 -196.666 -131 -309.999 -133c-74 -1.33301 -138.667 25 -194 79
c-58.667 57.333 -86.667 129.666 -84 216.999c2 74.667 30.667 137.667 86 189c53.333 49.333 119.333 76.333 198 81c88 4.66699 182 -37.666 282 -126.999l109 -98l110 98c100.667 89.333 194.667 131.666 282 126.999c78.667 -4.66699 144.667 -31.667 198 -81
c55.333 -51.333 84 -114.333 86 -189zM1322 471c-4 52 -24.168 94.835 -60.501 128.502s-80.5 49.167 -132.5 46.5c-59.333 -2.66699 -123.666 -30 -192.999 -82l-131 -98l122 -113c56.667 -52 123.334 -77.333 200.001 -76c59.333 1.33301 107.666 20.666 144.999 57.999
s54 82.666 50 135.999zM683.998 466.002l-131.001 97.998c-69.333 52 -133.666 79.333 -192.999 82c-52 2.66699 -96.167 -12.833 -132.5 -46.5s-56.5 -76.5 -60.5 -128.5c-4 -53.333 12.667 -98.666 50 -135.999s85.666 -56.666 144.999 -57.999
c76.667 -1.33301 143.334 24 200.001 76z" />
    <glyph glyph-name="integral" unicode="&#x222b;" horiz-adv-x="555" 
d="M527 1423c-6 -45.333 -32.6641 -67.9971 -79.9971 -67.9971c-11.333 0 -23.333 4.66699 -36 14c-17.333 14 -28.333 22.167 -33 24.5s-9.33398 3.5 -14.001 3.5c-19.333 0 -29 -29.667 -29 -89c0 -32.667 4.16699 -93 12.5 -181s12.5 -150.333 12.5 -187v-571
c0 -416.667 -76 -604 -228 -562c-18.667 5.33301 -35 15.666 -49 30.999c-16 17.333 -23 35.666 -21 54.999c4.66699 43.333 28 65.666 70 66.999c16 0.666992 29.667 -6.33301 41 -21c13.333 -17.333 24.666 -27.333 33.999 -30c3.33301 -0.666992 6.33301 -1 9 -1
c29.333 0 44 53.333 44 160c0 24.667 -0.833008 62 -2.5 112s-2.5 85.333 -2.5 106v793c0 284.667 56.333 427.667 169 429c27.333 0 51.666 -7.66699 72.999 -23c23.333 -17.333 33.333 -38 30 -62z" />
    <glyph glyph-name="approxequal" unicode="&#x2248;" horiz-adv-x="1177" 
d="M1127 709l-39.001 -45.999c-61.333 -72.667 -144.333 -111.667 -249 -117c-32.667 -2 -66.167 2.66699 -100.5 14l-101.5 34l-165 45c-68.667 18.667 -112.334 28 -131.001 28c-13.333 0 -27 -1.33301 -41 -4c-54.667 -10.667 -103 -38.334 -145 -83.001l-34 -36l-86 55
l28 30c65.333 70.667 143 112.667 233 126c20.667 3.33301 40.334 5 59.001 5c38.667 0 91.667 -10.333 159 -31l145 -44l88.5 -29.5c29.667 -9.66699 58.834 -13.167 87.501 -10.5c74.667 6 133.667 31.333 177 76l36 37zM1127 389.001l-39.002 -46
c-61.333 -72.667 -144.333 -111.667 -249 -117c-32.667 -2 -66.167 2.66699 -100.5 14l-101.5 34l-165 46c-66 18.667 -109 28 -129 28c-14 0 -28.333 -1.66699 -43 -5c-54.667 -11.333 -103 -39 -145 -83l-34 -36l-86 56l28 30c64.667 69.333 142.334 111 233.001 125
c20.667 3.33301 40.667 5 60 5c37.333 0 90 -10.333 158 -31l145 -44l88.5 -29.5c29.667 -9.66699 58.834 -13.167 87.501 -10.5c76 6 135 31.333 177 76l36 38z" />
    <glyph glyph-name="approxequal" unicode="&#x22f2;" horiz-adv-x="1177" 
d="M1127 709l-39.001 -45.999c-61.333 -72.667 -144.333 -111.667 -249 -117c-32.667 -2 -66.167 2.66699 -100.5 14l-101.5 34l-165 45c-68.667 18.667 -112.334 28 -131.001 28c-13.333 0 -27 -1.33301 -41 -4c-54.667 -10.667 -103 -38.334 -145 -83.001l-34 -36l-86 55
l28 30c65.333 70.667 143 112.667 233 126c20.667 3.33301 40.334 5 59.001 5c38.667 0 91.667 -10.333 159 -31l145 -44l88.5 -29.5c29.667 -9.66699 58.834 -13.167 87.501 -10.5c74.667 6 133.667 31.333 177 76l36 37zM1127 389.001l-39.002 -46
c-61.333 -72.667 -144.333 -111.667 -249 -117c-32.667 -2 -66.167 2.66699 -100.5 14l-101.5 34l-165 46c-66 18.667 -109 28 -129 28c-14 0 -28.333 -1.66699 -43 -5c-54.667 -11.333 -103 -39 -145 -83l-34 -36l-86 56l28 30c64.667 69.333 142.334 111 233.001 125
c20.667 3.33301 40.667 5 60 5c37.333 0 90 -10.333 158 -31l145 -44l88.5 -29.5c29.667 -9.66699 58.834 -13.167 87.501 -10.5c76 6 135 31.333 177 76l36 38z" />
    <glyph glyph-name="notequal" unicode="&#x2260;" horiz-adv-x="1066" 
d="M1032 221h-564l-165 -295l-92 55l134 240h-287v107l349 1l138 253h-487v109l550 -1l170 303l91 -54l-139 -249h302v-108h-358l-151 -253l509 -1v-107z" />
    <glyph glyph-name="lessequal" unicode="&#x2264;" horiz-adv-x="1008" 
d="M973 240l-916 429v98l914 415v-123l-762 -341l764 -359v-119zM971 3h-912v104h912v-104z" />
    <glyph glyph-name="greaterequal" unicode="&#x2265;" horiz-adv-x="1014" 
d="M970 652l-916 -429v119l764 359l-762 341v123l914 -416v-97zM968 -14h-912v104h912v-104z" />
    <glyph glyph-name="lozenge" unicode="&#x25ca;" horiz-adv-x="895" 
d="M865 665l-344 -668h-113l-350 677l350 644h113zM761 665l-298 556l-298 -550l301 -590z" />
    <glyph glyph-name=".null" horiz-adv-x="0" 
 />
    <glyph glyph-name="nonmarkingreturn" horiz-adv-x="432" 
 />
    </font>
</defs>
</svg>
