<?xml version="1.0" standalone="no"?>
<!DOCTYPE svg PUBLIC "-//W3C//DTD SVG 1.1//EN" "http://www.w3.org/Graphics/SVG/1.1/DTD/svg11.dtd" >
<svg>
<metadata>
Created by FontForge 20090914 at Mon Apr 12 15:31:26 2021
 By www-data
Copyright (c) Ray Larabie, 2000. All rights reserved.
</metadata>
<defs>
<font id="Kimberley" horiz-adv-x="591" >
  <font-face 
    font-family="Kimberley"
    font-weight="400"
    font-stretch="normal"
    units-per-em="1000"
    panose-1="2 1 10 4 2 2 2 8 5 4"
    ascent="800"
    descent="-200"
    x-height="587"
    cap-height="760"
    bbox="-98 -219 955 1082"
    underline-thickness="20"
    underline-position="-123"
    unicode-range="U+0020-U+2122"
  />
<missing-glyph horiz-adv-x="500" 
 />
    <glyph glyph-name=".notdef" horiz-adv-x="500" 
 />
    <glyph glyph-name="space" unicode=" " horiz-adv-x="302" 
 />
    <glyph glyph-name="space" unicode="&#xa0;" horiz-adv-x="302" 
 />
    <glyph glyph-name="exclam" unicode="!" horiz-adv-x="253" 
d="M212 39c0 -26 -12.667 -39 -38 -39h-98c-24 0 -36 13 -36 39v113c0 26 13.333 39 40 39h94c25.333 0 38 -13 38 -39v-113zM30 760h193l-40 -467h-113z" />
    <glyph glyph-name="quotedbl" unicode="&#x22;" horiz-adv-x="384" 
d="M319 511c-3.33301 -9.33301 -9.33301 -14.333 -18 -15h-60c-8.66699 0.666992 -14 5.66699 -16 15l-24 223c-1.33301 17.333 4.66699 26 18 26h115c14 0 19.333 -8.66699 16 -26zM149 511c-3.33301 -9.33301 -9.33301 -14.333 -18 -15h-60
c-8.66699 0.666992 -14 5.66699 -16 15l-24 223c-1.33301 17.333 4.66699 26 18 26h115c14 0 19.333 -8.66699 16 -26z" />
    <glyph glyph-name="numbersign" unicode="#" horiz-adv-x="641" 
d="M284 257h72v73h-72v-73zM611 103h-102v-103h-153v103h-72v-103h-152v103h-102v154h102v73h-102v154h102v103h152v-103h72v103h153v-103h102v-154h-102v-73h102v-154z" />
    <glyph glyph-name="dollar" unicode="$" horiz-adv-x="554" 
d="M336 261h18v35h-18v-35zM199 476h18v34h-18v-34zM524 225c0 -40.667 -11.668 -73.666 -35.001 -98.999c-25.333 -29.333 -58.666 -44 -99.999 -44h-53v-106h-119v106h-162v179h162v35h-53c-32.667 0 -60.667 9.5 -84 28.5s-39 44.833 -47 77.5c-2 12 -3 24.333 -3 37v108
c0 38 12 70.667 36 98c26 30 58.667 45 98 45h53v106h119v-106h150v-180h-150v-34h53c38 0 70 -14 96 -42h-1c26.667 -28.667 40 -62.334 40 -101.001v-108z" />
    <glyph glyph-name="percent" unicode="%" horiz-adv-x="602" 
d="M329 283c0 -13.333 2.66699 -25.666 8 -36.999s12.5 -21.166 21.5 -29.499s19.833 -15 32.5 -20s26 -7.5 40 -7.5s27.333 2.5 40 7.5s23.667 11.667 33 20s16.666 18.166 21.999 29.499s8 23.666 8 36.999c0 12.667 -2.66699 24.834 -8 36.501
s-12.666 21.834 -21.999 30.501s-20.333 15.5 -33 20.5s-26 7.5 -40 7.5s-27.333 -2.5 -40 -7.5s-23.5 -11.833 -32.5 -20.5s-16.167 -18.834 -21.5 -30.501s-8 -23.834 -8 -36.501zM70 411c0 -13.333 2.66699 -25.833 8 -37.5s12.5 -21.667 21.5 -30s19.667 -15 32 -20
s25.5 -7.5 39.5 -7.5s27.167 2.5 39.5 7.5s23.166 11.667 32.499 20s16.666 18.333 21.999 30s8 24.167 8 37.5s-2.66699 25.833 -8 37.5s-12.666 21.834 -21.999 30.501s-20.166 15.5 -32.499 20.5s-25.5 7.5 -39.5 7.5s-27.167 -2.5 -39.5 -7.5s-23 -11.833 -32 -20.5
s-16.167 -18.834 -21.5 -30.501s-8 -24.167 -8 -37.5zM572 282c0 -17.333 -3.33301 -33.833 -10 -49.5s-16 -30.167 -28 -43.5c-28 -28 -62 -42 -102 -42c-38.667 0 -72.334 13.333 -101.001 40c-26.667 26 -40 57 -40 93v4l-133 -137h-103l130 134h-14
c-38.667 0 -72 13 -100 39c-27.333 26 -41 57 -41 93c0 36.667 13.333 68 40 94v-1c26.667 27.333 60.334 41 101.001 41c40 0 73 -13.333 99 -40h-1c28 -25.333 42 -56.333 42 -93v-3l133 136h104l-131 -134c3.33301 0.666992 8.33301 1 15 1
c39.333 0 72.333 -13.333 99 -40h-1c28 -26 42 -56.667 42 -92z" />
    <glyph glyph-name="ampersand" unicode="&#x26;" horiz-adv-x="726" 
d="M407 191v103h-165c-24.667 0 -38 -12.333 -40 -37v-24c0 -28 14.667 -42 44 -42h161zM242 569c-26.667 0 -40 -14.667 -40 -44v-22c0 -24 13.333 -36 40 -36h165v102h172v-102h117v-174h-118c0.666992 -3.33301 1 -7 1 -11v-11v-80h104v-191h-516
c-91.333 0 -137 47 -137 141v477c0 94.667 45.667 142 137 142h183v-191h-108v0z" />
    <glyph glyph-name="quotesingle" unicode="'" horiz-adv-x="236" 
d="M128 331c-6.66699 -6.66699 -13.333 -10 -20 -10h-33c-14 0 -17 6 -9 18l33 45c11.333 16 10.333 25.667 -3 29h-7c-39.333 0 -59 18 -59 54v57c0 41.333 20 62 60 62h54c41.333 0 62 -20.667 62 -62v-57c0 -20.667 -12.667 -48.667 -38 -84z" />
    <glyph glyph-name="parenleft" unicode="(" horiz-adv-x="275" 
d="M100 -153c-10 38 -18.667 72.665 -26 103.998s-13.333 60.666 -18 87.999c-8.66699 48 -15.167 95.167 -19.5 141.5s-6.5 91.833 -6.5 136.5c0 65.333 5.83301 136.833 17.5 214.5s29.167 162.167 52.5 253.5h145c-25.333 -96 -44 -182.667 -56 -260
s-18 -146.666 -18 -207.999c0 -85.333 8.33301 -172.666 25 -261.999c4 -23.333 10 -52.166 18 -86.499s18.333 -74.833 31 -121.5h-145z" />
    <glyph glyph-name="parenright" unicode=")" horiz-adv-x="274" 
d="M218 592c9.33301 -48 16.001 -94.999 20.001 -140.999s6 -91.667 6 -137c0 -66.667 -5.83301 -138.5 -17.5 -215.5s-29.167 -160.833 -52.5 -251.5h-144c24 94 42.167 179.833 54.5 257.5s18.5 147.5 18.5 209.5c0 42 -2.16699 84.667 -6.5 128
s-10.5 87.666 -18.5 132.999c-8 46.667 -24 116.667 -48 210h144l25 -105c7.33301 -32 13.666 -61.333 18.999 -88z" />
    <glyph glyph-name="asterisk" unicode="*" horiz-adv-x="343" 
d="M373 350l-78 -60l72 -55l-57 -101l-73 54v-103h-116v103l-79 -58l-57 101l80 59l-87 56l58 101l85 -55v110h116v-111l77 59z" />
    <glyph glyph-name="plus" unicode="+" horiz-adv-x="408" 
d="M378 281h-94v-96h-159v96h-95v161h95v96h159v-96h94v-161z" />
    <glyph glyph-name="comma" unicode="," horiz-adv-x="236" 
d="M128 -79c-6.66699 -6.66699 -13.333 -10 -20 -10h-33c-14 0 -17 6 -9 18l33 45c11.333 16 10.333 25.667 -3 29h-7c-39.333 0 -59 18 -59 54v68c0 41.333 20 62 60 62h54c41.333 0 62 -20.667 62 -62v-68c0 -20.667 -12.667 -48.667 -38 -84z" />
    <glyph glyph-name="hyphen" unicode="-" horiz-adv-x="347" 
d="M317 333h-287v94h287v-94z" />
    <glyph glyph-name="period" unicode="." horiz-adv-x="232" 
d="M202 39c0 -26 -12.667 -39 -38 -39h-98c-24 0 -36 13 -36 39v113c0 26 13.333 39 40 39h94c25.333 0 38 -13 38 -39v-113z" />
    <glyph glyph-name="slash" unicode="/" horiz-adv-x="512" 
d="M482 760l-359 -760h-93l362 760h90z" />
    <glyph glyph-name="zero" unicode="0" horiz-adv-x="609" 
d="M361 191c30.667 0 46 15.667 46 47v288c0 28.667 -16 43 -48 43h-116c-26.667 0 -40 -15 -40 -45v-284c0 -32.667 13 -49 39 -49h119v0zM579 137c0 -92.667 -44.667 -138.333 -134 -137h-275c-93.333 -0 -140 44.333 -140 133v489c0 92 45.667 138 137 138h276
c90 -0.666992 135.333 -47 136 -139v-484v0z" />
    <glyph glyph-name="one" unicode="1" horiz-adv-x="302" 
d="M61 569h-31v191h104c20 0 38.5 -3.5 55.5 -10.5s31.667 -16.667 44 -29s21.833 -26.833 28.5 -43.5s10 -35 10 -55v-622h-174v527c2 28 -10.333 42 -37 42z" />
    <glyph glyph-name="two" unicode="2" horiz-adv-x="609" 
d="M579 191l-0.000976562 -191h-549v333c0 89.333 44.333 134 133 134h201c28 0 42 16.333 42 49v11c0 28 -14.333 42 -43 42h-333v191h414c90 0 135 -48.333 135 -145v-188c0 -88.667 -46.667 -133 -140 -133h-195c-27.333 0 -41.666 -14.667 -42.999 -44v-59h378z" />
    <glyph glyph-name="three" unicode="3" horiz-adv-x="559" 
d="M526 141c0 -94 -45.667 -141.001 -137 -141.001h-359v191h280c29.333 0 44 14 44 42v18c0 28.667 -13.333 43 -40 43h-284v173h284c26.667 0 40 12 40 36v22c0 29.333 -13.333 44 -40 44h-284v191h359c91.333 0 137 -47.333 137 -142v-120
c0.666992 -68.667 -28 -108 -86 -118c59.333 -13.333 88 -49.666 86 -108.999v-130v0z" />
    <glyph glyph-name="four" unicode="4" horiz-adv-x="621" 
d="M526 131v-131h-171v131h-325v127l139 311h158l-109 -260h137v451h171v-451h65v-178h-65z" />
    <glyph glyph-name="five" unicode="5" horiz-adv-x="609" 
d="M446 467c88.667 0 133 -44.667 133 -134v-185c0 -98.667 -48.333 -148 -145 -148h-404v191h335c28 0 42 15 42 45v14c0 29.333 -14 44 -42 44h-335v466h549v-191h-376v-102h243z" />
    <glyph glyph-name="six" unicode="6" horiz-adv-x="612" 
d="M410 252c0 28 -14.333 42 -43 42h-118c-28.667 0 -43 -14 -43 -42v-20c0 -27.333 13.667 -41 41 -41h122c27.333 0 41 13.667 41 41v20v0zM582 134c0 -89.333 -44.333 -134 -133 -134h-282c-89.333 -0 -135 47.333 -137 142v473c2 96.667 46.667 145 134 145h418v-191
h-337c-26 0 -39 -14.333 -39 -43v-59h269c71.333 0 107 -42.333 107 -127v-206v0z" />
    <glyph glyph-name="seven" unicode="7" horiz-adv-x="629" 
d="M599 631l-329 -631h-193l303 569h-350v191h568z" />
    <glyph glyph-name="eight" unicode="8" horiz-adv-x="615" 
d="M205 503c0 -24 13.333 -36 40 -36h125c26.667 0 40 12 40 36v22c0 29.333 -13.333 44 -40 44h-125c-26.667 0 -40 -14.667 -40 -44v-22v0zM205 233c0 -28 14.667 -42 44 -42h117c29.333 0 44 14 44 42v18c0 28.667 -13.333 43 -40 43h-125c-26.667 0 -40 -14.333 -40 -43
v-18v0zM582 141c0 -94 -45.667 -141 -137 -141h-275c-91.333 0 -137 47 -137 141v130c-2 59.333 26.667 95.666 86 108.999c-58 10 -86.667 49.333 -86 118v120c0 94.667 45.667 142 137 142h275c91.333 0 137 -47.333 137 -142v-120c0.666992 -68.667 -28 -108 -86 -118
c59.333 -13.333 88 -49.666 86 -108.999v-130v0z" />
    <glyph glyph-name="nine" unicode="9" horiz-adv-x="612" 
d="M202 508c0 -28 14.333 -42 43 -42h118c28.667 0 43 14 43 42v20c0 27.333 -13.667 41 -41 41h-122c-27.333 0 -41 -13.667 -41 -41v-20v0zM30 626c0 89.333 44.333 134 133 134h282c89.333 0 135 -47.333 137 -142v-473c-2 -96.667 -46.667 -145 -134 -145h-418v191h337
c26 0 39 14.333 39 43v59h-269c-71.333 0 -107 42.333 -107 127v206v0z" />
    <glyph glyph-name="colon" unicode=":" horiz-adv-x="232" 
d="M202 323c0 -26 -12.667 -39 -38 -39h-98c-24 0 -36 13 -36 39v113c0 26 13.333 39 40 39h94c25.333 0 38 -13 38 -39v-113zM202 39c0 -26 -12.667 -39 -38 -39h-98c-24 0 -36 13 -36 39v113c0 26 13.333 39 40 39h94c25.333 0 38 -13 38 -39v-113z" />
    <glyph glyph-name="semicolon" unicode=";" horiz-adv-x="236" 
d="M128 -79c-6.66699 -6.66699 -13.333 -10 -20 -10h-33c-14 0 -17 6 -9 18l33 45c11.333 16 10.333 25.667 -3 29h-7c-39.333 0 -59 18 -59 54v68c0 41.333 20 62 60 62h54c41.333 0 62 -20.667 62 -62v-68c0 -20.667 -12.667 -48.667 -38 -84zM205.001 323
c0 -26 -12.667 -39 -38 -39h-98c-24 0 -36 13 -36 39v113c0 26 13.333 39 40 39h94c25.333 0 38 -13 38 -39v-113z" />
    <glyph glyph-name="less" unicode="&#x3c;" horiz-adv-x="414" 
d="M252 378l132 -143l-111 -120l-243 263l243 263l111 -120z" />
    <glyph glyph-name="equal" unicode="=" horiz-adv-x="347" 
d="M317 413h-287v94h287v-94zM317 253h-287v94h287v-94z" />
    <glyph glyph-name="greater" unicode="&#x3e;" horiz-adv-x="414" 
d="M384 378l-243 -263l-111 120l132 143l-132 143l111 120z" />
    <glyph glyph-name="question" unicode="?" horiz-adv-x="579" 
d="M313 39c0 -26 -12.667 -39 -38 -39h-98c-24 0 -36 13 -36 39v113c0 26 13.333 39 40 39h94c25.333 0 38 -13 38 -39v-113zM312 239h-172v94c0 89.333 44.333 134 133 134h61c28 0 42 16.333 42 49v11c0 28 -14.333 42 -43 42h-303v191h384c90 0 135 -48.333 135 -145
v-188c0 -88.667 -46.667 -133 -140 -133h-55c-28 0 -42 -14.667 -42 -44v-11z" />
    <glyph glyph-name="at" unicode="@" horiz-adv-x="679" 
d="M398 321c0 9.33301 -5.33301 14 -16 14h-82c-10.667 0 -16 -4.33301 -16 -13v-3c0 -9.33301 5.33301 -14 16 -14h82c10.667 0 16 4.66699 16 14v2zM179 327c0 64 26.667 96 80 96h139v10c0 12.667 -6.66699 19 -20 19h-184v106h224c57.333 0 86 -28 86 -84v-191
c0 -55.333 -28.667 -83 -86 -83h-158c-52.667 0 -79.667 27.667 -81 83v44v0zM501 121c30.667 0 46 15.667 46 47v428c0 28.667 -16 43 -48 43h-326c-26.667 0 -40 -15 -40 -45v-424c0 -32.667 13 -49 39 -49h329v0zM649 137c0 -92.667 -44.667 -138.333 -134 -137h-345
c-93.333 -0 -140 44.333 -140 133v489c0 92 45.667 138 137 138h346c90 -0.666992 135.333 -47 136 -139v-484v0z" />
    <glyph glyph-name="A" unicode="A" horiz-adv-x="641" 
d="M203 490h236v89h-236v-89zM611 0h-172v312h-236v-312h-173v615c0 96.667 45.667 144 137 142h307c91.333 2 137 -45.333 137 -142v-615z" />
    <glyph glyph-name="B" unicode="B" horiz-adv-x="612" 
d="M367 467c26.667 0 40 12 40 36v22c0 29.333 -13.333 44 -40 44h-164v-102h164zM363 191c29.333 0 44 14 44 42v18c0 28.667 -13.333 43 -40 43h-164v-103h160zM579 141c0 -94 -45.667 -141.001 -137 -141.001h-412v760h412c91.333 0 137 -47.333 137 -142v-120
c0.666992 -68.667 -28 -108 -86 -118c59.333 -13.333 88 -49.666 86 -108.999v-130v0z" />
    <glyph glyph-name="C" unicode="C" horiz-adv-x="540" 
d="M202 233c0 -28 14.667 -42 44 -42h264v-191h-343c-91.333 0 -137 47 -137 141v477c0 94.667 45.667 142 137 142h343v-191h-267c-27.333 0 -41 -14.667 -41 -44v-292v0z" />
    <glyph glyph-name="D" unicode="D" horiz-adv-x="609" 
d="M363 191c29.333 0 44 14 44 42v292c0 29.333 -13.333 44 -40 44h-164v-378h160zM579 141c0 -94 -45.667 -141 -137 -141h-412v760h412c91.333 0 137 -47.333 137 -142v-477v0z" />
    <glyph glyph-name="E" unicode="E" horiz-adv-x="525" 
d="M495 0h-465v757h465v-188h-291v-102h206v-173h-206v-103h291v-191z" />
    <glyph glyph-name="F" unicode="F" horiz-adv-x="525" 
d="M30 757h465v-188h-291v-102h206v-173h-206v-294h-174v757z" />
    <glyph glyph-name="G" unicode="G" horiz-adv-x="610" 
d="M288 467h291v-467h-412c-91.333 0 -137 47 -137 141v477c0 94.667 45.667 142 137 142h413v-191h-337c-27.333 0 -41 -14.667 -41 -44v-292c0 -28 14.667 -42 44 -42h161v103h-119v173z" />
    <glyph glyph-name="H" unicode="H" horiz-adv-x="609" 
d="M579 0h-172v294h-204v-294h-173v760h173v-293h204v293h172v-760z" />
    <glyph glyph-name="I" unicode="I" horiz-adv-x="233" 
d="M203 0h-173v760h173v-760z" />
    <glyph glyph-name="J" unicode="J" horiz-adv-x="452" 
d="M30 0v191h176c29.333 0 44 14 44 42v527h172v-619c0 -94 -45.667 -141 -137 -141h-255z" />
    <glyph glyph-name="K" unicode="K" horiz-adv-x="645" 
d="M328 447l317 -447l-212 1l-230 345v-346h-173v760h173v-237l185 237h204z" />
    <glyph glyph-name="L" unicode="L" horiz-adv-x="510" 
d="M480 0h-450v760h173v-569h277v-191z" />
    <glyph glyph-name="M" unicode="M" horiz-adv-x="757" 
d="M726 0h-168v291l-96 -291h-162l-97 291v-291h-171l-2 760h156l194 -544l192 544h155z" />
    <glyph glyph-name="N" unicode="N" horiz-adv-x="641" 
d="M611 0h-108l-300 402v-402h-173v760h108l301 -405v405h172v-760z" />
    <glyph glyph-name="O" unicode="O" horiz-adv-x="609" 
d="M361 191c30.667 0 46 15.667 46 47v288c0 28.667 -16 43 -48 43h-116c-26.667 0 -40 -15 -40 -45v-284c0 -32.667 13 -49 39 -49h119v0zM579 137c0 -92.667 -44.667 -138.333 -134 -137h-275c-93.333 -0 -140 44.333 -140 133v489c0 92 45.667 138 137 138h276
c90 -0.666992 135.333 -47 136 -139v-484v0z" />
    <glyph glyph-name="P" unicode="P" horiz-adv-x="609" 
d="M367 467c26.667 0 40 12 40 36v22c0 29.333 -13.333 44 -40 44h-164v-102h164zM203 294v-294h-173v760h412c91.333 0 137 -47.333 137 -142v-199c0 -83.333 -45.667 -125 -137 -125h-239z" />
    <glyph glyph-name="Q" unicode="Q" horiz-adv-x="657" 
d="M361 191c30.667 0 46 15.667 46 47v288c0 28.667 -16 43 -48 43h-116c-26.667 0 -40 -15 -40 -45v-284c0 -32.667 13 -49 39 -49h119v0zM579 137c0 -39.333 -8.66699 -66 -26 -80l74 -77l-101 -104l-127 124h-229c-93.333 -0 -140 44.333 -140 133v489
c0 92 45.667 138 137 138h276c90 -0.666992 135.333 -47 136 -139v-484v0z" />
    <glyph glyph-name="R" unicode="R" horiz-adv-x="612" 
d="M367 467c26.667 0 40 12 40 36v22c0 29.333 -13.333 44 -40 44h-164v-102h164zM579 0l-172 -0.000976562v251c0 28.667 -13.333 43 -40 43h-164v-294h-173v760h412c91.333 0 137 -47.333 137 -142v-120c0.666992 -68.667 -28 -108 -86 -118
c59.333 -13.333 88 -49.666 86 -108.999v-271z" />
    <glyph glyph-name="S" unicode="S" horiz-adv-x="609" 
d="M579 148c0 -98.667 -48.333 -148 -145 -148h-404v191h335c28 0 42 15 42 45v14c0 29.333 -14 44 -42 44h-195c-93.333 0 -140 44.333 -140 133v188c0 96.667 45 145 135 145h414v-191h-333c-28.667 0 -43 -14 -43 -42v-11c0 -32.667 14 -49 42 -49h201
c88.667 0 133 -44.667 133 -134v-185v0z" />
    <glyph glyph-name="T" unicode="T" horiz-adv-x="521" 
d="M491 569h-142l-1 -569h-172l1 569h-147v191h461v-191z" />
    <glyph glyph-name="U" unicode="U" horiz-adv-x="609" 
d="M361 191c30.667 0 46 15.668 46 47.001v522h172v-623c0 -92.667 -44.667 -138.334 -134 -137.001h-275c-93.333 -0 -140 44.333 -140 133v627h173v-520c0 -32.667 13 -49 39 -49h119v0z" />
    <glyph glyph-name="V" unicode="V" horiz-adv-x="622" 
d="M612 757l-225 -757h-154l-226 757h181l122 -499l121 499h181z" />
    <glyph glyph-name="W" unicode="W" horiz-adv-x="950" 
d="M955 757l-237 -757h-163l-77 374l-78 -374h-163l-237 757h190l122 -463l96 463h139l95 -463l124 463h189z" />
    <glyph glyph-name="X" unicode="X" horiz-adv-x="708" 
d="M451 382l225 -382h-183l-139 269l-138 -269h-186l227 382l-227 375h186l138 -261l139 261h185z" />
    <glyph glyph-name="Y" unicode="Y" horiz-adv-x="597" 
d="M595 757l-217 -445v-312h-172v312l-217 445h176l127 -295l128 295h175z" />
    <glyph glyph-name="Z" unicode="Z" horiz-adv-x="631" 
d="M601 0h-571v101l315 468h-315v191h569v-104l-324 -465h326v-191z" />
    <glyph glyph-name="bracketleft" unicode="[" horiz-adv-x="293" 
d="M176 719v-678h87v-191h-233v1060h233v-191h-87z" />
    <glyph glyph-name="backslash" unicode="\" horiz-adv-x="505" 
d="M475 0h-155l-290 760h155z" />
    <glyph glyph-name="bracketright" unicode="]" horiz-adv-x="293" 
d="M30 719v191h233v-1060h-233v191h87v678h-87z" />
    <glyph glyph-name="underscore" unicode="_" horiz-adv-x="641" 
d="M611 -116h-581v118h581v-118z" />
    <glyph glyph-name="grave" unicode="`" horiz-adv-x="609" 
d="M227 824c-16.667 8 -25 20 -25 36c0 10.667 3.66699 20.167 11 28.5s16.666 12.5 27.999 12.5c4.66699 0 11.334 -1.66699 20.001 -5l129 -61c16.667 -8 25 -20 25 -36c0 -10.667 -3.66699 -20.167 -11 -28.5s-16.666 -12.5 -27.999 -12.5
c-4.66699 0 -11.334 1.66699 -20.001 5l-129 61v0z" />
    <glyph glyph-name="a" unicode="a" 
d="M388 199c0 15.333 -8.33301 23 -25 23h-134c-18 0 -27 -7.33301 -27 -22v-4c0 -14.667 9 -22 27 -22h134c16.667 0 25 7.33301 25 22v3zM30 209c0 105.333 43.668 158 131.001 158h227v15c0 21.333 -10.667 32 -32 32h-303v173h368c93.333 0 140 -46 140 -138v-311
c0 -92 -46.667 -138 -140 -138h-257c-88.667 0 -133.334 46 -134.001 138v71v0z" />
    <glyph glyph-name="b" unicode="b" horiz-adv-x="592" 
d="M562 446v-310c-0.666992 -90.667 -46.667 -136 -138 -136h-394v762h172v-176h222c90.667 0 136.667 -46.667 138 -140zM203 413v-240h143c28.667 0 43 14.667 43 44v152c0 29.333 -15 44 -45 44h-141z" />
    <glyph glyph-name="c" unicode="c" horiz-adv-x="493" 
d="M30 449c0 92 45.667 138 137 138h296v-174h-220c-26.667 0 -40 -15 -40 -45v-146c0 -32.667 13 -49 39 -49h221v-173h-293c-93.333 -0 -140 44.333 -140 133v316v0z" />
    <glyph glyph-name="d" unicode="d" horiz-adv-x="592" 
d="M248 413c-30 0 -45 -14.667 -45 -44v-152c0 -29.333 14.333 -44 43 -44h143v240h-141zM30 446c1.33301 93.333 47.333 140 138 140h222v176h172v-762h-394c-91.333 -0 -137.333 45.333 -138 136v310v0z" />
    <glyph glyph-name="e" unicode="e" 
d="M203 388c0 -15.333 8.33301 -23 25 -23h134c18 0 27 7.33301 27 22v4c0 14.667 -9 22 -27 22h-134c-16.667 0 -25 -7.33301 -25 -22v-3zM561 378c0 -105.333 -43.667 -158 -131 -158h-227v-15c0 -21.333 10.667 -32 32 -32h303v-173h-368c-93.333 0 -140 46 -140 138v311
c0 92 46.667 138 140 138h257c88 0 132.667 -46 134 -138v-71v0z" />
    <glyph glyph-name="f" unicode="f" horiz-adv-x="392" 
d="M243 586c-27.333 0 -40.333 -14 -39 -42v-5h104v-126h-104v-413h-174v621c0 20 3.33301 38.333 10 55s16.167 31.167 28.5 43.5s27 22 44 29s35.5 10.5 55.5 10.5h194v-173h-119v0z" />
    <glyph glyph-name="g" unicode="g" horiz-adv-x="592" 
d="M389 413h-143c-28.667 0 -43 -14.667 -43 -44v-152c0 -29.333 15 -44 45 -44h141v240zM30 450c0.666992 90.667 46.667 136 138 136h394v-653c-1.33301 -101.333 -54 -152 -158 -152h-374v174h325c22.667 0 34 10 34 30v15h-221c-90.667 0 -136.667 46.667 -138 140v310z
" />
    <glyph glyph-name="h" unicode="h" horiz-adv-x="592" 
d="M389 369c0 29.333 -15 44 -45 44h-141v-413h-173v762h172v-176h222c90.667 0 136.667 -46.667 138 -140l-1 -446h-172v369z" />
    <glyph glyph-name="i" unicode="i" horiz-adv-x="233" 
d="M202 674c0 -26 -12.667 -39 -38 -39h-98c-24 0 -36 13 -36 39v47c0 26 13.333 39 40 39h94c25.333 0 38 -13 38 -39v-47zM30 0v587h173v-587h-173z" />
    <glyph glyph-name="j" unicode="j" horiz-adv-x="319" 
d="M289 674c0 -26 -12.667 -39 -38 -39h-98c-24 0 -36 13 -36 39v47c0 26 13.333 39 40 39h94c25.333 0 38 -13 38 -39v-47zM289 -45c0 -116 -47.667 -174 -143 -174h-116v174h59c18 0 27 10 27 30v602h173v-632v0z" />
    <glyph glyph-name="k" unicode="k" horiz-adv-x="564" 
d="M306 299l228 -299h-215l-116 173v-173h-173v759h173v-346l116 174h215z" />
    <glyph glyph-name="l" unicode="l" horiz-adv-x="233" 
d="M203 0h-173v759h173v-759z" />
    <glyph glyph-name="m" unicode="m" horiz-adv-x="850" 
d="M820 0l-172 -0.00195312v369c-1.33301 28.667 -16.333 43.334 -45 44.001h-92v-413h-172v413h-96c-27.333 0 -40.333 -14 -39 -42v-371h-174v448c0 20 3.33301 38.333 10 55s16.167 31.167 28.5 43.5s27 22 44 29s35.5 10.5 55.5 10.5h515
c21.333 0 40.5 -3.66699 57.5 -11s31.333 -17.166 43 -29.499s20.667 -27 27 -44s9.5 -34.833 9.5 -53.5v-448z" />
    <glyph glyph-name="n" unicode="n" 
d="M561 448v-448.002h-172v369c-1.33301 28.667 -16.333 43.334 -45 44.001h-101c-27.333 0 -40.333 -14 -39 -42v-371h-174v448c0 20 3.33301 38.333 10 55s16.167 31.167 28.5 43.5s27 22 44 29s35.5 10.5 55.5 10.5h256c21.333 0 40.5 -3.66699 57.5 -11
s31.333 -17.166 43 -29.499s20.667 -27 27 -44s9.5 -34.833 9.5 -53.5z" />
    <glyph glyph-name="o" unicode="o" 
d="M343 173c30.667 0 46 15.667 46 47v150c0 28.667 -16 43 -48 43h-98c-26.667 0 -40 -15 -40 -45v-146c0 -32.667 13 -49 39 -49h101v0zM561 137c0 -92.667 -44.667 -138.333 -134 -137h-257c-93.333 -0 -140 44.333 -140 133v316c0 92 45.667 138 137 138h258
c90 -0.666992 135.333 -47 136 -139v-311v0z" />
    <glyph glyph-name="p" unicode="p" horiz-adv-x="592" 
d="M344 173c30 0 45 14.667 45 44v152c0 29.333 -14.333 44 -43 44h-143v-240h141zM562 140c-1.33301 -93.333 -47.333 -140 -138 -140h-222v-176h-172v762h394c91.333 0 137.333 -45.333 138 -136v-310v0z" />
    <glyph glyph-name="q" unicode="q" horiz-adv-x="592" 
d="M30 140v310c0.666992 90.667 46.667 136 138 136h394v-762h-172v176h-222c-90.667 0 -136.667 46.667 -138 140zM389 173v240h-143c-28.667 0 -43 -14.667 -43 -44v-152c0 -29.333 15 -44 45 -44h141z" />
    <glyph glyph-name="r" unicode="r" horiz-adv-x="392" 
d="M243 413c-27.333 0 -40.333 -14 -39 -42v-371h-174v448c0 20 3.33301 38.333 10 55s16.167 31.167 28.5 43.5s27 22 44 29s35.5 10.5 55.5 10.5h194v-173h-119v0z" />
    <glyph glyph-name="s" unicode="s" 
d="M560 138c0.666992 -92 -40.667 -138 -124 -138h-397v173h350v34h-222c-91.333 0 -137 46 -137 138v104c0 91.333 45.333 137 136 137h395v-173h-359v-33h234c84 1.33301 125.333 -44.667 124 -138v-104z" />
    <glyph glyph-name="t" unicode="t" horiz-adv-x="294" 
d="M173 0c-95.333 0 -143 43 -143 129v630h173v-173h61v-173h-61v-206c0 -22.667 8.66699 -34 26 -34h34v-173h-90z" />
    <glyph glyph-name="u" unicode="u" 
d="M561 138c0 -19.333 -3.16699 -37.335 -9.5 -54.002s-15.333 -31.167 -27 -43.5s-26 -22.166 -43 -29.499s-36.167 -11 -57.5 -11h-256c-20 0 -38.5 3.5 -55.5 10.5s-31.667 16.667 -44 29s-21.833 26.833 -28.5 43.5s-10 35 -10 55v449h174v-372
c-1.33301 -28 11.667 -42 39 -42h101c28.667 0.666992 43.667 15.334 45 44.001v370h172v-449v0z" />
    <glyph glyph-name="v" unicode="v" horiz-adv-x="633" 
d="M622 587l-232 -587h-151l-232 587h182l125 -336l125 336h183z" />
    <glyph glyph-name="w" unicode="w" horiz-adv-x="949" 
d="M953 587l-244 -587h-158l-80 232l-81 -232h-158l-243 587h191l125 -329l97 329h137l97 -329l125 329h192z" />
    <glyph glyph-name="x" unicode="x" horiz-adv-x="694" 
d="M449 293l215 -293h-214l-103 174l-102 -174h-215l214 293l-214 294h215l102 -174l103 174h212z" />
    <glyph glyph-name="y" unicode="y" horiz-adv-x="604" 
d="M608 587l-310 -800h-176l89 249l-217 551h183l123 -333l125 333h183z" />
    <glyph glyph-name="z" unicode="z" horiz-adv-x="641" 
d="M611 0h-581v100l294 314h-294v173h581v-100l-295 -314h295v-173z" />
    <glyph glyph-name="bar" unicode="|" horiz-adv-x="161" 
d="M131 -145h-101v895h101v-895z" />
    <glyph glyph-name="dieresis" unicode="&#xa8;" horiz-adv-x="609" 
d="M345 817c0 15.333 5.5 28.666 16.5 39.999s24.5 17 40.5 17s29.667 -5.66699 41 -17s17 -24.666 17 -39.999s-5.66699 -28.666 -17 -39.999s-25 -17 -41 -17s-29.5 5.66699 -40.5 17s-16.5 24.666 -16.5 39.999zM195 817c0 15.333 5.5 28.666 16.5 39.999
s24.5 17 40.5 17s29.667 -5.66699 41 -17s17 -24.666 17 -39.999s-5.66699 -28.666 -17 -39.999s-25 -17 -41 -17s-29.5 5.66699 -40.5 17s-16.5 24.666 -16.5 39.999z" />
    <glyph glyph-name="degree" unicode="&#xb0;" horiz-adv-x="500" 
d="M249 839c0 -15.333 5.33301 -28.333 16 -39s23.667 -16 39 -16s28.5 5.33301 39.5 16s16.5 23.667 16.5 39s-5.5 28.5 -16.5 39.5s-24.167 16.5 -39.5 16.5s-28.333 -5.5 -39 -16.5s-16 -24.167 -16 -39.5zM208 836c0 12.667 2.5 24.834 7.5 36.501
s11.833 21.834 20.5 30.501s18.667 15.5 30 20.5s23.666 7.5 36.999 7.5c12.667 0 24.834 -2.5 36.501 -7.5s21.834 -11.833 30.501 -20.5s15.5 -18.834 20.5 -30.501s7.5 -23.834 7.5 -36.501c0 -13.333 -2.5 -25.666 -7.5 -36.999s-11.833 -21.333 -20.5 -30
s-18.834 -15.5 -30.501 -20.5s-23.834 -7.5 -36.501 -7.5c-13.333 0 -25.666 2.5 -36.999 7.5s-21.333 11.833 -30 20.5s-15.5 18.667 -20.5 30s-7.5 23.666 -7.5 36.999z" />
    <glyph glyph-name="acute" unicode="&#xb4;" horiz-adv-x="609" 
d="M389 822l-129 -61c-8.66699 -3.33301 -15.334 -5 -20.001 -5c-11.333 0 -20.666 4.16699 -27.999 12.5s-11 17.833 -11 28.5c0 16 8.33301 28 25 36l129 61c8.66699 3.33301 15.334 5 20.001 5c11.333 0 20.666 -4.16699 27.999 -12.5s11 -17.833 11 -28.5
c0 -16 -8.33301 -28 -25 -36z" />
    <glyph glyph-name="cedilla" unicode="&#xb8;" horiz-adv-x="223" 
 />
    <glyph glyph-name="guillemotright" unicode="&#xbb;" horiz-adv-x="500" 
 />
    <glyph glyph-name="Aacute" unicode="&#xc1;" horiz-adv-x="641" 
d="M203 490h236v89h-236v-89zM611 0h-172v312h-236v-312h-173v615c0 96.667 45.667 144 137 142h307c91.333 2 137 -45.333 137 -142v-615zM389 822l-129 -61c-8.66699 -3.33301 -15.334 -5 -20.001 -5c-11.333 0 -20.666 4.16699 -27.999 12.5s-11 17.833 -11 28.5
c0 16 8.33301 28 25 36l129 61c8.66699 3.33301 15.334 5 20.001 5c11.333 0 20.666 -4.16699 27.999 -12.5s11 -17.833 11 -28.5c0 -16 -8.33301 -28 -25 -36z" />
    <glyph glyph-name="Acircumflex" unicode="&#xc2;" horiz-adv-x="641" 
d="M203 490h236v89h-236v-89zM611 0h-172v312h-236v-312h-173v615c0 96.667 45.667 144 137 142h307c91.333 2 137 -45.333 137 -142v-615zM248 768c-10.667 -8.66699 -21.168 -12.001 -31.501 -10.001s-18.666 6.83301 -24.999 14.5s-9.5 16.834 -9.5 27.501
c0 11.333 5.33301 21.333 16 30l77 60c29.333 24 55.666 24.667 78.999 2l77 -60c10.667 -8.66699 16 -18.667 16 -30c0 -7.33301 -2 -14.333 -6 -21s-9.16699 -12 -15.5 -16s-13.666 -5.83301 -21.999 -5.5s-16.5 3.83301 -24.5 10.5l-66 51l-65 -53v0z" />
    <glyph glyph-name="Adieresis" unicode="&#xc4;" horiz-adv-x="641" 
d="M203 490h236v89h-236v-89zM611 0h-172v312h-236v-312h-173v615c0 96.667 45.667 144 137 142h307c91.333 2 137 -45.333 137 -142v-615zM345 817c0 15.333 5.5 28.666 16.5 39.999s24.5 17 40.5 17s29.667 -5.66699 41 -17s17 -24.666 17 -39.999
s-5.66699 -28.666 -17 -39.999s-25 -17 -41 -17s-29.5 5.66699 -40.5 17s-16.5 24.666 -16.5 39.999zM195 817c0 15.333 5.5 28.666 16.5 39.999s24.5 17 40.5 17s29.667 -5.66699 41 -17s17 -24.666 17 -39.999s-5.66699 -28.666 -17 -39.999s-25 -17 -41 -17
s-29.5 5.66699 -40.5 17s-16.5 24.666 -16.5 39.999z" />
    <glyph glyph-name="Ccedilla" unicode="&#xc7;" horiz-adv-x="540" 
d="M265 9c-8 8.66699 -12 18.333 -12 29c0 11.333 4 20.833 12 28.5s17.333 11.5 28 11.5s20.667 -5 30 -15c13.333 -12 23.166 -26.5 29.499 -43.5s9.5 -34.5 9.5 -52.5c0 -21.333 -4.5 -41.5 -13.5 -60.5s-22.5 -34.167 -40.5 -45.5c-8 -6 -16.667 -9 -26 -9
c-11.333 0 -20.666 4 -27.999 12s-11 17.333 -11 28c0 12.667 5.66699 23.667 17 33c7.33301 4.66699 12.833 10.667 16.5 18s5.5 15.333 5.5 24c0 16.667 -5.66699 30.667 -17 42zM202 232.999c0 -28 14.667 -42 44 -42h264v-191h-343c-91.333 0 -137 47 -137 141v477
c0 94.667 45.667 142 137 142h343v-191h-267c-27.333 0 -41 -14.667 -41 -44v-292v0z" />
    <glyph glyph-name="Eacute" unicode="&#xc9;" horiz-adv-x="525" 
d="M495 0h-465v757h465v-188h-291v-102h206v-173h-206v-103h291v-191zM389 822l-129 -61c-8.66699 -3.33301 -15.334 -5 -20.001 -5c-11.333 0 -20.666 4.16699 -27.999 12.5s-11 17.833 -11 28.5c0 16 8.33301 28 25 36l129 61c8.66699 3.33301 15.334 5 20.001 5
c11.333 0 20.666 -4.16699 27.999 -12.5s11 -17.833 11 -28.5c0 -16 -8.33301 -28 -25 -36z" />
    <glyph glyph-name="Edieresis" unicode="&#xcb;" horiz-adv-x="525" 
d="M495 0h-465v757h465v-188h-291v-102h206v-173h-206v-103h291v-191zM296 817c0 15.333 5.5 28.666 16.5 39.999s24.5 17 40.5 17s29.667 -5.66699 41 -17s17 -24.666 17 -39.999s-5.66699 -28.666 -17 -39.999s-25 -17 -41 -17s-29.5 5.66699 -40.5 17
s-16.5 24.666 -16.5 39.999zM146 817c0 15.333 5.5 28.666 16.5 39.999s24.5 17 40.5 17s29.667 -5.66699 41 -17s17 -24.666 17 -39.999s-5.66699 -28.666 -17 -39.999s-25 -17 -41 -17s-29.5 5.66699 -40.5 17s-16.5 24.666 -16.5 39.999z" />
    <glyph glyph-name="Iacute" unicode="&#xcd;" horiz-adv-x="233" 
d="M203 0h-173v760h173v-760zM210 822l-129 -61c-8.66699 -3.33301 -15.334 -5 -20.001 -5c-11.333 0 -20.666 4.16699 -27.999 12.5s-11 17.833 -11 28.5c0 16 8.33301 28 25 36l129 61c8.66699 3.33301 15.334 5 20.001 5c11.333 0 20.666 -4.16699 27.999 -12.5
s11 -17.833 11 -28.5c0 -16 -8.33301 -28 -25 -36z" />
    <glyph glyph-name="Icircumflex" unicode="&#xce;" horiz-adv-x="233" 
d="M203 0h-173v760h173v-760zM55 768c-10.667 -8.66699 -21.168 -12.001 -31.501 -10.001s-18.666 6.83301 -24.999 14.5s-9.5 16.834 -9.5 27.501c0 11.333 5.33301 21.333 16 30l77 60c29.333 24 55.666 24.667 78.999 2l77 -60c10.667 -8.66699 16 -18.667 16 -30
c0 -7.33301 -2 -14.333 -6 -21s-9.16699 -12 -15.5 -16s-13.666 -5.83301 -21.999 -5.5s-16.5 3.83301 -24.5 10.5l-66 51l-65 -53v0z" />
    <glyph glyph-name="Oacute" unicode="&#xd3;" horiz-adv-x="609" 
d="M361 191c30.667 0 46 15.667 46 47v288c0 28.667 -16 43 -48 43h-116c-26.667 0 -40 -15 -40 -45v-284c0 -32.667 13 -49 39 -49h119v0zM579 137c0 -92.667 -44.667 -138.333 -134 -137h-275c-93.333 -0 -140 44.333 -140 133v489c0 92 45.667 138 137 138h276
c90 -0.666992 135.333 -47 136 -139v-484v0zM389 822.001l-129 -61c-8.66699 -3.33301 -15.334 -5 -20.001 -5c-11.333 0 -20.666 4.16699 -27.999 12.5s-11 17.833 -11 28.5c0 16 8.33301 28 25 36l129 61c8.66699 3.33301 15.334 5 20.001 5
c11.333 0 20.666 -4.16699 27.999 -12.5s11 -17.833 11 -28.5c0 -16 -8.33301 -28 -25 -36z" />
    <glyph glyph-name="Ocircumflex" unicode="&#xd4;" horiz-adv-x="609" 
d="M361 191c30.667 0 46 15.667 46 47v288c0 28.667 -16 43 -48 43h-116c-26.667 0 -40 -15 -40 -45v-284c0 -32.667 13 -49 39 -49h119v0zM579 137c0 -92.667 -44.667 -138.333 -134 -137h-275c-93.333 -0 -140 44.333 -140 133v489c0 92 45.667 138 137 138h276
c90 -0.666992 135.333 -47 136 -139v-484v0zM248 768.001c-10.667 -8.66699 -21.168 -12.001 -31.501 -10.001s-18.666 6.83301 -24.999 14.5s-9.5 16.834 -9.5 27.501c0 11.333 5.33301 21.333 16 30l77 60c29.333 24 55.666 24.667 78.999 2l77 -60
c10.667 -8.66699 16 -18.667 16 -30c0 -7.33301 -2 -14.333 -6 -21s-9.16699 -12 -15.5 -16s-13.666 -5.83301 -21.999 -5.5s-16.5 3.83301 -24.5 10.5l-66 51l-65 -53v0z" />
    <glyph glyph-name="Odieresis" unicode="&#xd6;" horiz-adv-x="609" 
d="M361 191c30.667 0 46 15.667 46 47v288c0 28.667 -16 43 -48 43h-116c-26.667 0 -40 -15 -40 -45v-284c0 -32.667 13 -49 39 -49h119v0zM579 137c0 -92.667 -44.667 -138.333 -134 -137h-275c-93.333 -0 -140 44.333 -140 133v489c0 92 45.667 138 137 138h276
c90 -0.666992 135.333 -47 136 -139v-484v0zM324 817.001c0 15.333 5.5 28.666 16.5 39.999s24.5 17 40.5 17s29.667 -5.66699 41 -17s17 -24.666 17 -39.999s-5.66699 -28.666 -17 -39.999s-25 -17 -41 -17s-29.5 5.66699 -40.5 17s-16.5 24.666 -16.5 39.999zM174 817.001
c0 15.333 5.5 28.666 16.5 39.999s24.5 17 40.5 17s29.667 -5.66699 41 -17s17 -24.666 17 -39.999s-5.66699 -28.666 -17 -39.999s-25 -17 -41 -17s-29.5 5.66699 -40.5 17s-16.5 24.666 -16.5 39.999z" />
    <glyph glyph-name="Uacute" unicode="&#xda;" horiz-adv-x="609" 
d="M361 191c30.667 0 46 15.668 46 47.001v522h172v-623c0 -92.667 -44.667 -138.334 -134 -137.001h-275c-93.333 -0 -140 44.333 -140 133v627h173v-520c0 -32.667 13 -49 39 -49h119v0zM389 822.001l-129 -61c-8.66699 -3.33301 -15.334 -5 -20.001 -5
c-11.333 0 -20.666 4.16699 -27.999 12.5s-11 17.833 -11 28.5c0 16 8.33301 28 25 36l129 61c8.66699 3.33301 15.334 5 20.001 5c11.333 0 20.666 -4.16699 27.999 -12.5s11 -17.833 11 -28.5c0 -16 -8.33301 -28 -25 -36z" />
    <glyph glyph-name="Udieresis" unicode="&#xdc;" horiz-adv-x="609" 
d="M361 191c30.667 0 46 15.668 46 47.001v522h172v-623c0 -92.667 -44.667 -138.334 -134 -137.001h-275c-93.333 -0 -140 44.333 -140 133v627h173v-520c0 -32.667 13 -49 39 -49h119v0zM324 817.001c0 15.333 5.5 28.666 16.5 39.999s24.5 17 40.5 17
s29.667 -5.66699 41 -17s17 -24.666 17 -39.999s-5.66699 -28.666 -17 -39.999s-25 -17 -41 -17s-29.5 5.66699 -40.5 17s-16.5 24.666 -16.5 39.999zM174 817.001c0 15.333 5.5 28.666 16.5 39.999s24.5 17 40.5 17s29.667 -5.66699 41 -17s17 -24.666 17 -39.999
s-5.66699 -28.666 -17 -39.999s-25 -17 -41 -17s-29.5 5.66699 -40.5 17s-16.5 24.666 -16.5 39.999z" />
    <glyph glyph-name="Yacute" unicode="&#xdd;" horiz-adv-x="597" 
d="M595 757l-217 -445v-312h-172v312l-217 445h176l127 -295l128 295h175zM389 822l-129 -61c-8.66699 -3.33301 -15.334 -5 -20.001 -5c-11.333 0 -20.666 4.16699 -27.999 12.5s-11 17.833 -11 28.5c0 16 8.33301 28 25 36l129 61c8.66699 3.33301 15.334 5 20.001 5
c11.333 0 20.666 -4.16699 27.999 -12.5s11 -17.833 11 -28.5c0 -16 -8.33301 -28 -25 -36z" />
    <glyph glyph-name="FL00DFh" unicode="&#xdf;" horiz-adv-x="615" 
d="M33 618c0 94.667 45.667 141.999 137 141.999h275c91.333 0 137 -47.333 137 -142v-120c0.666992 -68.667 -28 -108 -86 -118c59.333 -13.333 88 -49.666 86 -108.999v-130c0 -94 -45.667 -141 -137 -141h-135v191h56c29.333 0 44 14 44 42v18
c0 28.667 -13.333 43 -40 43h-60v173h60c26.667 0 40 12 40 36v22c0 29.333 -13.333 44 -40 44h-125c-24 0 -37.333 -12 -40 -36v-533h-172v618z" />
    <glyph glyph-name="aacute" unicode="&#xe1;" 
d="M388 199c0 15.333 -8.33301 23 -25 23h-134c-18 0 -27 -7.33301 -27 -22v-4c0 -14.667 9 -22 27 -22h134c16.667 0 25 7.33301 25 22v3zM30 209c0 105.333 43.668 158 131.001 158h227v15c0 21.333 -10.667 32 -32 32h-303v173h368c93.333 0 140 -46 140 -138v-311
c0 -92 -46.667 -138 -140 -138h-257c-88.667 0 -133.334 46 -134.001 138v71v0zM389.001 663l-129 -61c-8.66699 -3.33301 -15.334 -5 -20.001 -5c-11.333 0 -20.666 4.16699 -27.999 12.5s-11 17.833 -11 28.5c0 16 8.33301 28 25 36l129 61
c8.66699 3.33301 15.334 5 20.001 5c11.333 0 20.666 -4.16699 27.999 -12.5s11 -17.833 11 -28.5c0 -16 -8.33301 -28 -25 -36z" />
    <glyph glyph-name="acircumflex" unicode="&#xe2;" 
d="M388 199c0 15.333 -8.33301 23 -25 23h-134c-18 0 -27 -7.33301 -27 -22v-4c0 -14.667 9 -22 27 -22h134c16.667 0 25 7.33301 25 22v3zM30 209c0 105.333 43.668 158 131.001 158h227v15c0 21.333 -10.667 32 -32 32h-303v173h368c93.333 0 140 -46 140 -138v-311
c0 -92 -46.667 -138 -140 -138h-257c-88.667 0 -133.334 46 -134.001 138v71v0zM248.001 609c-10.667 -8.66699 -21.168 -12.001 -31.501 -10.001s-18.666 6.83301 -24.999 14.5s-9.5 16.834 -9.5 27.501c0 11.333 5.33301 21.333 16 30l77 60
c29.333 24 55.666 24.667 78.999 2l77 -60c10.667 -8.66699 16 -18.667 16 -30c0 -7.33301 -2 -14.333 -6 -21s-9.16699 -12 -15.5 -16s-13.666 -5.83301 -21.999 -5.5s-16.5 3.83301 -24.5 10.5l-66 51l-65 -53v0z" />
    <glyph glyph-name="adieresis" unicode="&#xe4;" 
d="M388 199c0 15.333 -8.33301 23 -25 23h-134c-18 0 -27 -7.33301 -27 -22v-4c0 -14.667 9 -22 27 -22h134c16.667 0 25 7.33301 25 22v3zM30 209c0 105.333 43.668 158 131.001 158h227v15c0 21.333 -10.667 32 -32 32h-303v173h368c93.333 0 140 -46 140 -138v-311
c0 -92 -46.667 -138 -140 -138h-257c-88.667 0 -133.334 46 -134.001 138v71v0zM316.001 658c0 15.333 5.5 28.666 16.5 39.999s24.5 17 40.5 17s29.667 -5.66699 41 -17s17 -24.666 17 -39.999s-5.66699 -28.666 -17 -39.999s-25 -17 -41 -17s-29.5 5.66699 -40.5 17
s-16.5 24.666 -16.5 39.999zM166.001 658c0 15.333 5.5 28.666 16.5 39.999s24.5 17 40.5 17s29.667 -5.66699 41 -17s17 -24.666 17 -39.999s-5.66699 -28.666 -17 -39.999s-25 -17 -41 -17s-29.5 5.66699 -40.5 17s-16.5 24.666 -16.5 39.999z" />
    <glyph glyph-name="ccedilla" unicode="&#xe7;" horiz-adv-x="493" 
d="M235 -112c-0.666992 -0.666992 -1 -1.33398 -1 -2.00098c0 0.666992 0.333008 1.33398 1 2.00098zM251 18c-0.666992 2.66699 -1.00098 5.99902 -1.00098 9.99902c0 12.667 4.16699 22.334 12.5 29.001s17.5 10 27.5 10c8.66699 0 16.667 -2.66699 24 -8
s12.333 -13.666 15 -24.999c2.66699 -12 4.83398 -24.167 6.50098 -36.5s2.5 -24.833 2.5 -37.5c0 -19.333 -2.33301 -38.166 -7 -56.499s-13 -35.166 -25 -50.499c-8 -10.667 -18 -16 -30 -16c-10.667 0 -20.5 3.66699 -29.5 11s-13.5 16.666 -13.5 27.999
c0 4 0.333008 7 1 9v-2v-4c1.33301 2.66699 2.83301 5.16699 4.5 7.5l4.5 6.5l-5 2c7.33301 9.33301 12.5 19.666 15.5 30.999s4.5 22.666 4.5 33.999c0 10 -0.666992 19.833 -2 29.5s-3 19.167 -5 28.5zM29.999 448.999c0 92 45.667 138 137 138h296v-174h-220
c-26.667 0 -40 -15 -40 -45v-146c0 -32.667 13 -49 39 -49h221v-173h-293c-93.333 0 -140 44.333 -140 133v316v0z" />
    <glyph glyph-name="eacute" unicode="&#xe9;" 
d="M203 388c0 -15.333 8.33301 -23 25 -23h134c18 0 27 7.33301 27 22v4c0 14.667 -9 22 -27 22h-134c-16.667 0 -25 -7.33301 -25 -22v-3zM561 378c0 -105.333 -43.667 -158 -131 -158h-227v-15c0 -21.333 10.667 -32 32 -32h303v-173h-368c-93.333 0 -140 46 -140 138v311
c0 92 46.667 138 140 138h257c88 0 132.667 -46 134 -138v-71v0zM389 663l-129 -61c-8.66699 -3.33301 -15.334 -5 -20.001 -5c-11.333 0 -20.666 4.16699 -27.999 12.5s-11 17.833 -11 28.5c0 16 8.33301 28 25 36l129 61c8.66699 3.33301 15.334 5 20.001 5
c11.333 0 20.666 -4.16699 27.999 -12.5s11 -17.833 11 -28.5c0 -16 -8.33301 -28 -25 -36z" />
    <glyph glyph-name="edieresis" unicode="&#xeb;" 
d="M203 388c0 -15.333 8.33301 -23 25 -23h134c18 0 27 7.33301 27 22v4c0 14.667 -9 22 -27 22h-134c-16.667 0 -25 -7.33301 -25 -22v-3zM561 378c0 -105.333 -43.667 -158 -131 -158h-227v-15c0 -21.333 10.667 -32 32 -32h303v-173h-368c-93.333 0 -140 46 -140 138v311
c0 92 46.667 138 140 138h257c88 0 132.667 -46 134 -138v-71v0zM306 658c0 15.333 5.5 28.666 16.5 39.999s24.5 17 40.5 17s29.667 -5.66699 41 -17s17 -24.666 17 -39.999s-5.66699 -28.666 -17 -39.999s-25 -17 -41 -17s-29.5 5.66699 -40.5 17
s-16.5 24.666 -16.5 39.999zM156 658c0 15.333 5.5 28.666 16.5 39.999s24.5 17 40.5 17s29.667 -5.66699 41 -17s17 -24.666 17 -39.999s-5.66699 -28.666 -17 -39.999s-25 -17 -41 -17s-29.5 5.66699 -40.5 17s-16.5 24.666 -16.5 39.999z" />
    <glyph glyph-name="iacute" unicode="&#xed;" horiz-adv-x="233" 
d="M30 0v587h173v-587h-173zM200 663l-129 -61c-8.66699 -3.33301 -15.334 -5 -20.001 -5c-11.333 0 -20.666 4.16699 -27.999 12.5s-11 17.833 -11 28.5c0 16 8.33301 28 25 36l129 61c8.66699 3.33301 15.334 5 20.001 5c11.333 0 20.666 -4.16699 27.999 -12.5
s11 -17.833 11 -28.5c0 -16 -8.33301 -28 -25 -36z" />
    <glyph glyph-name="icircumflex" unicode="&#xee;" horiz-adv-x="233" 
d="M30 0v587h173v-587h-173zM49 609c-10.667 -8.66699 -21.168 -12.001 -31.501 -10.001s-18.666 6.83301 -24.999 14.5s-9.5 16.834 -9.5 27.501c0 11.333 5.33301 21.333 16 30l77 60c29.333 24 55.666 24.667 78.999 2l77 -60c10.667 -8.66699 16 -18.667 16 -30
c0 -7.33301 -2 -14.333 -6 -21s-9.16699 -12 -15.5 -16s-13.666 -5.83301 -21.999 -5.5s-16.5 3.83301 -24.5 10.5l-66 51l-65 -53v0z" />
    <glyph glyph-name="oacute" unicode="&#xf3;" 
d="M343 173c30.667 0 46 15.667 46 47v150c0 28.667 -16 43 -48 43h-98c-26.667 0 -40 -15 -40 -45v-146c0 -32.667 13 -49 39 -49h101v0zM561 137c0 -92.667 -44.667 -138.333 -134 -137h-257c-93.333 -0 -140 44.333 -140 133v316c0 92 45.667 138 137 138h258
c90 -0.666992 135.333 -47 136 -139v-311v0zM380 663.001l-129 -61c-8.66699 -3.33301 -15.334 -5 -20.001 -5c-11.333 0 -20.666 4.16699 -27.999 12.5s-11 17.833 -11 28.5c0 16 8.33301 28 25 36l129 61c8.66699 3.33301 15.334 5 20.001 5
c11.333 0 20.666 -4.16699 27.999 -12.5s11 -17.833 11 -28.5c0 -16 -8.33301 -28 -25 -36z" />
    <glyph glyph-name="ocircumflex" unicode="&#xf4;" 
d="M343 173c30.667 0 46 15.667 46 47v150c0 28.667 -16 43 -48 43h-98c-26.667 0 -40 -15 -40 -45v-146c0 -32.667 13 -49 39 -49h101v0zM561 137c0 -92.667 -44.667 -138.333 -134 -137h-257c-93.333 -0 -140 44.333 -140 133v316c0 92 45.667 138 137 138h258
c90 -0.666992 135.333 -47 136 -139v-311v0zM230 609.001c-10.667 -8.66699 -21.168 -12.001 -31.501 -10.001s-18.666 6.83301 -24.999 14.5s-9.5 16.834 -9.5 27.501c0 11.333 5.33301 21.333 16 30l77 60c29.333 24 55.666 24.667 78.999 2l77 -60
c10.667 -8.66699 16 -18.667 16 -30c0 -7.33301 -2 -14.333 -6 -21s-9.16699 -12 -15.5 -16s-13.666 -5.83301 -21.999 -5.5s-16.5 3.83301 -24.5 10.5l-66 51l-65 -53v0z" />
    <glyph glyph-name="odieresis" unicode="&#xf6;" 
d="M343 173c30.667 0 46 15.667 46 47v150c0 28.667 -16 43 -48 43h-98c-26.667 0 -40 -15 -40 -45v-146c0 -32.667 13 -49 39 -49h101v0zM561 137c0 -92.667 -44.667 -138.333 -134 -137h-257c-93.333 -0 -140 44.333 -140 133v316c0 92 45.667 138 137 138h258
c90 -0.666992 135.333 -47 136 -139v-311v0zM322 659.001c0 15.333 5.5 28.666 16.5 39.999s24.5 17 40.5 17s29.667 -5.66699 41 -17s17 -24.666 17 -39.999s-5.66699 -28.666 -17 -39.999s-25 -17 -41 -17s-29.5 5.66699 -40.5 17s-16.5 24.666 -16.5 39.999zM172 659.001
c0 15.333 5.5 28.666 16.5 39.999s24.5 17 40.5 17s29.667 -5.66699 41 -17s17 -24.666 17 -39.999s-5.66699 -28.666 -17 -39.999s-25 -17 -41 -17s-29.5 5.66699 -40.5 17s-16.5 24.666 -16.5 39.999z" />
    <glyph glyph-name="uacute" unicode="&#xfa;" 
d="M561 138c0 -19.333 -3.16699 -37.335 -9.5 -54.002s-15.333 -31.167 -27 -43.5s-26 -22.166 -43 -29.499s-36.167 -11 -57.5 -11h-256c-20 0 -38.5 3.5 -55.5 10.5s-31.667 16.667 -44 29s-21.833 26.833 -28.5 43.5s-10 35 -10 55v449h174v-372
c-1.33301 -28 11.667 -42 39 -42h101c28.667 0.666992 43.667 15.334 45 44.001v370h172v-449v0zM380 655.998l-129 -61c-8.66699 -3.33301 -15.334 -5 -20.001 -5c-11.333 0 -20.666 4.16699 -27.999 12.5s-11 17.833 -11 28.5c0 16 8.33301 28 25 36l129 61
c8.66699 3.33301 15.334 5 20.001 5c11.333 0 20.666 -4.16699 27.999 -12.5s11 -17.833 11 -28.5c0 -16 -8.33301 -28 -25 -36z" />
    <glyph glyph-name="udieresis" unicode="&#xfc;" 
d="M561 138c0 -19.333 -3.16699 -37.335 -9.5 -54.002s-15.333 -31.167 -27 -43.5s-26 -22.166 -43 -29.499s-36.167 -11 -57.5 -11h-256c-20 0 -38.5 3.5 -55.5 10.5s-31.667 16.667 -44 29s-21.833 26.833 -28.5 43.5s-10 35 -10 55v449h174v-372
c-1.33301 -28 11.667 -42 39 -42h101c28.667 0.666992 43.667 15.334 45 44.001v370h172v-449v0zM313 644.998c0 15.333 5.5 28.666 16.5 39.999s24.5 17 40.5 17s29.667 -5.66699 41 -17s17 -24.666 17 -39.999s-5.66699 -28.666 -17 -39.999s-25 -17 -41 -17
s-29.5 5.66699 -40.5 17s-16.5 24.666 -16.5 39.999zM163 644.998c0 15.333 5.5 28.666 16.5 39.999s24.5 17 40.5 17s29.667 -5.66699 41 -17s17 -24.666 17 -39.999s-5.66699 -28.666 -17 -39.999s-25 -17 -41 -17s-29.5 5.66699 -40.5 17s-16.5 24.666 -16.5 39.999z" />
    <glyph glyph-name="yacute" unicode="&#xfd;" horiz-adv-x="604" 
d="M608 587l-310 -800h-176l89 249l-217 551h183l123 -333l125 333h183zM380 653l-129 -61c-8.66699 -3.33301 -15.334 -5 -20.001 -5c-11.333 0 -20.666 4.16699 -27.999 12.5s-11 17.833 -11 28.5c0 16 8.33301 28 25 36l129 61c8.66699 3.33301 15.334 5 20.001 5
c11.333 0 20.666 -4.16699 27.999 -12.5s11 -17.833 11 -28.5c0 -16 -8.33301 -28 -25 -36z" />
    <glyph glyph-name="Abreve" unicode="&#x102;" horiz-adv-x="641" 
d="M222 784c-6 4.66699 -10.335 10 -13.002 16s-4 11.667 -4 17c0 10.667 3.66699 20.167 11 28.5s16.666 12.5 27.999 12.5c8.66699 0 17.334 -3.33301 26.001 -10c16 -14 34.667 -21 56 -21c20.667 0 37 7 49 21c8.66699 8.66699 18.334 13 29.001 13s20 -4 28 -12
s12 -17.333 12 -28s-4.33301 -20.334 -13 -29.001c-13.333 -15.333 -29 -26.666 -47 -33.999s-36.667 -11 -56 -11s-38.166 3.33301 -56.499 10s-34.833 15.667 -49.5 27zM202.998 490h236v89h-236v-89zM610.998 0h-172v312h-236v-312h-173v615c0 96.667 45.667 144 137 142
h307c91.333 2 137 -45.333 137 -142v-615z" />
    <glyph glyph-name="abreve" unicode="&#x103;" 
d="M190 673c-8.66699 8.66699 -13.001 18.334 -13.001 29.001s4 20 12 28s17.333 12 28 12s20.334 -4.33301 29.001 -13c7.33301 -9.33301 16.833 -16.5 28.5 -21.5s23.5 -7.5 35.5 -7.5c11.333 0 22 2.33301 32 7s18.667 11.667 26 21c8.66699 9.33301 18.667 14 30 14
c10.667 0 20 -4 28 -12s12 -17.333 12 -28s-4 -20 -12 -28c-14 -18.667 -31.333 -32.334 -52 -41.001s-42 -13 -64 -13c-22.667 0 -44.667 4.5 -66 13.5s-39.333 22.167 -54 39.5zM387.999 199c0 15.333 -8.33301 23 -25 23h-134c-18 0 -27 -7.33301 -27 -22v-4
c0 -14.667 9 -22 27 -22h134c16.667 0 25 7.33301 25 22v3zM29.999 209c0 105.333 43.668 158 131.001 158h227v15c0 21.333 -10.667 32 -32 32h-303v173h368c93.333 0 140 -46 140 -138v-311c0 -92 -46.667 -138 -140 -138h-257c-88.667 0 -133.334 46 -134.001 138v71v0z
" />
    <glyph glyph-name="Aogonek" unicode="&#x104;" horiz-adv-x="641" 
d="M493 1c3.33301 -2 6.66602 -4.49902 9.99902 -7.49902s5 -6.5 5 -10.5c0 -2 -0.333008 -3.66699 -1 -5c-1.33301 -10 -5.66602 -18.667 -12.999 -26s-16.333 -11 -27 -11c-13.333 -0.666992 -23.166 -5.16699 -29.499 -13.5s-9.5 -17.166 -9.5 -26.499
c0 -10 3.16699 -19.167 9.5 -27.5s16.166 -12.5 29.499 -12.5h4h4c16 0 30.833 3.66699 44.5 11s25.5 17 35.5 29s18 25.333 24 40s9 29.667 9 45c0 16 -3.83301 31.167 -11.5 45.5s-20.167 26.166 -37.5 35.499c-8 6 -16.333 9 -25 9c-11.333 0 -20.833 -4.33301 -28.5 -13
s-11.5 -18.334 -11.5 -29.001c0 -13.333 6.33301 -24.333 19 -33zM203 490.001h236v89h-236v-89zM611 0.000976562l-171.999 -0.000976562v312h-236v-312h-173v615c0 20 3.16699 38.5 9.5 55.5s15.5 32 27.5 45s26.5 23.167 43.5 30.5s35.833 11 56.5 11h307
c33.333 0 64.666 -15 93.999 -45c28.667 -29.333 43 -61.666 43 -96.999v-615z" />
    <glyph glyph-name="aogonek" unicode="&#x105;" 
d="M459 69c5.33301 2.66699 11.332 4 17.999 4c12 0 21.667 -4.33301 29 -13s11 -18.334 11 -29.001c0 -7.33301 -2 -14.333 -6 -21s-10.667 -11.667 -20 -15c-9.33301 -1.33301 -16.5 -6.33301 -21.5 -15s-7.5 -17.667 -7.5 -27c0 -7.33301 1.83301 -14.166 5.5 -20.499
s9.5 -10.166 17.5 -11.499c10.667 -3.33301 18.334 -8.5 23.001 -15.5s7 -14.5 7 -22.5c0 -10 -3.5 -19.167 -10.5 -27.5s-16.5 -12.5 -28.5 -12.5c-6.66699 0 -11.667 0.666992 -15 2c-27.333 5.33301 -47.333 18.166 -60 38.499s-19 42.833 -19 67.5
c0 12.667 1.66699 25.167 5 37.5s8.16602 23.833 14.499 34.5s14.333 20 24 28s20.834 14 33.501 18zM387.999 199c0 15.333 -8.33301 23 -25 23h-134c-18 0 -27 -7.33301 -27 -22v-4c0 -14.667 9 -22 27 -22h134c16.667 0 25 7.33301 25 22v3zM29.999 209
c0 105.333 43.668 158 131.001 158h227v15c0 21.333 -10.667 32 -32 32h-303v173h368c93.333 0 140 -46 140 -138v-311c0 -92 -46.667 -138 -140 -138h-257c-88.667 0 -133.334 46 -134.001 138v71v0z" />
    <glyph glyph-name="Cacute" unicode="&#x106;" horiz-adv-x="540" 
d="M202 233c0 -28 14.667 -42 44 -42h264v-191h-343c-91.333 0 -137 47 -137 141v477c0 94.667 45.667 142 137 142h343v-191h-267c-27.333 0 -41 -14.667 -41 -44v-292v0zM389 822l-129 -61c-8.66699 -3.33301 -15.334 -5 -20.001 -5
c-11.333 0 -20.666 4.16699 -27.999 12.5s-11 17.833 -11 28.5c0 16 8.33301 28 25 36l129 61c8.66699 3.33301 15.334 5 20.001 5c11.333 0 20.666 -4.16699 27.999 -12.5s11 -17.833 11 -28.5c0 -16 -8.33301 -28 -25 -36z" />
    <glyph glyph-name="cacute" unicode="&#x107;" horiz-adv-x="493" 
d="M30 449c0 92 45.667 138 137 138h296v-174h-220c-26.667 0 -40 -15 -40 -45v-146c0 -32.667 13 -49 39 -49h221v-173h-293c-93.333 -0 -140 44.333 -140 133v316v0zM351 663l-129 -61c-8.66699 -3.33301 -15.334 -5 -20.001 -5c-11.333 0 -20.666 4.16699 -27.999 12.5
s-11 17.833 -11 28.5c0 16 8.33301 28 25 36l129 61c8.66699 3.33301 15.334 5 20.001 5c11.333 0 20.666 -4.16699 27.999 -12.5s11 -17.833 11 -28.5c0 -16 -8.33301 -28 -25 -36z" />
    <glyph glyph-name="Ccaron" unicode="&#x10c;" horiz-adv-x="540" 
d="M202 233c0 -28 14.667 -42 44 -42h264v-191h-343c-91.333 0 -137 47 -137 141v477c0 94.667 45.667 142 137 142h343v-191h-267c-27.333 0 -41 -14.667 -41 -44v-292v0zM248 912l65.001 -53.001l66 51c8 6.66699 16.167 10.167 24.5 10.5s15.666 -1.5 21.999 -5.5
s11.5 -9.33301 15.5 -16s6 -13.667 6 -21c0 -11.333 -5.33301 -21.333 -16 -30l-77 -60c-23.333 -22.667 -49.666 -22 -78.999 2l-77 60c-10.667 8.66699 -16 18.334 -16 29.001c0 11.333 3.16699 20.833 9.5 28.5s14.666 12.5 24.999 14.5s20.833 -1.33301 31.5 -10z" />
    <glyph glyph-name="ccaron" unicode="&#x10d;" horiz-adv-x="493" 
d="M30 449c0 92 45.667 138 137 138h296v-174h-220c-26.667 0 -40 -15 -40 -45v-146c0 -32.667 13 -49 39 -49h221v-173h-293c-93.333 -0 -140 44.333 -140 133v316v0zM209 753l65.001 -53.001l66 51c8 6.66699 16.167 10.167 24.5 10.5s15.666 -1.5 21.999 -5.5
s11.5 -9.33301 15.5 -16s6 -13.667 6 -21c0 -11.333 -5.33301 -21.333 -16 -30l-77 -60c-23.333 -22.667 -49.666 -22 -78.999 2l-77 60c-10.667 8.66699 -16 18.334 -16 29.001c0 11.333 3.16699 20.833 9.5 28.5s14.666 12.5 24.999 14.5s20.833 -1.33301 31.5 -10z" />
    <glyph glyph-name="Dcaron" unicode="&#x10e;" horiz-adv-x="609" 
d="M363 191c29.333 0 44 14 44 42v292c0 29.333 -13.333 44 -40 44h-164v-378h160zM579 141c0 -94 -45.667 -141 -137 -141h-412v760h412c91.333 0 137 -47.333 137 -142v-477v0zM239 912l65.001 -53.001l66 51c8 6.66699 16.167 10.167 24.5 10.5s15.666 -1.5 21.999 -5.5
s11.5 -9.33301 15.5 -16s6 -13.667 6 -21c0 -11.333 -5.33301 -21.333 -16 -30l-77 -60c-23.333 -22.667 -49.666 -22 -78.999 2l-77 60c-10.667 8.66699 -16 18.334 -16 29.001c0 11.333 3.16699 20.833 9.5 28.5s14.666 12.5 24.999 14.5s20.833 -1.33301 31.5 -10z" />
    <glyph glyph-name="dcaron" unicode="&#x10f;" horiz-adv-x="688" 
d="M562 830c-4 6.66699 -6.00098 13.665 -6.00098 20.998c0 11.333 4.16699 20.833 12.5 28.5s17.833 11.5 28.5 11.5c14.667 0 26.334 -7.66699 35.001 -23c9.33301 -15.333 16 -31.5 20 -48.5s6 -34.167 6 -51.5c0 -25.333 -3 -49.333 -9 -72
c-2.66699 -11.333 -7.66699 -19.666 -15 -24.999s-15.333 -8 -24 -8c-10 0 -19.167 3.33301 -27.5 10s-12.5 16 -12.5 28c0 4.66699 0.333008 8.33398 1 11.001c1.33301 9.33301 2.83301 18.833 4.5 28.5s2.5 19.5 2.5 29.5c0 10.667 -1.16699 21 -3.5 31
s-6.5 19.667 -12.5 29zM247.999 412.998c-30 0 -45 -14.667 -45 -44v-152c0 -29.333 14.333 -44 43 -44h143v240h-141zM29.999 445.998c1.33301 93.333 47.333 140 138 140h222v176h172v-762h-394c-91.333 0 -137.333 45.333 -138 136v310v0z" />
    <glyph glyph-name="Dmacron" unicode="&#x110;" horiz-adv-x="609" 
d="M363 191c29.333 0 44 14 44 42v292c0 29.333 -13.333 44 -40 44h-164v-378h160zM579 141c0 -94 -45.667 -141 -137 -141h-412v760h412c91.333 0 137 -47.333 137 -142v-477v0zM268 333h-287v94h287v-94z" />
    <glyph glyph-name="dmacron" unicode="&#x111;" horiz-adv-x="592" 
d="M321 712h296v-74h-296v74zM248 413c-30 0 -45 -14.667 -45 -44v-152c0 -29.333 14.333 -44 43 -44h143v240h-141zM30 446c1.33301 93.333 47.333 140 138 140h222v176h172v-762h-394c-91.333 -0 -137.333 45.333 -138 136v310v0z" />
    <glyph glyph-name="Eogonek" unicode="&#x118;" horiz-adv-x="525" 
d="M381 25l-1.00098 -69c6.66699 0 11.667 -0.333008 15 -1s8.33301 -2.66699 15 -6c10.667 -3.33301 18.334 -8.5 23.001 -15.5s7 -14.5 7 -22.5c0 -10 -3.5 -19.167 -10.5 -27.5s-16.5 -12.5 -28.5 -12.5h-57c-34 0.666992 -52.667 27 -56 79v75h93zM494.999 0h-465v757
h465v-188h-291v-102h206v-173h-206v-103h291v-191z" />
    <glyph glyph-name="eogonek" unicode="&#x119;" 
d="M273 -100c-2 100.667 1.33398 154.333 10.001 161s18 10 28 10s19 -3 27 -9s13 -15.667 15 -29v-81l82 -1c13.333 0 23.166 -4.16699 29.499 -12.5s9.5 -17.5 9.5 -27.5c0 -9.33301 -3 -18 -9 -26s-15.667 -12.667 -29 -14h-124c-8 0 -16 2.83301 -24 8.5
s-13 12.5 -15 20.5zM203.001 387.999c0 -15.333 8.33301 -23 25 -23h134c18 0 27 7.33301 27 22v4c0 14.667 -9 22 -27 22h-134c-16.667 0 -25 -7.33301 -25 -22v-3zM561.001 377.999c0 -105.333 -43.667 -158 -131 -158h-227v-15c0 -21.333 10.667 -32 32 -32h303v-173
h-368c-93.333 0 -140 46 -140 138v311c0 92 46.667 138 140 138h257c88 0 132.667 -46 134 -138v-71v0z" />
    <glyph glyph-name="Ecaron" unicode="&#x11a;" horiz-adv-x="525" 
d="M495 0h-465v757h465v-188h-291v-102h206v-173h-206v-103h291v-191zM209 912l65.001 -53.001l66 51c8 6.66699 16.167 10.167 24.5 10.5s15.666 -1.5 21.999 -5.5s11.5 -9.33301 15.5 -16s6 -13.667 6 -21c0 -11.333 -5.33301 -21.333 -16 -30l-77 -60
c-23.333 -22.667 -49.666 -22 -78.999 2l-77 60c-10.667 8.66699 -16 18.334 -16 29.001c0 11.333 3.16699 20.833 9.5 28.5s14.666 12.5 24.999 14.5s20.833 -1.33301 31.5 -10z" />
    <glyph glyph-name="ecaron" unicode="&#x11b;" 
d="M203 388c0 -15.333 8.33301 -23 25 -23h134c18 0 27 7.33301 27 22v4c0 14.667 -9 22 -27 22h-134c-16.667 0 -25 -7.33301 -25 -22v-3zM561 378c0 -105.333 -43.667 -158 -131 -158h-227v-15c0 -21.333 10.667 -32 32 -32h303v-173h-368c-93.333 0 -140 46 -140 138v311
c0 92 46.667 138 140 138h257c88 0 132.667 -46 134 -138v-71v0zM239 753l65.001 -53.001l66 51c8 6.66699 16.167 10.167 24.5 10.5s15.666 -1.5 21.999 -5.5s11.5 -9.33301 15.5 -16s6 -13.667 6 -21c0 -11.333 -5.33301 -21.333 -16 -30l-77 -60
c-23.333 -22.667 -49.666 -22 -78.999 2l-77 60c-10.667 8.66699 -16 18.334 -16 29.001c0 11.333 3.16699 20.833 9.5 28.5s14.666 12.5 24.999 14.5s20.833 -1.33301 31.5 -10z" />
    <glyph glyph-name="Lacute" unicode="&#x139;" horiz-adv-x="510" 
d="M480 0h-450v760h173v-569h277v-191zM200 822l-129 -61c-8.66699 -3.33301 -15.334 -5 -20.001 -5c-11.333 0 -20.666 4.16699 -27.999 12.5s-11 17.833 -11 28.5c0 16 8.33301 28 25 36l129 61c8.66699 3.33301 15.334 5 20.001 5c11.333 0 20.666 -4.16699 27.999 -12.5
s11 -17.833 11 -28.5c0 -16 -8.33301 -28 -25 -36z" />
    <glyph glyph-name="lacute" unicode="&#x13a;" horiz-adv-x="233" 
d="M203 0h-173v759h173v-759zM200 822l-129 -61c-8.66699 -3.33301 -15.334 -5 -20.001 -5c-11.333 0 -20.666 4.16699 -27.999 12.5s-11 17.833 -11 28.5c0 16 8.33301 28 25 36l129 61c8.66699 3.33301 15.334 5 20.001 5c11.333 0 20.666 -4.16699 27.999 -12.5
s11 -17.833 11 -28.5c0 -16 -8.33301 -28 -25 -36z" />
    <glyph glyph-name="Lcaron" unicode="&#x13d;" horiz-adv-x="510" 
d="M306 782c-6.66699 8.66699 -9.99805 17.334 -9.99805 26.001c0 11.333 4.16699 20.833 12.5 28.5s18.166 11.5 29.499 11.5c12.667 0 23.667 -5.66699 33 -17c11.333 -14 19.666 -29.5 24.999 -46.5s8 -34.167 8 -51.5c0 -18 -3 -35.833 -9 -53.5s-15 -33.167 -27 -46.5
c-4.66699 -6 -10 -10.333 -16 -13s-11.667 -4 -17 -4c-10.667 0 -20.167 3.66699 -28.5 11s-12.5 16.666 -12.5 27.999c0 8.66699 3.33301 17.334 10 26.001c13.333 14.667 20 32 20 52c0 19.333 -6 35.666 -18 48.999zM480.002 0h-450v760h173v-569h277v-191z" />
    <glyph glyph-name="lcaron" unicode="&#x13e;" horiz-adv-x="233" 
d="M231 775c-2.66699 5.33301 -4 11.334 -4 18.001c0 11.333 4.16699 20.5 12.5 27.5s17.833 10.5 28.5 10.5c7.33301 0 14.5 -2 21.5 -6s12.5 -10.667 16.5 -20c10.667 -25.333 16 -51.333 16 -78c0 -29.333 -6.33301 -56.333 -19 -81
c-3.33301 -9.33301 -8.5 -16 -15.5 -20s-14.167 -6 -21.5 -6c-10.667 0 -20.167 3.5 -28.5 10.5s-12.5 16.167 -12.5 27.5c0 6.66699 1.33301 12.667 4 18c8 16 12 33.667 12 53c0 17.333 -3.33301 32.666 -10 45.999zM203 0.000976562h-173v759h173v-759z" />
    <glyph glyph-name="Lslash" unicode="&#x141;" horiz-adv-x="510" 
d="M-47 332c-5.33301 -1.33301 -9.33301 -2 -12 -2c-12 0 -21.5 4.16699 -28.5 12.5s-10.5 17.833 -10.5 28.5c0 8 2.33301 15.667 7 23s12.667 12.666 24 15.999l97 26v324h173v-278l136 37c5.33301 1.33301 9.33301 2 12 2c12 0 21.5 -4.16699 28.5 -12.5
s10.5 -17.833 10.5 -28.5c0 -8 -2.33301 -15.667 -7 -23s-12.667 -12.666 -24 -15.999l-156 -42v-208h277v-191h-450v352l-77 -20v0z" />
    <glyph glyph-name="Nacute" unicode="&#x143;" horiz-adv-x="641" 
d="M611 0h-108l-300 402v-402h-173v760h108l301 -405v405h172v-760zM389 822l-129 -61c-8.66699 -3.33301 -15.334 -5 -20.001 -5c-11.333 0 -20.666 4.16699 -27.999 12.5s-11 17.833 -11 28.5c0 16 8.33301 28 25 36l129 61c8.66699 3.33301 15.334 5 20.001 5
c11.333 0 20.666 -4.16699 27.999 -12.5s11 -17.833 11 -28.5c0 -16 -8.33301 -28 -25 -36z" />
    <glyph glyph-name="nacute" unicode="&#x144;" 
d="M561 448v-448.002h-172v369c-1.33301 28.667 -16.333 43.334 -45 44.001h-101c-27.333 0 -40.333 -14 -39 -42v-371h-174v448c0 20 3.33301 38.333 10 55s16.167 31.167 28.5 43.5s27 22 44 29s35.5 10.5 55.5 10.5h256c21.333 0 40.5 -3.66699 57.5 -11
s31.333 -17.166 43 -29.499s20.667 -27 27 -44s9.5 -34.833 9.5 -53.5zM382 662.998l-129 -61c-8.66699 -3.33301 -15.334 -5 -20.001 -5c-11.333 0 -20.666 4.16699 -27.999 12.5s-11 17.833 -11 28.5c0 16 8.33301 28 25 36l129 61c8.66699 3.33301 15.334 5 20.001 5
c11.333 0 20.666 -4.16699 27.999 -12.5s11 -17.833 11 -28.5c0 -16 -8.33301 -28 -25 -36z" />
    <glyph glyph-name="Ncaron" unicode="&#x147;" horiz-adv-x="641" 
d="M611 0h-108l-300 402v-402h-173v760h108l301 -405v405h172v-760zM248 912l65.001 -53.001l66 51c8 6.66699 16.167 10.167 24.5 10.5s15.666 -1.5 21.999 -5.5s11.5 -9.33301 15.5 -16s6 -13.667 6 -21c0 -11.333 -5.33301 -21.333 -16 -30l-77 -60
c-23.333 -22.667 -49.666 -22 -78.999 2l-77 60c-10.667 8.66699 -16 18.334 -16 29.001c0 11.333 3.16699 20.833 9.5 28.5s14.666 12.5 24.999 14.5s20.833 -1.33301 31.5 -10z" />
    <glyph glyph-name="ncaron" unicode="&#x148;" 
d="M561 448v-448.002h-172v369c-1.33301 28.667 -16.333 43.334 -45 44.001h-101c-27.333 0 -40.333 -14 -39 -42v-371h-174v448c0 20 3.33301 38.333 10 55s16.167 31.167 28.5 43.5s27 22 44 29s35.5 10.5 55.5 10.5h256c21.333 0 40.5 -3.66699 57.5 -11
s31.333 -17.166 43 -29.499s20.667 -27 27 -44s9.5 -34.833 9.5 -53.5zM233 752.998l65.001 -53.001l66 51c8 6.66699 16.167 10.167 24.5 10.5s15.666 -1.5 21.999 -5.5s11.5 -9.33301 15.5 -16s6 -13.667 6 -21c0 -11.333 -5.33301 -21.333 -16 -30l-77 -60
c-23.333 -22.667 -49.666 -22 -78.999 2l-77 60c-10.667 8.66699 -16 18.334 -16 29.001c0 11.333 3.16699 20.833 9.5 28.5s14.666 12.5 24.999 14.5s20.833 -1.33301 31.5 -10z" />
    <glyph glyph-name="Ohungarumlaut" unicode="&#x150;" horiz-adv-x="609" 
d="M361 191c30.667 0 46 15.667 46 47v288c0 28.667 -16 43 -48 43h-116c-26.667 0 -40 -15 -40 -45v-284c0 -32.667 13 -49 39 -49h119v0zM579 137c0 -92.667 -44.667 -138.333 -134 -137h-275c-93.333 -0 -140 44.333 -140 133v489c0 92 45.667 138 137 138h276
c90 -0.666992 135.333 -47 136 -139v-484v0zM244 877.001c8 10 18.335 15.001 31.002 15.001c11.333 0 23.666 -3.66699 36.999 -11s14.666 -22.333 3.99902 -45c0 -3.33301 -13.667 -20.333 -41 -51c-9.33301 -11.333 -20.333 -17 -33 -17c-10.667 0 -20 3.66699 -28 11
s-12 16.666 -12 27.999c0 8 3 16.667 9 26l33 44v0zM369.002 874.002c10 10.667 20.999 16 32.999 16c10.667 0 20.834 -3.83301 30.501 -11.5s14.5 -17.167 14.5 -28.5c0 -4.66699 -16.667 -28.667 -50 -72c-8.66699 -10.667 -19.667 -16 -33 -16
c-10.667 0 -20.167 4 -28.5 12s-12.5 17.667 -12.5 29c0 9.33301 3 18 9 26l37 45v0z" />
    <glyph glyph-name="ohungarumlaut" unicode="&#x151;" 
d="M343 173c30.667 0 46 15.667 46 47v150c0 28.667 -16 43 -48 43h-98c-26.667 0 -40 -15 -40 -45v-146c0 -32.667 13 -49 39 -49h101v0zM561 137c0 -92.667 -44.667 -138.333 -134 -137h-257c-93.333 -0 -140 44.333 -140 133v316c0 92 45.667 138 137 138h258
c90 -0.666992 135.333 -47 136 -139v-311v0zM217 718.001c8 10 18.335 15.001 31.002 15.001c11.333 0 23.666 -3.66699 36.999 -11s14.666 -22.333 3.99902 -45c0 -3.33301 -13.667 -20.333 -41 -51c-9.33301 -11.333 -20.333 -17 -33 -17c-10.667 0 -20 3.66699 -28 11
s-12 16.666 -12 27.999c0 8 3 16.667 9 26l33 44v0zM342.002 715.002c10 10.667 20.999 16 32.999 16c10.667 0 20.834 -3.83301 30.501 -11.5s14.5 -17.167 14.5 -28.5c0 -4.66699 -16.667 -28.667 -50 -72c-8.66699 -10.667 -19.667 -16 -33 -16
c-10.667 0 -20.167 4 -28.5 12s-12.5 17.667 -12.5 29c0 9.33301 3 18 9 26l37 45v0z" />
    <glyph glyph-name="Racute" unicode="&#x154;" horiz-adv-x="612" 
d="M367 467c26.667 0 40 12 40 36v22c0 29.333 -13.333 44 -40 44h-164v-102h164zM579 0l-172 -0.000976562v251c0 28.667 -13.333 43 -40 43h-164v-294h-173v760h412c91.333 0 137 -47.333 137 -142v-120c0.666992 -68.667 -28 -108 -86 -118
c59.333 -13.333 88 -49.666 86 -108.999v-271zM389 821.999l-129 -61c-8.66699 -3.33301 -15.334 -5 -20.001 -5c-11.333 0 -20.666 4.16699 -27.999 12.5s-11 17.833 -11 28.5c0 16 8.33301 28 25 36l129 61c8.66699 3.33301 15.334 5 20.001 5
c11.333 0 20.666 -4.16699 27.999 -12.5s11 -17.833 11 -28.5c0 -16 -8.33301 -28 -25 -36z" />
    <glyph glyph-name="racute" unicode="&#x155;" horiz-adv-x="392" 
d="M243 413c-27.333 0 -40.333 -14 -39 -42v-371h-174v448c0 20 3.33301 38.333 10 55s16.167 31.167 28.5 43.5s27 22 44 29s35.5 10.5 55.5 10.5h194v-173h-119v0zM300 663l-129 -61c-8.66699 -3.33301 -15.334 -5 -20.001 -5c-11.333 0 -20.666 4.16699 -27.999 12.5
s-11 17.833 -11 28.5c0 16 8.33301 28 25 36l129 61c8.66699 3.33301 15.334 5 20.001 5c11.333 0 20.666 -4.16699 27.999 -12.5s11 -17.833 11 -28.5c0 -16 -8.33301 -28 -25 -36z" />
    <glyph glyph-name="Rcaron" unicode="&#x158;" horiz-adv-x="612" 
d="M367 467c26.667 0 40 12 40 36v22c0 29.333 -13.333 44 -40 44h-164v-102h164zM579 0l-172 -0.000976562v251c0 28.667 -13.333 43 -40 43h-164v-294h-173v760h412c91.333 0 137 -47.333 137 -142v-120c0.666992 -68.667 -28 -108 -86 -118
c59.333 -13.333 88 -49.666 86 -108.999v-271zM248 911.999l65.001 -53.001l66 51c8 6.66699 16.167 10.167 24.5 10.5s15.666 -1.5 21.999 -5.5s11.5 -9.33301 15.5 -16s6 -13.667 6 -21c0 -11.333 -5.33301 -21.333 -16 -30l-77 -60
c-23.333 -22.667 -49.666 -22 -78.999 2l-77 60c-10.667 8.66699 -16 18.334 -16 29.001c0 11.333 3.16699 20.833 9.5 28.5s14.666 12.5 24.999 14.5s20.833 -1.33301 31.5 -10z" />
    <glyph glyph-name="rcaron" unicode="&#x159;" horiz-adv-x="392" 
d="M243 413c-27.333 0 -40.333 -14 -39 -42v-371h-174v448c0 20 3.33301 38.333 10 55s16.167 31.167 28.5 43.5s27 22 44 29s35.5 10.5 55.5 10.5h194v-173h-119v0zM151 754l65.001 -53.001l66 51c8 6.66699 16.167 10.167 24.5 10.5s15.666 -1.5 21.999 -5.5
s11.5 -9.33301 15.5 -16s6 -13.667 6 -21c0 -11.333 -5.33301 -21.333 -16 -30l-77 -60c-23.333 -22.667 -49.666 -22 -78.999 2l-77 60c-10.667 8.66699 -16 18.334 -16 29.001c0 11.333 3.16699 20.833 9.5 28.5s14.666 12.5 24.999 14.5s20.833 -1.33301 31.5 -10z" />
    <glyph glyph-name="Sacute" unicode="&#x15a;" horiz-adv-x="609" 
d="M579 148c0 -98.667 -48.333 -148 -145 -148h-404v191h335c28 0 42 15 42 45v14c0 29.333 -14 44 -42 44h-195c-93.333 0 -140 44.333 -140 133v188c0 96.667 45 145 135 145h414v-191h-333c-28.667 0 -43 -14 -43 -42v-11c0 -32.667 14 -49 42 -49h201
c88.667 0 133 -44.667 133 -134v-185v0zM389 822l-129 -61c-8.66699 -3.33301 -15.334 -5 -20.001 -5c-11.333 0 -20.666 4.16699 -27.999 12.5s-11 17.833 -11 28.5c0 16 8.33301 28 25 36l129 61c8.66699 3.33301 15.334 5 20.001 5
c11.333 0 20.666 -4.16699 27.999 -12.5s11 -17.833 11 -28.5c0 -16 -8.33301 -28 -25 -36z" />
    <glyph glyph-name="sacute" unicode="&#x15b;" 
d="M560 138c0.666992 -92 -40.667 -138 -124 -138h-397v173h350v34h-222c-91.333 0 -137 46 -137 138v104c0 91.333 45.333 137 136 137h395v-173h-359v-33h234c84 1.33301 125.333 -44.667 124 -138v-104zM388.999 822l-129 -61c-8.66699 -3.33301 -15.334 -5 -20.001 -5
c-11.333 0 -20.666 4.16699 -27.999 12.5s-11 17.833 -11 28.5c0 16 8.33301 28 25 36l129 61c8.66699 3.33301 15.334 5 20.001 5c11.333 0 20.666 -4.16699 27.999 -12.5s11 -17.833 11 -28.5c0 -16 -8.33301 -28 -25 -36z" />
    <glyph glyph-name="Scommaaccent" unicode="&#x15e;" horiz-adv-x="609" 
d="M279 -120c-0.666992 -0.666992 -1 -1.33398 -1 -2.00098c0 0.666992 0.333008 1.33398 1 2.00098zM306 9c-13.333 8.66699 -19.999 19.667 -19.999 33c0 10.667 3.83301 20.167 11.5 28.5s17.167 12.5 28.5 12.5c8.66699 0 16.667 -2.66699 24 -8
c22 -11.333 38.167 -27.166 48.5 -47.499s15.5 -41.833 15.5 -64.5c0 -25.333 -6.33301 -49.666 -19 -72.999s-30.667 -41.666 -54 -54.999c-7.33301 -5.33301 -15.666 -8 -24.999 -8c-10.667 0 -20 3.66699 -28 11s-12 16.666 -12 27.999c0 2 0.666992 5.66699 2 11v-2v-4
c5.33301 11.333 12.666 19 21.999 23l-6 4l-4 -2c2.66699 2 5.16699 3.66699 7.5 5s4.5 3.33301 6.5 6c9.33301 6 16.666 14 21.999 24s8 20.333 8 31c0 9.33301 -2.33301 18.166 -7 26.499s-11.667 15.166 -21 20.499zM579.001 148c0 -98.667 -48.333 -148 -145 -148h-404
v191h335c28 0 42 15 42 45v14c0 29.333 -14 44 -42 44h-195c-93.333 0 -140 44.333 -140 133v188c0 96.667 45 145 135 145h414v-191h-333c-28.667 0 -43 -14 -43 -42v-11c0 -32.667 14 -49 42 -49h201c88.667 0 133 -44.667 133 -134v-185v0z" />
    <glyph glyph-name="scommaaccent" unicode="&#x15f;" 
d="M327 50c6.66699 1.33301 11.332 2.00293 13.999 2.00293c12 0 21.333 -4.16699 28 -12.5s10 -17.5 10 -27.5c0 -8 -2.33301 -15.5 -7 -22.5s-12.334 -12.167 -23.001 -15.5c-11.333 -1.33301 -19.666 -6 -24.999 -14s-8 -17 -8 -27c0 -9.33301 2.5 -17.833 7.5 -25.5
s12.5 -12.167 22.5 -13.5c9.33301 -4 16 -9.16699 20 -15.5s6 -13.166 6 -20.499c0 -10.667 -3.83301 -20.334 -11.5 -29.001s-17.167 -13 -28.5 -13c-6.66699 0 -12.667 1.33301 -18 4c-26 7.33301 -45.333 21.666 -58 42.999s-19 44.666 -19 69.999
c0 13.333 1.83301 26.666 5.5 39.999s9.33398 25.333 17.001 36s17 19.667 28 27s24.167 12 39.5 14zM559.998 138.003c0.666992 -92 -40.667 -138 -124 -138h-397v173h350v34h-222c-91.333 0 -137 46 -137 138v104c0 91.333 45.333 137 136 137h395v-173h-359v-33h234
c84 1.33301 125.333 -44.667 124 -138v-104z" />
    <glyph glyph-name="Scaron" unicode="&#x160;" horiz-adv-x="609" 
d="M579 148c0 -98.667 -48.333 -148 -145 -148h-404v191h335c28 0 42 15 42 45v14c0 29.333 -14 44 -42 44h-195c-93.333 0 -140 44.333 -140 133v188c0 96.667 45 145 135 145h414v-191h-333c-28.667 0 -43 -14 -43 -42v-11c0 -32.667 14 -49 42 -49h201
c88.667 0 133 -44.667 133 -134v-185v0zM248 912l65.001 -53.001l66 51c8 6.66699 16.167 10.167 24.5 10.5s15.666 -1.5 21.999 -5.5s11.5 -9.33301 15.5 -16s6 -13.667 6 -21c0 -11.333 -5.33301 -21.333 -16 -30l-77 -60c-23.333 -22.667 -49.666 -22 -78.999 2l-77 60
c-10.667 8.66699 -16 18.334 -16 29.001c0 11.333 3.16699 20.833 9.5 28.5s14.666 12.5 24.999 14.5s20.833 -1.33301 31.5 -10z" />
    <glyph glyph-name="scaron" unicode="&#x161;" 
d="M560 138c0.666992 -92 -40.667 -138 -124 -138h-397v173h350v34h-222c-91.333 0 -137 46 -137 138v104c0 91.333 45.333 137 136 137h395v-173h-359v-33h234c84 1.33301 125.333 -44.667 124 -138v-104zM247.999 912l65.001 -53.001l66 51
c8 6.66699 16.167 10.167 24.5 10.5s15.666 -1.5 21.999 -5.5s11.5 -9.33301 15.5 -16s6 -13.667 6 -21c0 -11.333 -5.33301 -21.333 -16 -30l-77 -60c-23.333 -22.667 -49.666 -22 -78.999 2l-77 60c-10.667 8.66699 -16 18.334 -16 29.001
c0 11.333 3.16699 20.833 9.5 28.5s14.666 12.5 24.999 14.5s20.833 -1.33301 31.5 -10z" />
    <glyph glyph-name="Tcommaaccent" unicode="&#x162;" horiz-adv-x="521" 
d="M234 3c-1.33301 6.66699 -2 11.334 -2 14.001c0 12 4.16699 21.333 12.5 28s17.5 10 27.5 10c8 0 15.5 -2.33301 22.5 -7s12.167 -12.334 15.5 -23.001c9.33301 -24.667 14 -50.667 14 -78c0 -18.667 -2.66699 -36.667 -8 -54s-14 -33.333 -26 -48
c-9.33301 -11.333 -20.333 -17 -33 -17c-10.667 0 -20 3.66699 -28 11s-12 16.666 -12 27.999c0 8 3 16.667 9 26c12 14.667 18 32.667 18 54c0 9.33301 -1 18.833 -3 28.5s-4.33301 18.834 -7 27.501zM491 569h-142l-1 -569h-172l1 569h-147v191h461v-191z" />
    <glyph glyph-name="tcommaaccent" unicode="&#x163;" horiz-adv-x="294" 
d="M145 41c-2 4.66699 -3.00098 9.66602 -3.00098 14.999c0 12 4.33301 21.5 13 28.5s18.334 10.5 29.001 10.5c7.33301 0 14.5 -2.16699 21.5 -6.5s12.167 -11.5 15.5 -21.5c4.66699 -13.333 8.33398 -27.166 11.001 -41.499s4 -28.833 4 -43.5
c0 -21.333 -3.33301 -42 -10 -62s-18 -37.667 -34 -53c-10 -10 -20.333 -15 -31 -15s-19.834 3.83301 -27.501 11.5s-11.5 17.167 -11.5 28.5c0 10 4 19.667 12 29c8 8.66699 13.667 18.167 17 28.5s5 21.166 5 32.499c0 20.667 -3.66699 40.334 -11 59.001z
M172.999 -0.000976562c-95.333 0 -143 43 -143 129v630h173v-173h61v-173h-61v-206c0 -22.667 8.66699 -34 26 -34h34v-173h-90z" />
    <glyph glyph-name="Tcaron" unicode="&#x164;" horiz-adv-x="521" 
d="M491 569h-142l-1 -569h-172l1 569h-147v191h461v-191zM248 912l65.001 -53.001l66 51c8 6.66699 16.167 10.167 24.5 10.5s15.666 -1.5 21.999 -5.5s11.5 -9.33301 15.5 -16s6 -13.667 6 -21c0 -11.333 -5.33301 -21.333 -16 -30l-77 -60
c-23.333 -22.667 -49.666 -22 -78.999 2l-77 60c-10.667 8.66699 -16 18.334 -16 29.001c0 11.333 3.16699 20.833 9.5 28.5s14.666 12.5 24.999 14.5s20.833 -1.33301 31.5 -10z" />
    <glyph glyph-name="tcaron" unicode="&#x165;" horiz-adv-x="500" 
 />
    <glyph glyph-name="Uring" unicode="&#x16e;" horiz-adv-x="609" 
d="M361 191c30.667 0 46 15.668 46 47.001v522h172v-623c0 -92.667 -44.667 -138.334 -134 -137.001h-275c-93.333 -0 -140 44.333 -140 133v627h173v-520c0 -32.667 13 -49 39 -49h119v0zM249 839.001c0 -15.333 5.33301 -28.333 16 -39s23.667 -16 39 -16
s28.5 5.33301 39.5 16s16.5 23.667 16.5 39s-5.5 28.5 -16.5 39.5s-24.167 16.5 -39.5 16.5s-28.333 -5.5 -39 -16.5s-16 -24.167 -16 -39.5zM208 836.001c0 12.667 2.5 24.834 7.5 36.501s11.833 21.834 20.5 30.501s18.667 15.5 30 20.5s23.666 7.5 36.999 7.5
c12.667 0 24.834 -2.5 36.501 -7.5s21.834 -11.833 30.501 -20.5s15.5 -18.834 20.5 -30.501s7.5 -23.834 7.5 -36.501c0 -13.333 -2.5 -25.666 -7.5 -36.999s-11.833 -21.333 -20.5 -30s-18.834 -15.5 -30.501 -20.5s-23.834 -7.5 -36.501 -7.5
c-13.333 0 -25.666 2.5 -36.999 7.5s-21.333 11.833 -30 20.5s-15.5 18.667 -20.5 30s-7.5 23.666 -7.5 36.999z" />
    <glyph glyph-name="uring" unicode="&#x16f;" 
d="M561 138c0 -19.333 -3.16699 -37.335 -9.5 -54.002s-15.333 -31.167 -27 -43.5s-26 -22.166 -43 -29.499s-36.167 -11 -57.5 -11h-256c-20 0 -38.5 3.5 -55.5 10.5s-31.667 16.667 -44 29s-21.833 26.833 -28.5 43.5s-10 35 -10 55v449h174v-372
c-1.33301 -28 11.667 -42 39 -42h101c28.667 0.666992 43.667 15.334 45 44.001v370h172v-449v0zM240 685.998c0 -15.333 5.33301 -28.333 16 -39s23.667 -16 39 -16s28.5 5.33301 39.5 16s16.5 23.667 16.5 39s-5.5 28.5 -16.5 39.5s-24.167 16.5 -39.5 16.5
s-28.333 -5.5 -39 -16.5s-16 -24.167 -16 -39.5zM199 682.998c0 12.667 2.5 24.834 7.5 36.501s11.833 21.834 20.5 30.501s18.667 15.5 30 20.5s23.666 7.5 36.999 7.5c12.667 0 24.834 -2.5 36.501 -7.5s21.834 -11.833 30.501 -20.5s15.5 -18.834 20.5 -30.501
s7.5 -23.834 7.5 -36.501c0 -13.333 -2.5 -25.666 -7.5 -36.999s-11.833 -21.333 -20.5 -30s-18.834 -15.5 -30.501 -20.5s-23.834 -7.5 -36.501 -7.5c-13.333 0 -25.666 2.5 -36.999 7.5s-21.333 11.833 -30 20.5s-15.5 18.667 -20.5 30s-7.5 23.666 -7.5 36.999z" />
    <glyph glyph-name="Uhungarumlaut" unicode="&#x170;" horiz-adv-x="609" 
d="M361 191c30.667 0 46 15.668 46 47.001v522h172v-623c0 -92.667 -44.667 -138.334 -134 -137.001h-275c-93.333 -0 -140 44.333 -140 133v627h173v-520c0 -32.667 13 -49 39 -49h119v0zM244 877.001c8 10 18.335 15.001 31.002 15.001
c11.333 0 23.666 -3.66699 36.999 -11s14.666 -22.333 3.99902 -45c0 -3.33301 -13.667 -20.333 -41 -51c-9.33301 -11.333 -20.333 -17 -33 -17c-10.667 0 -20 3.66699 -28 11s-12 16.666 -12 27.999c0 8 3 16.667 9 26l33 44v0zM369.002 874.002
c10 10.667 20.999 16 32.999 16c10.667 0 20.834 -3.83301 30.501 -11.5s14.5 -17.167 14.5 -28.5c0 -4.66699 -16.667 -28.667 -50 -72c-8.66699 -10.667 -19.667 -16 -33 -16c-10.667 0 -20.167 4 -28.5 12s-12.5 17.667 -12.5 29c0 9.33301 3 18 9 26l37 45v0z" />
    <glyph glyph-name="uhungarumlaut" unicode="&#x171;" 
d="M561 138c0 -19.333 -3.16699 -37.335 -9.5 -54.002s-15.333 -31.167 -27 -43.5s-26 -22.166 -43 -29.499s-36.167 -11 -57.5 -11h-256c-20 0 -38.5 3.5 -55.5 10.5s-31.667 16.667 -44 29s-21.833 26.833 -28.5 43.5s-10 35 -10 55v449h174v-372
c-1.33301 -28 11.667 -42 39 -42h101c28.667 0.666992 43.667 15.334 45 44.001v370h172v-449v0zM216 707.998c8 10 18.335 15.001 31.002 15.001c11.333 0 23.666 -3.66699 36.999 -11s14.666 -22.333 3.99902 -45c0 -3.33301 -13.667 -20.333 -41 -51
c-9.33301 -11.333 -20.333 -17 -33 -17c-10.667 0 -20 3.66699 -28 11s-12 16.666 -12 27.999c0 8 3 16.667 9 26l33 44v0zM341.002 704.999c10 10.667 20.999 16 32.999 16c10.667 0 20.834 -3.83301 30.501 -11.5s14.5 -17.167 14.5 -28.5
c0 -4.66699 -16.667 -28.667 -50 -72c-8.66699 -10.667 -19.667 -16 -33 -16c-10.667 0 -20.167 4 -28.5 12s-12.5 17.667 -12.5 29c0 9.33301 3 18 9 26l37 45v0z" />
    <glyph glyph-name="Zacute" unicode="&#x179;" horiz-adv-x="631" 
d="M601 0h-571v101l315 468h-315v191h569v-104l-324 -465h326v-191zM389 822l-129 -61c-8.66699 -3.33301 -15.334 -5 -20.001 -5c-11.333 0 -20.666 4.16699 -27.999 12.5s-11 17.833 -11 28.5c0 16 8.33301 28 25 36l129 61c8.66699 3.33301 15.334 5 20.001 5
c11.333 0 20.666 -4.16699 27.999 -12.5s11 -17.833 11 -28.5c0 -16 -8.33301 -28 -25 -36z" />
    <glyph glyph-name="zacute" unicode="&#x17a;" horiz-adv-x="641" 
d="M611 0h-581v100l294 314h-294v173h581v-100l-295 -314h295v-173zM389 822l-129 -61c-8.66699 -3.33301 -15.334 -5 -20.001 -5c-11.333 0 -20.666 4.16699 -27.999 12.5s-11 17.833 -11 28.5c0 16 8.33301 28 25 36l129 61c8.66699 3.33301 15.334 5 20.001 5
c11.333 0 20.666 -4.16699 27.999 -12.5s11 -17.833 11 -28.5c0 -16 -8.33301 -28 -25 -36z" />
    <glyph glyph-name="Zdotaccent" unicode="&#x17b;" horiz-adv-x="631" 
d="M376 834c0 -14 -4.16699 -24.333 -12.5 -31s-17.5 -10 -27.5 -10s-19.167 3.33301 -27.5 10s-12.5 17 -12.5 31c0 13.333 4.16699 23.5 12.5 30.5s17.5 10.5 27.5 10.5s19.167 -3.5 27.5 -10.5s12.5 -17.167 12.5 -30.5zM601 0h-571v101l315 468h-315v191h569v-104
l-324 -465h326v-191z" />
    <glyph glyph-name="zdotaccent" unicode="&#x17c;" horiz-adv-x="641" 
d="M358 661c0 -14 -4.16699 -24.333 -12.5 -31s-17.5 -10 -27.5 -10s-19.167 3.33301 -27.5 10s-12.5 17 -12.5 31c0 13.333 4.16699 23.5 12.5 30.5s17.5 10.5 27.5 10.5s19.167 -3.5 27.5 -10.5s12.5 -17.167 12.5 -30.5zM611 0h-581v100l294 314h-294v173h581v-100
l-295 -314h295v-173z" />
    <glyph glyph-name="Zcaron" unicode="&#x17d;" horiz-adv-x="631" 
d="M601 0h-571v101l315 468h-315v191h569v-104l-324 -465h326v-191zM248 912l65.001 -53.001l66 51c8 6.66699 16.167 10.167 24.5 10.5s15.666 -1.5 21.999 -5.5s11.5 -9.33301 15.5 -16s6 -13.667 6 -21c0 -11.333 -5.33301 -21.333 -16 -30l-77 -60
c-23.333 -22.667 -49.666 -22 -78.999 2l-77 60c-10.667 8.66699 -16 18.334 -16 29.001c0 11.333 3.16699 20.833 9.5 28.5s14.666 12.5 24.999 14.5s20.833 -1.33301 31.5 -10z" />
    <glyph glyph-name="zcaron" unicode="&#x17e;" horiz-adv-x="641" 
d="M611 0h-581v100l294 314h-294v173h581v-100l-295 -314h295v-173zM248 912l65.001 -53.001l66 51c8 6.66699 16.167 10.167 24.5 10.5s15.666 -1.5 21.999 -5.5s11.5 -9.33301 15.5 -16s6 -13.667 6 -21c0 -11.333 -5.33301 -21.333 -16 -30l-77 -60
c-23.333 -22.667 -49.666 -22 -78.999 2l-77 60c-10.667 8.66699 -16 18.334 -16 29.001c0 11.333 3.16699 20.833 9.5 28.5s14.666 12.5 24.999 14.5s20.833 -1.33301 31.5 -10z" />
    <glyph glyph-name="circumflex" unicode="&#x2c6;" horiz-adv-x="609" 
d="M248 768c-10.667 -8.66699 -21.168 -12.001 -31.501 -10.001s-18.666 6.83301 -24.999 14.5s-9.5 16.834 -9.5 27.501c0 11.333 5.33301 21.333 16 30l77 60c29.333 24 55.666 24.667 78.999 2l77 -60c10.667 -8.66699 16 -18.667 16 -30c0 -7.33301 -2 -14.333 -6 -21
s-9.16699 -12 -15.5 -16s-13.666 -5.83301 -21.999 -5.5s-16.5 3.83301 -24.5 10.5l-66 51l-65 -53v0z" />
    <glyph glyph-name="caron" unicode="&#x2c7;" horiz-adv-x="582" 
d="M248 912l65.001 -53.001l66 51c8 6.66699 16.167 10.167 24.5 10.5s15.666 -1.5 21.999 -5.5s11.5 -9.33301 15.5 -16s6 -13.667 6 -21c0 -11.333 -5.33301 -21.333 -16 -30l-77 -60c-23.333 -22.667 -49.666 -22 -78.999 2l-77 60
c-10.667 8.66699 -16 18.334 -16 29.001c0 11.333 3.16699 20.833 9.5 28.5s14.666 12.5 24.999 14.5s20.833 -1.33301 31.5 -10z" />
    <glyph glyph-name="tilde" unicode="&#x2dc;" horiz-adv-x="609" 
d="M243 792c-18 -22 -33.334 -33.0039 -46.001 -33.0039c-9.33301 0 -17 2.16699 -23 6.5s-10.5 9.83301 -13.5 16.5s-4 13.834 -3 21.501s4.16699 14.834 9.5 21.501c11.333 15.333 25.5 28 42.5 38s35.167 16 54.5 18c1.33301 0 3.16602 0.333008 5.49902 1
s5.83301 0.833984 10.5 0.500977s11 -1.66602 19 -3.99902s18.667 -6.5 32 -12.5c28 -11.333 45.667 -17 53 -17c6.66699 0 13 1.16699 19 3.5s12.667 7.83301 20 16.5c6.66699 8.66699 16 13 28 13c9.33301 0 17.333 -2.5 24 -7.5s11.334 -11 14.001 -18
s3.5 -14.667 2.5 -23s-4.16699 -15.5 -9.5 -21.5c-12.667 -14 -27.667 -25 -45 -33s-35.333 -12 -54 -12c-18.667 0.666992 -39 6.66699 -61 18c-22.667 11.333 -37.667 17 -45 17c-3.33301 0 -14.666 -3.33301 -33.999 -10z" />
    <glyph glyph-name="hungarumlaut" unicode="&#x2dd;" horiz-adv-x="500" 
d="M244 877c8 10 18.335 15.001 31.002 15.001c11.333 0 23.666 -3.66699 36.999 -11s14.666 -22.333 3.99902 -45c0 -3.33301 -13.667 -20.333 -41 -51c-9.33301 -11.333 -20.333 -17 -33 -17c-10.667 0 -20 3.66699 -28 11s-12 16.666 -12 27.999c0 8 3 16.667 9 26l33 44
v0zM369.002 874.001c10 10.667 20.999 16 32.999 16c10.667 0 20.834 -3.83301 30.501 -11.5s14.5 -17.167 14.5 -28.5c0 -4.66699 -16.667 -28.667 -50 -72c-8.66699 -10.667 -19.667 -16 -33 -16c-10.667 0 -20.167 4 -28.5 12s-12.5 17.667 -12.5 29c0 9.33301 3 18 9 26
l37 45v0z" />
    <glyph glyph-name="endash" unicode="&#x2013;" horiz-adv-x="274" 
d="M244 204h-214v116h214v-116z" />
    <glyph glyph-name="emdash" unicode="&#x2014;" horiz-adv-x="409" 
d="M379 205h-349v117h349v-117z" />
    <glyph glyph-name="quoteleft" unicode="&#x2018;" horiz-adv-x="236" 
d="M243 1082v0v0v0v0v0v0v0v0v0v0v0v0v0z" />
    <glyph glyph-name="quoteright" unicode="&#x2019;" horiz-adv-x="236" 
d="M128 506c-6.66699 -6.66699 -13.333 -10 -20 -10h-33c-14 0 -17 6 -9 18l33 45c11.333 16 10.333 25.667 -3 29h-7c-39.333 0 -59 18 -59 54v57c0 41.333 20 62 60 62h54c41.333 0 62 -20.667 62 -62v-57c0 -20.667 -12.667 -48.667 -38 -84z" />
    <glyph glyph-name="quotedblleft" unicode="&#x201c;" horiz-adv-x="418" 
d="M231 1081v0v0v0v0v0v0v0v0v0v0v0v0v0zM420 1080v0v0v0v0v0v0v0v0v0v0v0v0v0z" />
    <glyph glyph-name="quotedblright" unicode="&#x201d;" horiz-adv-x="414" 
d="M119 504c-6.66699 -6.66699 -13.333 -10 -20 -10h-33c-14 0 -17 6 -9 18l33 45c11.333 16 10.333 25.667 -3 29h-7c-39.333 0 -59 18 -59 54v57c0 41.333 20 62 60 62h54c41.333 0 62 -20.667 62 -62v-57c0 -20.667 -12.667 -48.667 -38 -84zM314.001 504
c-6.66699 -6.66699 -13.333 -10 -20 -10h-33c-14 0 -17 6 -9 18l33 45c11.333 16 10.333 25.667 -3 29h-7c-39.333 0 -59 18 -59 54v57c0 41.333 20 62 60 62h54c41.333 0 62 -20.667 62 -62v-57c0 -20.667 -12.667 -48.667 -38 -84z" />
    <glyph glyph-name="bullet" unicode="&#x2022;" horiz-adv-x="499" 
d="M469 104h-439v459h439v-459z" />
    <glyph glyph-name="dotlessi" unicode="&#x20ac;" horiz-adv-x="233" 
d="M30 0v587h173v-587h-173z" />
    <glyph glyph-name="trademark" unicode="&#x2122;" horiz-adv-x="659" 
d="M47 315v0v0v0v0v0v0v0v0v0v0v0zM207 315v0v0v0v0v0v0v0v0v0v0v0v0v0v0v0v0v0v0v0v0v0z" />
    <glyph glyph-name=".null" horiz-adv-x="0" 
 />
    <glyph glyph-name="nonmarkingreturn" horiz-adv-x="500" 
 />
    <glyph glyph-name="FL172" horiz-adv-x="500" 
 />
    </font>
</defs>
</svg>
